{
	"patcher" : 	{
		"fileversion" : 1,
		"appversion" : 		{
			"major" : 9,
			"minor" : 0,
			"revision" : 2,
			"architecture" : "x64",
			"modernui" : 1
		}
,
		"classnamespace" : "box",
		"rect" : [ 134.0, 146.0, 839.0, 937.0 ],
		"gridsize" : [ 15.0, 15.0 ],
		"boxes" : [ 			{
				"box" : 				{
					"id" : "obj-9",
					"maxclass" : "newobj",
					"numinlets" : 1,
					"numoutlets" : 1,
					"outlettype" : [ "" ],
					"patching_rect" : [ 227.397430419921875, 535.0, 100.0, 22.0 ],
					"text" : "loadmess 2"
				}

			}
, 			{
				"box" : 				{
					"id" : "obj-7",
					"maxclass" : "newobj",
					"numinlets" : 3,
					"numoutlets" : 1,
					"outlettype" : [ "" ],
					"patching_rect" : [ 344.5, 570.0, 100.0, 22.0 ],
					"text" : "switch 2"
				}

			}
, 			{
				"box" : 				{
					"floatoutput" : 1,
					"id" : "obj-2",
					"maxclass" : "slider",
					"numinlets" : 1,
					"numoutlets" : 1,
					"outlettype" : [ "" ],
					"parameter_enable" : 0,
					"patching_rect" : [ 346.30572509765625, 609.4757080078125, 206.0, 28.0 ],
					"size" : 5.0
				}

			}
, 			{
				"box" : 				{
					"id" : "obj-16",
					"items" : [ "off", ",", "prediction", ",", "recorded" ],
					"maxclass" : "umenu",
					"numinlets" : 1,
					"numoutlets" : 3,
					"outlettype" : [ "int", "", "" ],
					"parameter_enable" : 0,
					"patching_rect" : [ 227.397430419921875, 566.0, 100.0, 22.0 ]
				}

			}
, 			{
				"box" : 				{
					"id" : "obj-12",
					"maxclass" : "newobj",
					"numinlets" : 1,
					"numoutlets" : 1,
					"outlettype" : [ "float" ],
					"patcher" : 					{
						"fileversion" : 1,
						"appversion" : 						{
							"major" : 9,
							"minor" : 0,
							"revision" : 2,
							"architecture" : "x64",
							"modernui" : 1
						}
,
						"classnamespace" : "box",
						"rect" : [ 59.0, 104.0, 640.0, 480.0 ],
						"gridsize" : [ 15.0, 15.0 ],
						"boxes" : [ 							{
								"box" : 								{
									"id" : "obj-5",
									"maxclass" : "toggle",
									"numinlets" : 1,
									"numoutlets" : 1,
									"outlettype" : [ "int" ],
									"parameter_enable" : 0,
									"patching_rect" : [ 50.0, 70.0, 24.0, 24.0 ],
									"svg" : ""
								}

							}
, 							{
								"box" : 								{
									"id" : "obj-1",
									"maxclass" : "newobj",
									"numinlets" : 1,
									"numoutlets" : 1,
									"outlettype" : [ "" ],
									"patching_rect" : [ 50.0, 41.0, 100.0, 22.0 ],
									"text" : "loadmess 1"
								}

							}
, 							{
								"box" : 								{
									"id" : "obj-3",
									"maxclass" : "newobj",
									"numinlets" : 2,
									"numoutlets" : 1,
									"outlettype" : [ "float" ],
									"patching_rect" : [ 50.0, 140.613921210937519, 29.5, 22.0 ],
									"text" : "f"
								}

							}
, 							{
								"box" : 								{
									"id" : "obj-2",
									"maxclass" : "newobj",
									"numinlets" : 2,
									"numoutlets" : 1,
									"outlettype" : [ "bang" ],
									"patching_rect" : [ 50.0, 100.0, 128.0, 22.0 ],
									"text" : "metro 10 @autostart 1"
								}

							}
, 							{
								"box" : 								{
									"comment" : "",
									"id" : "obj-10",
									"index" : 1,
									"maxclass" : "inlet",
									"numinlets" : 0,
									"numoutlets" : 1,
									"outlettype" : [ "" ],
									"patching_rect" : [ 81.00000798095698, -3.000000999999983, 30.0, 30.0 ]
								}

							}
, 							{
								"box" : 								{
									"comment" : "",
									"id" : "obj-11",
									"index" : 1,
									"maxclass" : "outlet",
									"numinlets" : 1,
									"numoutlets" : 0,
									"patching_rect" : [ 50.00000798095698, 222.613921000000033, 30.0, 30.0 ]
								}

							}
 ],
						"lines" : [ 							{
								"patchline" : 								{
									"destination" : [ "obj-5", 0 ],
									"source" : [ "obj-1", 0 ]
								}

							}
, 							{
								"patchline" : 								{
									"destination" : [ "obj-3", 1 ],
									"source" : [ "obj-10", 0 ]
								}

							}
, 							{
								"patchline" : 								{
									"destination" : [ "obj-3", 0 ],
									"source" : [ "obj-2", 0 ]
								}

							}
, 							{
								"patchline" : 								{
									"destination" : [ "obj-11", 0 ],
									"source" : [ "obj-3", 0 ]
								}

							}
, 							{
								"patchline" : 								{
									"destination" : [ "obj-2", 0 ],
									"source" : [ "obj-5", 0 ]
								}

							}
 ],
						"originid" : "pat-792"
					}
,
					"patching_rect" : [ 431.30572509765625, 103.542694999999981, 68.0, 22.0 ],
					"saved_object_attributes" : 					{
						"globalpatchername" : ""
					}
,
					"text" : "p resample"
				}

			}
, 			{
				"box" : 				{
					"bgcolor" : [ 0.0, 0.0, 0.0, 0.0 ],
					"bgmode" : 2,
					"border" : 0,
					"clickthrough" : 0,
					"enablehscroll" : 0,
					"enablevscroll" : 0,
					"id" : "obj-26",
					"lockeddragscroll" : 0,
					"lockedsize" : 0,
					"maxclass" : "bpatcher",
					"name" : "sid.output.maxpat",
					"numinlets" : 2,
					"numoutlets" : 0,
					"offset" : [ 0.0, 0.0 ],
					"patching_rect" : [ 231.602569580078125, 819.975738999999976, 182.97576904296875, 110.099037170410156 ],
					"viewvisibility" : 1
				}

			}
, 			{
				"box" : 				{
					"floatoutput" : 1,
					"id" : "obj-1",
					"maxclass" : "slider",
					"numinlets" : 1,
					"numoutlets" : 1,
					"outlettype" : [ "" ],
					"parameter_enable" : 0,
					"patching_rect" : [ 431.30572509765625, 55.819153306640601, 206.0, 28.0 ],
					"size" : 5.0
				}

			}
, 			{
				"box" : 				{
					"bgcolor" : [ 0.65045, 0.65045, 0.65045, 0.0 ],
					"bgmode" : 1,
					"border" : 1,
					"clickthrough" : 0,
					"enablehscroll" : 0,
					"enablevscroll" : 0,
					"id" : "obj-48",
					"lockeddragscroll" : 0,
					"lockedsize" : 0,
					"maxclass" : "bpatcher",
					"name" : "gst.recorddata.maxpat",
					"numinlets" : 6,
					"numoutlets" : 3,
					"offset" : [ -2.0, -4.0 ],
					"outlettype" : [ "", "", "" ],
					"patching_rect" : [ 431.30572509765625, 149.1566162109375, 512.79486083984375, 141.56695556640625 ],
					"viewvisibility" : 1
				}

			}
, 			{
				"box" : 				{
					"bgcolor" : [ 0.65045, 0.65045, 0.65045, 0.0 ],
					"bgmode" : 2,
					"border" : 1,
					"clickthrough" : 0,
					"enablehscroll" : 0,
					"enablevscroll" : 0,
					"id" : "obj-60",
					"lockeddragscroll" : 0,
					"lockedsize" : 0,
					"maxclass" : "bpatcher",
					"name" : "synth.filter.maxpat",
					"numinlets" : 3,
					"numoutlets" : 1,
					"offset" : [ 0.0, 0.0 ],
					"outlettype" : [ "signal" ],
					"patching_rect" : [ 234.908294677734375, 654.084000108398413, 241.79486083984375, 145.891738891601562 ],
					"viewvisibility" : 1
				}

			}
, 			{
				"box" : 				{
					"bgcolor" : [ 0.819608, 0.819608, 0.819608, 0.0 ],
					"bgmode" : 2,
					"border" : 1,
					"clickthrough" : 0,
					"enablehscroll" : 0,
					"enablevscroll" : 0,
					"id" : "obj-6",
					"lockeddragscroll" : 0,
					"lockedsize" : 0,
					"maxclass" : "bpatcher",
					"name" : "sp.orientation.maxpat",
					"numinlets" : 2,
					"numoutlets" : 2,
					"offset" : [ 0.0, 0.0 ],
					"outlettype" : [ "", "" ],
					"patching_rect" : [ 104.0, 165.40447998046875, 133.731216430664062, 116.319091796875 ],
					"viewvisibility" : 1
				}

			}
, 			{
				"box" : 				{
					"bgcolor" : [ 0.6, 0.678431, 0.756863, 0.0 ],
					"bgmode" : 2,
					"border" : 1,
					"clickthrough" : 0,
					"enablehscroll" : 0,
					"enablevscroll" : 0,
					"id" : "obj-41",
					"lockeddragscroll" : 0,
					"lockedsize" : 0,
					"maxclass" : "bpatcher",
					"name" : "in.riotbitalino.maxpat",
					"numinlets" : 4,
					"numoutlets" : 4,
					"offset" : [ -6.0, 0.0 ],
					"outlettype" : [ "", "", "", "float" ],
					"patching_rect" : [ 104.0, 19.975739000000004, 163.0, 132.566956000000005 ],
					"viewvisibility" : 1
				}

			}
, 			{
				"box" : 				{
					"bgmode" : 0,
					"border" : 1,
					"clickthrough" : 0,
					"enablehscroll" : 0,
					"enablevscroll" : 0,
					"id" : "obj-8",
					"lockeddragscroll" : 0,
					"lockedsize" : 0,
					"maxclass" : "bpatcher",
					"name" : "ml.regression.gmr.maxpat",
					"numinlets" : 9,
					"numoutlets" : 3,
					"offset" : [ 0.0, 0.0 ],
					"outlettype" : [ "", "", "" ],
					"patching_rect" : [ 104.0, 317.0, 302.0, 181.0 ],
					"viewvisibility" : 1
				}

			}
 ],
		"lines" : [ 			{
				"patchline" : 				{
					"destination" : [ "obj-12", 0 ],
					"source" : [ "obj-1", 0 ]
				}

			}
, 			{
				"patchline" : 				{
					"destination" : [ "obj-48", 0 ],
					"source" : [ "obj-12", 0 ]
				}

			}
, 			{
				"patchline" : 				{
					"destination" : [ "obj-7", 0 ],
					"source" : [ "obj-16", 0 ]
				}

			}
, 			{
				"patchline" : 				{
					"destination" : [ "obj-60", 1 ],
					"source" : [ "obj-2", 0 ]
				}

			}
, 			{
				"patchline" : 				{
					"destination" : [ "obj-6", 0 ],
					"source" : [ "obj-41", 0 ]
				}

			}
, 			{
				"patchline" : 				{
					"destination" : [ "obj-7", 2 ],
					"order" : 0,
					"source" : [ "obj-48", 0 ]
				}

			}
, 			{
				"patchline" : 				{
					"destination" : [ "obj-8", 1 ],
					"order" : 1,
					"source" : [ "obj-48", 0 ]
				}

			}
, 			{
				"patchline" : 				{
					"destination" : [ "obj-8", 0 ],
					"source" : [ "obj-6", 0 ]
				}

			}
, 			{
				"patchline" : 				{
					"destination" : [ "obj-26", 0 ],
					"source" : [ "obj-60", 0 ]
				}

			}
, 			{
				"patchline" : 				{
					"destination" : [ "obj-2", 0 ],
					"source" : [ "obj-7", 0 ]
				}

			}
, 			{
				"patchline" : 				{
					"destination" : [ "obj-7", 1 ],
					"source" : [ "obj-8", 2 ]
				}

			}
, 			{
				"patchline" : 				{
					"destination" : [ "obj-16", 0 ],
					"source" : [ "obj-9", 0 ]
				}

			}
 ],
		"originid" : "pat-790",
		"parameters" : 		{
			"obj-26::obj-2" : [ "live.gain~[5]", "live.gain~[4]", 0 ],
			"obj-60::obj-2" : [ "live.gain~[2]", "live.gain~", 0 ],
			"parameterbanks" : 			{

			}
,
			"inherited_shortname" : 1
		}
,
		"dependency_cache" : [ 			{
				"name" : "gst.recorddata.maxpat",
				"bootpath" : "~/Documents/Max 9/Packages/Gestural-Sound-Toolkit-mubuscroll/patchers/mod-analysis/data-recording",
				"patcherrelativepath" : "../../../../Max 9/Packages/Gestural-Sound-Toolkit-mubuscroll/patchers/mod-analysis/data-recording",
				"type" : "JSON",
				"implicit" : 1
			}
, 			{
				"name" : "helpstarter.js",
				"bootpath" : "C74:/help/resources",
				"type" : "TEXT",
				"implicit" : 1
			}
, 			{
				"name" : "imubu.mxo",
				"type" : "iLaX"
			}
, 			{
				"name" : "in.riotbitalino.maxpat",
				"bootpath" : "~/Documents/Max 9/Packages/Gestural-Sound-Toolkit-mubuscroll/patchers/mod-interfaces/riot",
				"patcherrelativepath" : "../../../../Max 9/Packages/Gestural-Sound-Toolkit-mubuscroll/patchers/mod-interfaces/riot",
				"type" : "JSON",
				"implicit" : 1
			}
, 			{
				"name" : "ml.regression.gmr.maxpat",
				"bootpath" : "~/Documents/Max 9/Packages/Gestural-Sound-Toolkit-mubuscroll/patchers/mod-analysis/machine-learning",
				"patcherrelativepath" : "../../../../Max 9/Packages/Gestural-Sound-Toolkit-mubuscroll/patchers/mod-analysis/machine-learning",
				"type" : "JSON",
				"implicit" : 1
			}
, 			{
				"name" : "mubu.gmm.mxo",
				"type" : "iLaX"
			}
, 			{
				"name" : "mubu.gmr.maxhelp",
				"bootpath" : "~/Documents/Max 9/Packages/MuBu For Max/help",
				"patcherrelativepath" : "../../../../Max 9/Packages/MuBu For Max/help",
				"type" : "JSON",
				"implicit" : 1
			}
, 			{
				"name" : "mubu.gmr.mxo",
				"type" : "iLaX"
			}
, 			{
				"name" : "mubu.mxo",
				"type" : "iLaX"
			}
, 			{
				"name" : "mubu.play.mxo",
				"type" : "iLaX"
			}
, 			{
				"name" : "mubu.record.mxo",
				"type" : "iLaX"
			}
, 			{
				"name" : "mubu.scroll.mxo",
				"type" : "iLaX"
			}
, 			{
				"name" : "mubu.setlabels.maxpat",
				"bootpath" : "~/Documents/Max 9/Packages/MuBu For Max/patchers",
				"patcherrelativepath" : "../../../../Max 9/Packages/MuBu For Max/patchers",
				"type" : "JSON",
				"implicit" : 1
			}
, 			{
				"name" : "mubu.track.mxo",
				"type" : "iLaX"
			}
, 			{
				"name" : "pipo.mxo",
				"type" : "iLaX"
			}
, 			{
				"name" : "riotbitalino.maxpat",
				"bootpath" : "~/Documents/Max 9/Packages/Gestural-Sound-Toolkit-mubuscroll/patchers/mod-interfaces/riot",
				"patcherrelativepath" : "../../../../Max 9/Packages/Gestural-Sound-Toolkit-mubuscroll/patchers/mod-interfaces/riot",
				"type" : "JSON",
				"implicit" : 1
			}
, 			{
				"name" : "sid.output.maxpat",
				"bootpath" : "~/Documents/Max 9/Packages/Gestural-Sound-Toolkit-mubuscroll/patchers/mod-synthesis",
				"patcherrelativepath" : "../../../../Max 9/Packages/Gestural-Sound-Toolkit-mubuscroll/patchers/mod-synthesis",
				"type" : "JSON",
				"implicit" : 1
			}
, 			{
				"name" : "sp.orientation.maxpat",
				"bootpath" : "~/Documents/Max 9/Packages/Gestural-Sound-Toolkit-mubuscroll/patchers/mod-analysis/signal-processing",
				"patcherrelativepath" : "../../../../Max 9/Packages/Gestural-Sound-Toolkit-mubuscroll/patchers/mod-analysis/signal-processing",
				"type" : "JSON",
				"implicit" : 1
			}
, 			{
				"name" : "synth.filter.maxpat",
				"bootpath" : "~/Documents/Max 9/Packages/Gestural-Sound-Toolkit-mubuscroll/patchers/mod-synthesis",
				"patcherrelativepath" : "../../../../Max 9/Packages/Gestural-Sound-Toolkit-mubuscroll/patchers/mod-synthesis",
				"type" : "JSON",
				"implicit" : 1
			}
 ],
		"autosave" : 0
	}

}
