{
	"patcher" : 	{
		"fileversion" : 1,
		"appversion" : 		{
			"major" : 9,
			"minor" : 0,
			"revision" : 4,
			"architecture" : "x64",
			"modernui" : 1
		}
,
		"classnamespace" : "box",
		"rect" : [ 111.0, 100.0, 1510.0, 982.0 ],
		"gridsize" : [ 15.0, 15.0 ],
		"boxes" : [ 			{
				"box" : 				{
					"id" : "obj-34",
					"maxclass" : "toggle",
					"numinlets" : 1,
					"numoutlets" : 1,
					"outlettype" : [ "int" ],
					"parameter_enable" : 0,
					"patching_rect" : [ 1300.371223449707031, 27.975730895996094, 24.0, 24.0 ],
					"svg" : ""
				}

			}
, 			{
				"box" : 				{
					"id" : "obj-32",
					"maxclass" : "newobj",
					"numinlets" : 1,
					"numoutlets" : 3,
					"outlettype" : [ "", "int", "int" ],
					"patching_rect" : [ 306.0, 659.0, 48.0, 22.0 ],
					"text" : "change"
				}

			}
, 			{
				"box" : 				{
					"id" : "obj-30",
					"maxclass" : "newobj",
					"numinlets" : 1,
					"numoutlets" : 1,
					"outlettype" : [ "" ],
					"patching_rect" : [ 400.0, 659.0, 151.0, 22.0 ],
					"text" : "loadmess C74:/media/msp"
				}

			}
, 			{
				"box" : 				{
					"bgcolor" : [ 0.823529, 0.823529, 0.823529, 0.0 ],
					"bgmode" : 2,
					"border" : 1,
					"clickthrough" : 0,
					"enablehscroll" : 0,
					"enablevscroll" : 0,
					"id" : "obj-31",
					"lockeddragscroll" : 0,
					"lockedsize" : 0,
					"maxclass" : "bpatcher",
					"name" : "synth.scratch.samples.maxpat",
					"numinlets" : 5,
					"numoutlets" : 2,
					"offset" : [ 0.0, 0.0 ],
					"outlettype" : [ "signal", "signal" ],
					"patching_rect" : [ 306.0, 694.0, 240.79486083984375, 145.891738891601562 ],
					"viewvisibility" : 1
				}

			}
, 			{
				"box" : 				{
					"id" : "obj-4",
					"maxclass" : "button",
					"numinlets" : 1,
					"numoutlets" : 1,
					"outlettype" : [ "bang" ],
					"parameter_enable" : 0,
					"patching_rect" : [ 714.0, 645.0, 24.0, 24.0 ]
				}

			}
, 			{
				"box" : 				{
					"fontname" : "Helvetica Neue Light",
					"fontsize" : 23.865383000000001,
					"id" : "obj-15",
					"maxclass" : "comment",
					"numinlets" : 1,
					"numoutlets" : 0,
					"patching_rect" : [ 825.0, 369.0, 86.0, 35.0 ],
					"text" : "Onset"
				}

			}
, 			{
				"box" : 				{
					"fontname" : "Helvetica Neue Light",
					"fontsize" : 23.865383000000001,
					"id" : "obj-11",
					"maxclass" : "comment",
					"numinlets" : 1,
					"numoutlets" : 0,
					"patching_rect" : [ 570.865608215332031, 369.0, 86.0, 35.0 ],
					"text" : "Gate"
				}

			}
, 			{
				"box" : 				{
					"format" : 6,
					"id" : "obj-8",
					"maxclass" : "flonum",
					"numinlets" : 1,
					"numoutlets" : 2,
					"outlettype" : [ "", "bang" ],
					"parameter_enable" : 0,
					"patching_rect" : [ 547.0, 585.0, 50.0, 22.0 ]
				}

			}
, 			{
				"box" : 				{
					"fontsize" : 12.0,
					"format" : 6,
					"id" : "obj-19",
					"maxclass" : "flonum",
					"numinlets" : 1,
					"numoutlets" : 2,
					"outlettype" : [ "", "bang" ],
					"parameter_enable" : 0,
					"patching_rect" : [ 191.5, 485.316162109375, 43.0, 22.0 ]
				}

			}
, 			{
				"box" : 				{
					"fontsize" : 12.0,
					"format" : 6,
					"id" : "obj-27",
					"maxclass" : "flonum",
					"numinlets" : 1,
					"numoutlets" : 2,
					"outlettype" : [ "", "bang" ],
					"parameter_enable" : 0,
					"patching_rect" : [ 110.5, 485.316162109375, 43.0, 22.0 ]
				}

			}
, 			{
				"box" : 				{
					"fontsize" : 12.0,
					"id" : "obj-29",
					"maxclass" : "newobj",
					"numinlets" : 1,
					"numoutlets" : 2,
					"outlettype" : [ "float", "float" ],
					"patching_rect" : [ 110.5, 458.0, 100.0, 22.0 ],
					"text" : "unpack f f"
				}

			}
, 			{
				"box" : 				{
					"id" : "obj-18",
					"maxclass" : "button",
					"numinlets" : 1,
					"numoutlets" : 1,
					"outlettype" : [ "bang" ],
					"parameter_enable" : 0,
					"patching_rect" : [ 662.0, 645.0, 24.0, 24.0 ]
				}

			}
, 			{
				"box" : 				{
					"fontsize" : 12.0,
					"id" : "obj-16",
					"maxclass" : "newobj",
					"numinlets" : 1,
					"numoutlets" : 2,
					"outlettype" : [ "bang", "bang" ],
					"patching_rect" : [ 662.0, 615.0, 71.0, 22.0 ],
					"text" : "togedge"
				}

			}
, 			{
				"box" : 				{
					"fontname" : "Helvetica Neue Light",
					"fontsize" : 18.0,
					"id" : "obj-1",
					"maxclass" : "comment",
					"numinlets" : 1,
					"numoutlets" : 0,
					"patching_rect" : [ 110.5, 27.975730895996094, 243.0, 28.0 ],
					"text" : " drawing / position tracking"
				}

			}
, 			{
				"box" : 				{
					"fontname" : "Helvetica Neue Light",
					"fontsize" : 18.0,
					"id" : "obj-24",
					"maxclass" : "comment",
					"numinlets" : 1,
					"numoutlets" : 0,
					"patching_rect" : [ 1024.0, 12.975730895996094, 227.0, 28.0 ],
					"text" : "Inertial measurement units"
				}

			}
, 			{
				"box" : 				{
					"fontsize" : 12.0,
					"format" : 6,
					"id" : "obj-2",
					"maxclass" : "flonum",
					"numinlets" : 1,
					"numoutlets" : 2,
					"outlettype" : [ "", "bang" ],
					"parameter_enable" : 0,
					"patching_rect" : [ 1065.865608215332031, 375.316162109375, 43.0, 22.0 ]
				}

			}
, 			{
				"box" : 				{
					"fontsize" : 12.0,
					"format" : 6,
					"id" : "obj-20",
					"maxclass" : "flonum",
					"numinlets" : 1,
					"numoutlets" : 2,
					"outlettype" : [ "", "bang" ],
					"parameter_enable" : 0,
					"patching_rect" : [ 984.865608215332031, 375.316162109375, 43.0, 22.0 ]
				}

			}
, 			{
				"box" : 				{
					"fontsize" : 12.0,
					"id" : "obj-17",
					"maxclass" : "newobj",
					"numinlets" : 1,
					"numoutlets" : 2,
					"outlettype" : [ "float", "float" ],
					"patching_rect" : [ 984.865608215332031, 348.0, 100.0, 22.0 ],
					"text" : "unpack f f"
				}

			}
, 			{
				"box" : 				{
					"bgcolor" : [ 0.819608, 0.819608, 0.819608, 0.0 ],
					"bgmode" : 2,
					"border" : 1,
					"clickthrough" : 0,
					"enablehscroll" : 0,
					"enablevscroll" : 0,
					"id" : "obj-7",
					"lockeddragscroll" : 0,
					"lockedsize" : 0,
					"maxclass" : "bpatcher",
					"name" : "sp.norm.maxpat",
					"numinlets" : 1,
					"numoutlets" : 1,
					"offset" : [ 0.0, 0.0 ],
					"outlettype" : [ "float" ],
					"patching_rect" : [ 248.5, 313.1566162109375, 133.731216430664062, 116.319091796875 ],
					"viewvisibility" : 1
				}

			}
, 			{
				"box" : 				{
					"fontsize" : 12.0,
					"id" : "obj-5",
					"maxclass" : "newobj",
					"numinlets" : 1,
					"numoutlets" : 1,
					"outlettype" : [ "" ],
					"patching_rect" : [ 412.231216430664062, 33.975730895996094, 70.0, 22.0 ],
					"text" : "loadmess 2"
				}

			}
, 			{
				"box" : 				{
					"bgcolor" : [ 0.6, 0.678431, 0.756863, 0.0 ],
					"bgmode" : 2,
					"border" : 1,
					"clickthrough" : 0,
					"enablehscroll" : 0,
					"enablevscroll" : 0,
					"id" : "obj-12",
					"lockeddragscroll" : 0,
					"lockedsize" : 0,
					"maxclass" : "bpatcher",
					"name" : "in.comote.maxpat",
					"numinlets" : 6,
					"numoutlets" : 6,
					"offset" : [ -7.0, -5.0 ],
					"outlettype" : [ "", "", "", "", "", "" ],
					"patching_rect" : [ 1156.371223449707031, 61.975730895996094, 163.0, 132.56695556640625 ],
					"viewvisibility" : 1
				}

			}
, 			{
				"box" : 				{
					"bgcolor" : [ 0.6, 0.678431, 0.756863, 0.0 ],
					"bgmode" : 2,
					"border" : 1,
					"clickthrough" : 0,
					"enablehscroll" : 0,
					"enablevscroll" : 0,
					"id" : "obj-23",
					"lockeddragscroll" : 0,
					"lockedsize" : 0,
					"maxclass" : "bpatcher",
					"name" : "in.riotbitalino.maxpat",
					"numinlets" : 5,
					"numoutlets" : 4,
					"offset" : [ -7.0, -5.0 ],
					"outlettype" : [ "", "", "", "float" ],
					"patching_rect" : [ 984.865608215332031, 61.975730895996094, 163.0, 132.56695556640625 ],
					"viewvisibility" : 1
				}

			}
, 			{
				"box" : 				{
					"bgmode" : 0,
					"border" : 1,
					"clickthrough" : 0,
					"enablehscroll" : 0,
					"enablevscroll" : 0,
					"id" : "obj-21",
					"lockeddragscroll" : 0,
					"lockedsize" : 0,
					"maxclass" : "bpatcher",
					"name" : "drawing.maxpat",
					"numinlets" : 3,
					"numoutlets" : 2,
					"offset" : [ 0.0, 0.0 ],
					"outlettype" : [ "", "int" ],
					"patching_rect" : [ 110.5, 65.975730895996094, 320.731216430664062, 243.180885314941406 ],
					"viewvisibility" : 1
				}

			}
, 			{
				"box" : 				{
					"fontname" : "Helvetica Neue Light",
					"fontsize" : 23.899999999999999,
					"id" : "obj-10",
					"maxclass" : "comment",
					"numinlets" : 1,
					"numoutlets" : 0,
					"patching_rect" : [ 614.5, 5.975730895996094, 272.0, 35.0 ],
					"text" : "Gate / Trigger"
				}

			}
, 			{
				"box" : 				{
					"bgcolor" : [ 0.819608, 0.819608, 0.819608, 0.0 ],
					"bgmode" : 2,
					"border" : 1,
					"clickthrough" : 0,
					"enablehscroll" : 0,
					"enablevscroll" : 0,
					"id" : "obj-6",
					"lockeddragscroll" : 0,
					"lockedsize" : 0,
					"maxclass" : "bpatcher",
					"name" : "sp.derivative.maxpat",
					"numinlets" : 3,
					"numoutlets" : 1,
					"offset" : [ 0.0, 0.0 ],
					"outlettype" : [ "" ],
					"patching_rect" : [ 110.5, 313.1566162109375, 133.731216430664062, 116.319091796875 ],
					"viewvisibility" : 1
				}

			}
, 			{
				"box" : 				{
					"bgcolor" : [ 0.819608, 0.819608, 0.819608, 0.0 ],
					"bgmode" : 2,
					"border" : 1,
					"clickthrough" : 0,
					"enablehscroll" : 0,
					"enablevscroll" : 0,
					"id" : "obj-14",
					"lockeddragscroll" : 0,
					"lockedsize" : 0,
					"maxclass" : "bpatcher",
					"name" : "sp.acc.intensity.maxpat",
					"numinlets" : 3,
					"numoutlets" : 4,
					"offset" : [ 0.0, 0.0 ],
					"outlettype" : [ "", "float", "float", "float" ],
					"patching_rect" : [ 984.865608215332031, 219.1566162109375, 133.731216430664062, 116.347579956054688 ],
					"viewvisibility" : 1
				}

			}
, 			{
				"box" : 				{
					"id" : "obj-22",
					"maxclass" : "button",
					"numinlets" : 1,
					"numoutlets" : 1,
					"outlettype" : [ "bang" ],
					"parameter_enable" : 0,
					"patching_rect" : [ 920.365608215332031, 586.0, 24.0, 24.0 ]
				}

			}
, 			{
				"box" : 				{
					"id" : "obj-13",
					"maxclass" : "toggle",
					"numinlets" : 1,
					"numoutlets" : 1,
					"outlettype" : [ "int" ],
					"parameter_enable" : 0,
					"patching_rect" : [ 662.0, 584.0, 24.0, 24.0 ],
					"svg" : ""
				}

			}
, 			{
				"box" : 				{
					"bgcolor" : [ 0.823529, 0.823529, 0.823529, 0.0 ],
					"bgmode" : 2,
					"border" : 1,
					"clickthrough" : 0,
					"enablehscroll" : 0,
					"enablevscroll" : 0,
					"id" : "obj-40",
					"lockeddragscroll" : 0,
					"lockedsize" : 0,
					"maxclass" : "bpatcher",
					"name" : "synth.FM.maxpat",
					"numinlets" : 6,
					"numoutlets" : 4,
					"offset" : [ -6.0, -7.0 ],
					"outlettype" : [ "signal", "", "", "" ],
					"patching_rect" : [ 662.0, 702.0, 240.79486083984375, 145.891738891601562 ],
					"viewvisibility" : 1
				}

			}
, 			{
				"box" : 				{
					"bgcolor" : [ 0.819608, 0.819608, 0.819608, 0.0 ],
					"bgmode" : 2,
					"border" : 1,
					"clickthrough" : 0,
					"enablehscroll" : 0,
					"enablevscroll" : 0,
					"id" : "obj-25",
					"lockeddragscroll" : 0,
					"lockedsize" : 0,
					"maxclass" : "bpatcher",
					"name" : "sp.gate.float.maxpat",
					"numinlets" : 2,
					"numoutlets" : 2,
					"offset" : [ 1.0, -4.0 ],
					"outlettype" : [ "", "" ],
					"patching_rect" : [ 547.0, 460.0, 133.731216430664062, 116.347579956054688 ],
					"viewvisibility" : 1
				}

			}
, 			{
				"box" : 				{
					"fontname" : "Helvetica Neue Light",
					"fontsize" : 23.865383000000001,
					"id" : "obj-28",
					"maxclass" : "comment",
					"numinlets" : 1,
					"numoutlets" : 0,
					"patching_rect" : [ 389.755447387695312, 920.0, 98.0, 35.0 ],
					"text" : "Output"
				}

			}
, 			{
				"box" : 				{
					"bgcolor" : [ 0.913725490196078, 0.913725490196078, 0.913725490196078, 0.0 ],
					"bgmode" : 2,
					"border" : 0,
					"clickthrough" : 0,
					"enablehscroll" : 0,
					"enablevscroll" : 0,
					"id" : "obj-26",
					"lockeddragscroll" : 0,
					"lockedsize" : 0,
					"maxclass" : "bpatcher",
					"name" : "sid.output.maxpat",
					"numinlets" : 2,
					"numoutlets" : 0,
					"offset" : [ 0.0, 0.0 ],
					"patching_rect" : [ 497.755447387695312, 873.0, 182.97576904296875, 86.099037170410156 ],
					"viewvisibility" : 1
				}

			}
, 			{
				"box" : 				{
					"bgcolor" : [ 0.819608, 0.819608, 0.819608, 0.0 ],
					"bgmode" : 2,
					"border" : 1,
					"clickthrough" : 0,
					"enablehscroll" : 0,
					"enablevscroll" : 0,
					"id" : "obj-3",
					"lockeddragscroll" : 0,
					"lockedsize" : 0,
					"maxclass" : "bpatcher",
					"name" : "sp.kick.maxpat",
					"numinlets" : 4,
					"numoutlets" : 3,
					"offset" : [ 0.0, -5.0 ],
					"outlettype" : [ "", "int", "" ],
					"patching_rect" : [ 805.634391784667969, 464.0, 133.731216430664062, 116.319091796875 ],
					"viewvisibility" : 1
				}

			}
 ],
		"lines" : [ 			{
				"patchline" : 				{
					"destination" : [ "obj-14", 0 ],
					"source" : [ "obj-12", 0 ]
				}

			}
, 			{
				"patchline" : 				{
					"destination" : [ "obj-16", 0 ],
					"order" : 0,
					"source" : [ "obj-13", 0 ]
				}

			}
, 			{
				"patchline" : 				{
					"destination" : [ "obj-32", 0 ],
					"order" : 1,
					"source" : [ "obj-13", 0 ]
				}

			}
, 			{
				"patchline" : 				{
					"destination" : [ "obj-17", 0 ],
					"source" : [ "obj-14", 0 ]
				}

			}
, 			{
				"patchline" : 				{
					"destination" : [ "obj-18", 0 ],
					"source" : [ "obj-16", 0 ]
				}

			}
, 			{
				"patchline" : 				{
					"destination" : [ "obj-4", 0 ],
					"source" : [ "obj-16", 1 ]
				}

			}
, 			{
				"patchline" : 				{
					"destination" : [ "obj-2", 0 ],
					"source" : [ "obj-17", 1 ]
				}

			}
, 			{
				"patchline" : 				{
					"destination" : [ "obj-20", 0 ],
					"source" : [ "obj-17", 0 ]
				}

			}
, 			{
				"patchline" : 				{
					"destination" : [ "obj-40", 0 ],
					"source" : [ "obj-18", 0 ]
				}

			}
, 			{
				"patchline" : 				{
					"destination" : [ "obj-25", 1 ],
					"midpoints" : [ 994.365608215332031, 428.6580810546875, 671.231216430664062, 428.6580810546875 ],
					"order" : 0,
					"source" : [ "obj-20", 0 ]
				}

			}
, 			{
				"patchline" : 				{
					"destination" : [ "obj-25", 0 ],
					"midpoints" : [ 994.365608215332031, 428.6580810546875, 556.5, 428.6580810546875 ],
					"order" : 2,
					"source" : [ "obj-20", 0 ]
				}

			}
, 			{
				"patchline" : 				{
					"destination" : [ "obj-3", 0 ],
					"midpoints" : [ 994.365608215332031, 445.09576416015625, 815.134391784667969, 445.09576416015625 ],
					"order" : 1,
					"source" : [ "obj-20", 0 ]
				}

			}
, 			{
				"patchline" : 				{
					"destination" : [ "obj-6", 0 ],
					"source" : [ "obj-21", 0 ]
				}

			}
, 			{
				"patchline" : 				{
					"destination" : [ "obj-40", 0 ],
					"source" : [ "obj-22", 0 ]
				}

			}
, 			{
				"patchline" : 				{
					"destination" : [ "obj-14", 0 ],
					"source" : [ "obj-23", 0 ]
				}

			}
, 			{
				"patchline" : 				{
					"destination" : [ "obj-13", 0 ],
					"source" : [ "obj-25", 1 ]
				}

			}
, 			{
				"patchline" : 				{
					"destination" : [ "obj-8", 0 ],
					"source" : [ "obj-25", 0 ]
				}

			}
, 			{
				"patchline" : 				{
					"destination" : [ "obj-19", 0 ],
					"source" : [ "obj-29", 1 ]
				}

			}
, 			{
				"patchline" : 				{
					"destination" : [ "obj-27", 0 ],
					"source" : [ "obj-29", 0 ]
				}

			}
, 			{
				"patchline" : 				{
					"destination" : [ "obj-22", 0 ],
					"source" : [ "obj-3", 2 ]
				}

			}
, 			{
				"patchline" : 				{
					"destination" : [ "obj-31", 4 ],
					"source" : [ "obj-30", 0 ]
				}

			}
, 			{
				"patchline" : 				{
					"destination" : [ "obj-26", 1 ],
					"source" : [ "obj-31", 1 ]
				}

			}
, 			{
				"patchline" : 				{
					"destination" : [ "obj-26", 0 ],
					"source" : [ "obj-31", 0 ]
				}

			}
, 			{
				"patchline" : 				{
					"destination" : [ "obj-31", 0 ],
					"source" : [ "obj-32", 0 ]
				}

			}
, 			{
				"patchline" : 				{
					"destination" : [ "obj-12", 5 ],
					"order" : 0,
					"source" : [ "obj-34", 0 ]
				}

			}
, 			{
				"patchline" : 				{
					"destination" : [ "obj-23", 3 ],
					"order" : 1,
					"source" : [ "obj-34", 0 ]
				}

			}
, 			{
				"patchline" : 				{
					"destination" : [ "obj-26", 1 ],
					"order" : 0,
					"source" : [ "obj-40", 0 ]
				}

			}
, 			{
				"patchline" : 				{
					"destination" : [ "obj-26", 0 ],
					"order" : 1,
					"source" : [ "obj-40", 0 ]
				}

			}
, 			{
				"patchline" : 				{
					"destination" : [ "obj-21", 2 ],
					"source" : [ "obj-5", 0 ]
				}

			}
, 			{
				"patchline" : 				{
					"destination" : [ "obj-29", 0 ],
					"order" : 0,
					"source" : [ "obj-6", 0 ]
				}

			}
, 			{
				"patchline" : 				{
					"destination" : [ "obj-7", 0 ],
					"order" : 1,
					"source" : [ "obj-6", 0 ]
				}

			}
, 			{
				"patchline" : 				{
					"destination" : [ "obj-25", 1 ],
					"midpoints" : [ 258.0, 439.546630859375, 671.231216430664062, 439.546630859375 ],
					"order" : 0,
					"source" : [ "obj-7", 0 ]
				}

			}
, 			{
				"patchline" : 				{
					"destination" : [ "obj-25", 0 ],
					"midpoints" : [ 258.0, 446.816162109375, 556.5, 446.816162109375 ],
					"order" : 2,
					"source" : [ "obj-7", 0 ]
				}

			}
, 			{
				"patchline" : 				{
					"destination" : [ "obj-3", 0 ],
					"midpoints" : [ 258.0, 438.816162109375, 815.134391784667969, 438.816162109375 ],
					"order" : 1,
					"source" : [ "obj-7", 0 ]
				}

			}
 ],
		"originid" : "pat-14613",
		"parameters" : 		{
			"obj-12::obj-55" : [ "live.text", "live.text", 0 ],
			"obj-12::obj-56" : [ "live.text[1]", "live.text", 0 ],
			"obj-12::obj-60" : [ "live.text[3]", "live.text[3]", 0 ],
			"obj-25::obj-13" : [ "live.toggle[18]", "live.toggle", 0 ],
			"obj-25::obj-8::obj-17" : [ "live.toggle[14]", "live.toggle[1]", 0 ],
			"obj-26::obj-2" : [ "live.gain~[5]", "live.gain~[4]", 0 ],
			"obj-31::obj-18::obj-88" : [ "live.toggle[23]", "live.toggle", 0 ],
			"obj-31::obj-18::obj-92" : [ "live.toggle[22]", "live.toggle", 0 ],
			"obj-31::obj-22" : [ "live.gain~[11]", "live.gain~", 0 ],
			"obj-3::obj-4" : [ "live.button", "live.button", 0 ],
			"obj-40::obj-2" : [ "live.gain~[1]", "live.gain~", 0 ],
			"parameterbanks" : 			{

			}
,
			"parameter_overrides" : 			{
				"obj-25::obj-13" : 				{
					"parameter_longname" : "live.toggle[18]"
				}
,
				"obj-25::obj-8::obj-17" : 				{
					"parameter_longname" : "live.toggle[14]"
				}
,
				"obj-26::obj-2" : 				{
					"parameter_longname" : "live.gain~[5]"
				}
,
				"obj-3::obj-4" : 				{
					"parameter_longname" : "live.button"
				}
,
				"obj-40::obj-2" : 				{
					"parameter_longname" : "live.gain~[1]"
				}

			}
,
			"inherited_shortname" : 1
		}
,
		"dependency_cache" : [ 			{
				"name" : "FM-synth-adsr.maxpat",
				"bootpath" : "~/Repositories/Gestural-Sound-Toolkit/patchers/mod-synthesis",
				"patcherrelativepath" : "../patchers/mod-synthesis",
				"type" : "JSON",
				"implicit" : 1
			}
, 			{
				"name" : "FM-synth-const.maxpat",
				"bootpath" : "~/Repositories/Gestural-Sound-Toolkit/patchers/mod-synthesis",
				"patcherrelativepath" : "../patchers/mod-synthesis",
				"type" : "JSON",
				"implicit" : 1
			}
, 			{
				"name" : "comote-connect-resize.js",
				"bootpath" : "~/Repositories/Gestural-Sound-Toolkit/patchers/mod-interfaces/comote",
				"patcherrelativepath" : "../patchers/mod-interfaces/comote",
				"type" : "TEXT",
				"implicit" : 1
			}
, 			{
				"name" : "comote-connect-server.js",
				"bootpath" : "~/Repositories/Gestural-Sound-Toolkit/patchers/mod-interfaces/comote",
				"patcherrelativepath" : "../patchers/mod-interfaces/comote",
				"type" : "TEXT",
				"implicit" : 1
			}
, 			{
				"name" : "comote-connect.maxpat",
				"bootpath" : "~/Repositories/Gestural-Sound-Toolkit/patchers/mod-interfaces/comote",
				"patcherrelativepath" : "../patchers/mod-interfaces/comote",
				"type" : "JSON",
				"implicit" : 1
			}
, 			{
				"name" : "comote-screenshot-3.png",
				"bootpath" : "~/Repositories/Gestural-Sound-Toolkit/patchers/mod-interfaces/comote",
				"patcherrelativepath" : "../patchers/mod-interfaces/comote",
				"type" : "PNG",
				"implicit" : 1
			}
, 			{
				"name" : "drawing.maxpat",
				"bootpath" : "~/Repositories/Gestural-Sound-Toolkit/patchers/mod-interfaces/lcd",
				"patcherrelativepath" : "../patchers/mod-interfaces/lcd",
				"type" : "JSON",
				"implicit" : 1
			}
, 			{
				"name" : "fit_jweb_to_bounds.js",
				"bootpath" : "C74:/packages/Node for Max/patchers/debug-monitor",
				"type" : "TEXT",
				"implicit" : 1
			}
, 			{
				"name" : "in.comote.maxpat",
				"bootpath" : "~/Repositories/Gestural-Sound-Toolkit/patchers/mod-interfaces/comote",
				"patcherrelativepath" : "../patchers/mod-interfaces/comote",
				"type" : "JSON",
				"implicit" : 1
			}
, 			{
				"name" : "in.riotbitalino.maxpat",
				"bootpath" : "~/Repositories/Gestural-Sound-Toolkit/patchers/mod-interfaces/riot",
				"patcherrelativepath" : "../patchers/mod-interfaces/riot",
				"type" : "JSON",
				"implicit" : 1
			}
, 			{
				"name" : "mubu.scroll.mxo",
				"type" : "iLaX"
			}
, 			{
				"name" : "n4m.monitor.maxpat",
				"bootpath" : "C74:/packages/Node for Max/patchers/debug-monitor",
				"type" : "JSON",
				"implicit" : 1
			}
, 			{
				"name" : "pipo.mxo",
				"type" : "iLaX"
			}
, 			{
				"name" : "resize_n4m_monitor_patcher.js",
				"bootpath" : "C74:/packages/Node for Max/patchers/debug-monitor",
				"type" : "TEXT",
				"implicit" : 1
			}
, 			{
				"name" : "riotbitalino.maxpat",
				"bootpath" : "~/Repositories/Gestural-Sound-Toolkit/patchers/mod-interfaces/riot",
				"patcherrelativepath" : "../patchers/mod-interfaces/riot",
				"type" : "JSON",
				"implicit" : 1
			}
, 			{
				"name" : "sid.output.maxpat",
				"bootpath" : "~/Repositories/Gestural-Sound-Toolkit/patchers/mod-synthesis",
				"patcherrelativepath" : "../patchers/mod-synthesis",
				"type" : "JSON",
				"implicit" : 1
			}
, 			{
				"name" : "sp.acc.intensity.maxpat",
				"bootpath" : "~/Repositories/Gestural-Sound-Toolkit/patchers/mod-analysis/signal-processing",
				"patcherrelativepath" : "../patchers/mod-analysis/signal-processing",
				"type" : "JSON",
				"implicit" : 1
			}
, 			{
				"name" : "sp.derivative.maxpat",
				"bootpath" : "~/Repositories/Gestural-Sound-Toolkit/patchers/mod-analysis/signal-processing",
				"patcherrelativepath" : "../patchers/mod-analysis/signal-processing",
				"type" : "JSON",
				"implicit" : 1
			}
, 			{
				"name" : "sp.gate.float.maxpat",
				"bootpath" : "~/Repositories/Gestural-Sound-Toolkit/patchers/mod-analysis/signal-processing",
				"patcherrelativepath" : "../patchers/mod-analysis/signal-processing",
				"type" : "JSON",
				"implicit" : 1
			}
, 			{
				"name" : "sp.kick.maxpat",
				"bootpath" : "~/Repositories/Gestural-Sound-Toolkit/patchers/mod-analysis/signal-processing",
				"patcherrelativepath" : "../patchers/mod-analysis/signal-processing",
				"type" : "JSON",
				"implicit" : 1
			}
, 			{
				"name" : "sp.norm.maxpat",
				"bootpath" : "~/Repositories/Gestural-Sound-Toolkit/patchers/mod-analysis/signal-processing",
				"patcherrelativepath" : "../patchers/mod-analysis/signal-processing",
				"type" : "JSON",
				"implicit" : 1
			}
, 			{
				"name" : "synth.FM.maxpat",
				"bootpath" : "~/Repositories/Gestural-Sound-Toolkit/patchers/mod-synthesis",
				"patcherrelativepath" : "../patchers/mod-synthesis",
				"type" : "JSON",
				"implicit" : 1
			}
, 			{
				"name" : "synth.ctrl.soundpool.maxpat",
				"bootpath" : "~/Repositories/Gestural-Sound-Toolkit/patchers/mod-synthesis",
				"patcherrelativepath" : "../patchers/mod-synthesis",
				"type" : "JSON",
				"implicit" : 1
			}
, 			{
				"name" : "synth.scratch.samples.maxpat",
				"bootpath" : "~/Repositories/Gestural-Sound-Toolkit/patchers/mod-synthesis",
				"patcherrelativepath" : "../patchers/mod-synthesis",
				"type" : "JSON",
				"implicit" : 1
			}
 ],
		"autosave" : 0
	}

}
