{
	"patcher" : 	{
		"fileversion" : 1,
		"appversion" : 		{
			"major" : 9,
			"minor" : 0,
			"revision" : 4,
			"architecture" : "x64",
			"modernui" : 1
		}
,
		"classnamespace" : "box",
		"rect" : [ 134.0, 146.0, 1491.0, 937.0 ],
		"gridsize" : [ 15.0, 15.0 ],
		"boxes" : [ 			{
				"box" : 				{
					"id" : "obj-24",
					"maxclass" : "newobj",
					"numinlets" : 1,
					"numoutlets" : 1,
					"outlettype" : [ "" ],
					"patching_rect" : [ 1313.0, 656.0, 151.0, 22.0 ],
					"text" : "loadmess C74:/media/msp"
				}

			}
, 			{
				"box" : 				{
					"bubble" : 1,
					"fontsize" : 18.0,
					"id" : "obj-4",
					"linecount" : 3,
					"maxclass" : "comment",
					"numinlets" : 1,
					"numoutlets" : 0,
					"patching_rect" : [ 105.0, 150.0, 142.0, 71.0 ],
					"text" : "space bar to start/stop recording"
				}

			}
, 			{
				"box" : 				{
					"id" : "obj-18",
					"maxclass" : "toggle",
					"numinlets" : 1,
					"numoutlets" : 1,
					"outlettype" : [ "int" ],
					"parameter_enable" : 0,
					"patching_rect" : [ 67.0, 206.0, 24.0, 24.0 ],
					"svg" : ""
				}

			}
, 			{
				"box" : 				{
					"id" : "obj-15",
					"maxclass" : "button",
					"numinlets" : 1,
					"numoutlets" : 1,
					"outlettype" : [ "bang" ],
					"parameter_enable" : 0,
					"patching_rect" : [ 67.0, 173.0, 24.0, 24.0 ]
				}

			}
, 			{
				"box" : 				{
					"id" : "obj-13",
					"maxclass" : "newobj",
					"numinlets" : 2,
					"numoutlets" : 2,
					"outlettype" : [ "bang", "" ],
					"patching_rect" : [ 67.0, 115.0, 100.0, 22.0 ],
					"text" : "sel 32"
				}

			}
, 			{
				"box" : 				{
					"id" : "obj-11",
					"maxclass" : "number",
					"numinlets" : 1,
					"numoutlets" : 2,
					"outlettype" : [ "", "bang" ],
					"parameter_enable" : 0,
					"patching_rect" : [ 67.0, 84.0, 50.0, 22.0 ]
				}

			}
, 			{
				"box" : 				{
					"id" : "obj-9",
					"maxclass" : "newobj",
					"numinlets" : 0,
					"numoutlets" : 4,
					"outlettype" : [ "int", "int", "int", "int" ],
					"patching_rect" : [ 67.0, 50.0, 100.0, 22.0 ],
					"text" : "key"
				}

			}
, 			{
				"box" : 				{
					"fontsize" : 24.0,
					"id" : "obj-29",
					"maxclass" : "comment",
					"numinlets" : 1,
					"numoutlets" : 0,
					"patching_rect" : [ 1171.0, 607.0, 318.0, 33.0 ],
					"text" : "selecting soundfile"
				}

			}
, 			{
				"box" : 				{
					"id" : "obj-28",
					"maxclass" : "number",
					"numinlets" : 1,
					"numoutlets" : 2,
					"outlettype" : [ "", "bang" ],
					"parameter_enable" : 0,
					"patching_rect" : [ 1147.0, 649.0, 50.0, 22.0 ]
				}

			}
, 			{
				"box" : 				{
					"bgcolor" : [ 0.65045, 0.65045, 0.65045, 0.0 ],
					"bgmode" : 2,
					"border" : 1,
					"clickthrough" : 0,
					"enablehscroll" : 0,
					"enablevscroll" : 0,
					"id" : "obj-25",
					"lockeddragscroll" : 0,
					"lockedsize" : 0,
					"maxclass" : "bpatcher",
					"name" : "synth.scratch.samples.maxpat",
					"numinlets" : 5,
					"numoutlets" : 2,
					"offset" : [ 0.0, 0.0 ],
					"outlettype" : [ "signal", "signal" ],
					"patching_rect" : [ 1091.0, 694.0, 240.79486083984375, 109.320236206054688 ],
					"viewvisibility" : 1
				}

			}
, 			{
				"box" : 				{
					"bgcolor" : [ 0.6, 0.678431, 0.756863, 0.0 ],
					"bgmode" : 2,
					"border" : 1,
					"clickthrough" : 0,
					"enablehscroll" : 0,
					"enablevscroll" : 0,
					"id" : "obj-10",
					"lockeddragscroll" : 0,
					"lockedsize" : 0,
					"maxclass" : "bpatcher",
					"name" : "in.comote.maxpat",
					"numinlets" : 6,
					"numoutlets" : 6,
					"offset" : [ -7.0, -5.0 ],
					"outlettype" : [ "", "", "", "", "", "" ],
					"patching_rect" : [ 442.0, 45.0, 163.0, 132.56695556640625 ],
					"viewvisibility" : 1
				}

			}
, 			{
				"box" : 				{
					"bgcolor" : [ 0.819608, 0.819608, 0.819608, 0.0 ],
					"bgmode" : 2,
					"border" : 1,
					"clickthrough" : 0,
					"enablehscroll" : 0,
					"enablevscroll" : 0,
					"id" : "obj-31",
					"lockeddragscroll" : 0,
					"lockedsize" : 0,
					"maxclass" : "bpatcher",
					"name" : "sp.orientation.maxpat",
					"numinlets" : 2,
					"numoutlets" : 2,
					"offset" : [ 0.0, 0.0 ],
					"outlettype" : [ "", "" ],
					"patching_rect" : [ 271.0, 210.0, 133.731216430664062, 116.319091796875 ],
					"viewvisibility" : 1
				}

			}
, 			{
				"box" : 				{
					"bgcolor" : [ 0.6, 0.678431, 0.756863, 0.0 ],
					"bgmode" : 2,
					"border" : 1,
					"clickthrough" : 0,
					"enablehscroll" : 0,
					"enablevscroll" : 0,
					"id" : "obj-41",
					"lockeddragscroll" : 0,
					"lockedsize" : 0,
					"maxclass" : "bpatcher",
					"name" : "in.riotbitalino.maxpat",
					"numinlets" : 5,
					"numoutlets" : 4,
					"offset" : [ -6.0, 0.0 ],
					"outlettype" : [ "", "", "", "float" ],
					"patching_rect" : [ 271.0, 45.0, 163.0, 132.566956000000005 ],
					"viewvisibility" : 1
				}

			}
, 			{
				"box" : 				{
					"fontsize" : 24.0,
					"id" : "obj-5",
					"maxclass" : "comment",
					"numinlets" : 1,
					"numoutlets" : 0,
					"patching_rect" : [ 454.0, 621.0, 318.0, 33.0 ],
					"text" : "mapping likelihood to volume"
				}

			}
, 			{
				"box" : 				{
					"fontsize" : 10.0,
					"id" : "obj-8",
					"maxclass" : "newobj",
					"numinlets" : 1,
					"numoutlets" : 3,
					"outlettype" : [ "float", "float", "float" ],
					"patching_rect" : [ 272.0, 627.0, 74.0, 20.0 ],
					"text" : "unpack 0. 0. 0."
				}

			}
, 			{
				"box" : 				{
					"bgcolor" : [ 0.65045, 0.65045, 0.65045, 0.0 ],
					"bgmode" : 2,
					"border" : 1,
					"clickthrough" : 0,
					"enablehscroll" : 0,
					"enablevscroll" : 0,
					"id" : "obj-3",
					"lockeddragscroll" : 0,
					"lockedsize" : 0,
					"maxclass" : "bpatcher",
					"name" : "synth.scratch.samples.maxpat",
					"numinlets" : 5,
					"numoutlets" : 2,
					"offset" : [ 0.0, 0.0 ],
					"outlettype" : [ "signal", "signal" ],
					"patching_rect" : [ 766.0, 694.0, 240.79486083984375, 109.320236206054688 ],
					"viewvisibility" : 1
				}

			}
, 			{
				"box" : 				{
					"bgcolor" : [ 0.65045, 0.65045, 0.65045, 0.0 ],
					"bgmode" : 2,
					"border" : 1,
					"clickthrough" : 0,
					"enablehscroll" : 0,
					"enablevscroll" : 0,
					"id" : "obj-2",
					"lockeddragscroll" : 0,
					"lockedsize" : 0,
					"maxclass" : "bpatcher",
					"name" : "synth.scratch.samples.maxpat",
					"numinlets" : 5,
					"numoutlets" : 2,
					"offset" : [ 0.0, 0.0 ],
					"outlettype" : [ "signal", "signal" ],
					"patching_rect" : [ 517.0, 694.0, 240.79486083984375, 109.320236206054688 ],
					"viewvisibility" : 1
				}

			}
, 			{
				"box" : 				{
					"bgmode" : 0,
					"border" : 1,
					"clickthrough" : 0,
					"enablehscroll" : 0,
					"enablevscroll" : 0,
					"id" : "obj-14",
					"lockeddragscroll" : 0,
					"lockedsize" : 0,
					"maxclass" : "bpatcher",
					"name" : "ml.classification.gmm.maxpat",
					"numinlets" : 8,
					"numoutlets" : 2,
					"offset" : [ 0.0, -4.0 ],
					"outlettype" : [ "", "" ],
					"patching_rect" : [ 271.0, 380.0, 308.0, 194.0 ],
					"viewvisibility" : 1
				}

			}
, 			{
				"box" : 				{
					"bgcolor" : [ 0.913725490196078, 0.913725490196078, 0.913725490196078, 0.01 ],
					"bgmode" : 2,
					"border" : 0,
					"clickthrough" : 0,
					"enablehscroll" : 0,
					"enablevscroll" : 0,
					"id" : "obj-26",
					"lockeddragscroll" : 0,
					"lockedsize" : 0,
					"maxclass" : "bpatcher",
					"name" : "sid.output.maxpat",
					"numinlets" : 2,
					"numoutlets" : 0,
					"offset" : [ 0.0, 0.0 ],
					"patching_rect" : [ 268.0, 838.0, 181.97576904296875, 88.099037170410156 ],
					"viewvisibility" : 1
				}

			}
, 			{
				"box" : 				{
					"bgcolor" : [ 0.65045, 0.65045, 0.65045, 0.0 ],
					"bgmode" : 2,
					"border" : 1,
					"clickthrough" : 0,
					"enablehscroll" : 0,
					"enablevscroll" : 0,
					"id" : "obj-12",
					"lockeddragscroll" : 0,
					"lockedsize" : 0,
					"maxclass" : "bpatcher",
					"name" : "synth.scratch.samples.maxpat",
					"numinlets" : 5,
					"numoutlets" : 2,
					"offset" : [ 0.0, 0.0 ],
					"outlettype" : [ "signal", "signal" ],
					"patching_rect" : [ 268.0, 694.0, 240.79486083984375, 109.320236206054688 ],
					"viewvisibility" : 1
				}

			}
 ],
		"lines" : [ 			{
				"patchline" : 				{
					"destination" : [ "obj-31", 1 ],
					"source" : [ "obj-10", 1 ]
				}

			}
, 			{
				"patchline" : 				{
					"destination" : [ "obj-31", 0 ],
					"source" : [ "obj-10", 0 ]
				}

			}
, 			{
				"patchline" : 				{
					"destination" : [ "obj-13", 0 ],
					"source" : [ "obj-11", 0 ]
				}

			}
, 			{
				"patchline" : 				{
					"destination" : [ "obj-26", 0 ],
					"source" : [ "obj-12", 0 ]
				}

			}
, 			{
				"patchline" : 				{
					"destination" : [ "obj-15", 0 ],
					"source" : [ "obj-13", 0 ]
				}

			}
, 			{
				"patchline" : 				{
					"destination" : [ "obj-28", 0 ],
					"midpoints" : [ 569.5, 615.5, 1156.5, 615.5 ],
					"source" : [ "obj-14", 1 ]
				}

			}
, 			{
				"patchline" : 				{
					"destination" : [ "obj-8", 0 ],
					"source" : [ "obj-14", 0 ]
				}

			}
, 			{
				"patchline" : 				{
					"destination" : [ "obj-18", 0 ],
					"source" : [ "obj-15", 0 ]
				}

			}
, 			{
				"patchline" : 				{
					"destination" : [ "obj-14", 1 ],
					"source" : [ "obj-18", 0 ]
				}

			}
, 			{
				"patchline" : 				{
					"destination" : [ "obj-26", 0 ],
					"source" : [ "obj-2", 0 ]
				}

			}
, 			{
				"patchline" : 				{
					"destination" : [ "obj-12", 4 ],
					"midpoints" : [ 1322.5, 686.0, 499.29486083984375, 686.0 ],
					"order" : 0,
					"source" : [ "obj-24", 0 ]
				}

			}
, 			{
				"patchline" : 				{
					"destination" : [ "obj-2", 4 ],
					"midpoints" : [ 1322.5, 686.0, 748.29486083984375, 686.0 ],
					"order" : 1,
					"source" : [ "obj-24", 0 ]
				}

			}
, 			{
				"patchline" : 				{
					"destination" : [ "obj-25", 4 ],
					"order" : 3,
					"source" : [ "obj-24", 0 ]
				}

			}
, 			{
				"patchline" : 				{
					"destination" : [ "obj-3", 4 ],
					"midpoints" : [ 1322.5, 686.0, 997.29486083984375, 686.0 ],
					"order" : 2,
					"source" : [ "obj-24", 0 ]
				}

			}
, 			{
				"patchline" : 				{
					"destination" : [ "obj-26", 0 ],
					"source" : [ "obj-25", 0 ]
				}

			}
, 			{
				"patchline" : 				{
					"destination" : [ "obj-25", 1 ],
					"source" : [ "obj-28", 0 ]
				}

			}
, 			{
				"patchline" : 				{
					"destination" : [ "obj-26", 0 ],
					"source" : [ "obj-3", 0 ]
				}

			}
, 			{
				"patchline" : 				{
					"destination" : [ "obj-14", 0 ],
					"source" : [ "obj-31", 0 ]
				}

			}
, 			{
				"patchline" : 				{
					"destination" : [ "obj-31", 1 ],
					"source" : [ "obj-41", 1 ]
				}

			}
, 			{
				"patchline" : 				{
					"destination" : [ "obj-31", 0 ],
					"source" : [ "obj-41", 0 ]
				}

			}
, 			{
				"patchline" : 				{
					"destination" : [ "obj-12", 3 ],
					"midpoints" : [ 281.5, 683.51214599609375, 443.846145629882812, 683.51214599609375 ],
					"source" : [ "obj-8", 0 ]
				}

			}
, 			{
				"patchline" : 				{
					"destination" : [ "obj-2", 3 ],
					"midpoints" : [ 309.0, 671.51214599609375, 692.846145629882812, 671.51214599609375 ],
					"source" : [ "obj-8", 1 ]
				}

			}
, 			{
				"patchline" : 				{
					"destination" : [ "obj-3", 3 ],
					"midpoints" : [ 336.5, 662.01214599609375, 941.846145629882812, 662.01214599609375 ],
					"source" : [ "obj-8", 2 ]
				}

			}
, 			{
				"patchline" : 				{
					"destination" : [ "obj-11", 0 ],
					"source" : [ "obj-9", 0 ]
				}

			}
 ],
		"originid" : "pat-16089",
		"parameters" : 		{
			"obj-10::obj-55" : [ "live.text", "live.text", 0 ],
			"obj-10::obj-56" : [ "live.text[1]", "live.text", 0 ],
			"obj-10::obj-60" : [ "live.text[3]", "live.text[3]", 0 ],
			"obj-12::obj-18::obj-88" : [ "live.toggle[9]", "live.toggle", 0 ],
			"obj-12::obj-18::obj-92" : [ "live.toggle[17]", "live.toggle", 0 ],
			"obj-12::obj-22" : [ "live.gain~", "live.gain~", 0 ],
			"obj-25::obj-18::obj-88" : [ "live.toggle[20]", "live.toggle", 0 ],
			"obj-25::obj-18::obj-92" : [ "live.toggle[7]", "live.toggle", 0 ],
			"obj-25::obj-22" : [ "live.gain~[6]", "live.gain~", 0 ],
			"obj-26::obj-2" : [ "live.gain~[5]", "live.gain~[4]", 0 ],
			"obj-2::obj-18::obj-88" : [ "live.toggle[3]", "live.toggle", 0 ],
			"obj-2::obj-18::obj-92" : [ "live.toggle[4]", "live.toggle", 0 ],
			"obj-2::obj-22" : [ "live.gain~[1]", "live.gain~", 0 ],
			"obj-3::obj-18::obj-88" : [ "live.toggle[6]", "live.toggle", 0 ],
			"obj-3::obj-18::obj-92" : [ "live.toggle[5]", "live.toggle", 0 ],
			"obj-3::obj-22" : [ "live.gain~[2]", "live.gain~", 0 ],
			"parameterbanks" : 			{

			}
,
			"parameter_overrides" : 			{
				"obj-12::obj-18::obj-88" : 				{
					"parameter_longname" : "live.toggle[9]"
				}
,
				"obj-12::obj-18::obj-92" : 				{
					"parameter_longname" : "live.toggle[17]"
				}
,
				"obj-12::obj-22" : 				{
					"parameter_longname" : "live.gain~"
				}
,
				"obj-25::obj-18::obj-88" : 				{
					"parameter_longname" : "live.toggle[20]"
				}
,
				"obj-25::obj-18::obj-92" : 				{
					"parameter_longname" : "live.toggle[7]"
				}
,
				"obj-25::obj-22" : 				{
					"parameter_longname" : "live.gain~[6]"
				}
,
				"obj-2::obj-18::obj-88" : 				{
					"parameter_longname" : "live.toggle[3]"
				}
,
				"obj-2::obj-18::obj-92" : 				{
					"parameter_longname" : "live.toggle[4]"
				}
,
				"obj-2::obj-22" : 				{
					"parameter_longname" : "live.gain~[1]"
				}
,
				"obj-3::obj-18::obj-88" : 				{
					"parameter_longname" : "live.toggle[6]"
				}
,
				"obj-3::obj-18::obj-92" : 				{
					"parameter_longname" : "live.toggle[5]"
				}
,
				"obj-3::obj-22" : 				{
					"parameter_longname" : "live.gain~[2]"
				}

			}
,
			"inherited_shortname" : 1
		}
,
		"dependency_cache" : [ 			{
				"name" : "comote-connect-resize.js",
				"bootpath" : "~/Repositories/Gestural-Sound-Toolkit/patchers/mod-interfaces/comote",
				"patcherrelativepath" : "../patchers/mod-interfaces/comote",
				"type" : "TEXT",
				"implicit" : 1
			}
, 			{
				"name" : "comote-connect-server.js",
				"bootpath" : "~/Repositories/Gestural-Sound-Toolkit/patchers/mod-interfaces/comote",
				"patcherrelativepath" : "../patchers/mod-interfaces/comote",
				"type" : "TEXT",
				"implicit" : 1
			}
, 			{
				"name" : "comote-connect.maxpat",
				"bootpath" : "~/Repositories/Gestural-Sound-Toolkit/patchers/mod-interfaces/comote",
				"patcherrelativepath" : "../patchers/mod-interfaces/comote",
				"type" : "JSON",
				"implicit" : 1
			}
, 			{
				"name" : "comote-screenshot-3.png",
				"bootpath" : "~/Repositories/Gestural-Sound-Toolkit/patchers/mod-interfaces/comote",
				"patcherrelativepath" : "../patchers/mod-interfaces/comote",
				"type" : "PNG",
				"implicit" : 1
			}
, 			{
				"name" : "fit_jweb_to_bounds.js",
				"bootpath" : "C74:/packages/Node for Max/patchers/debug-monitor",
				"type" : "TEXT",
				"implicit" : 1
			}
, 			{
				"name" : "helpstarter.js",
				"bootpath" : "C74:/help/resources",
				"type" : "TEXT",
				"implicit" : 1
			}
, 			{
				"name" : "imubu.mxo",
				"type" : "iLaX"
			}
, 			{
				"name" : "in.comote.maxpat",
				"bootpath" : "~/Repositories/Gestural-Sound-Toolkit/patchers/mod-interfaces/comote",
				"patcherrelativepath" : "../patchers/mod-interfaces/comote",
				"type" : "JSON",
				"implicit" : 1
			}
, 			{
				"name" : "in.riotbitalino.maxpat",
				"bootpath" : "~/Repositories/Gestural-Sound-Toolkit/patchers/mod-interfaces/riot",
				"patcherrelativepath" : "../patchers/mod-interfaces/riot",
				"type" : "JSON",
				"implicit" : 1
			}
, 			{
				"name" : "ml.classification.gmm.maxpat",
				"bootpath" : "~/Repositories/Gestural-Sound-Toolkit/patchers/mod-analysis/machine-learning",
				"patcherrelativepath" : "../patchers/mod-analysis/machine-learning",
				"type" : "JSON",
				"implicit" : 1
			}
, 			{
				"name" : "mubu.gmm.maxhelp",
				"bootpath" : "~/Documents/Max 9/Packages/MuBu For Max/help",
				"patcherrelativepath" : "../../../Documents/Max 9/Packages/MuBu For Max/help",
				"type" : "JSON",
				"implicit" : 1
			}
, 			{
				"name" : "mubu.gmm.mxo",
				"type" : "iLaX"
			}
, 			{
				"name" : "mubu.mxo",
				"type" : "iLaX"
			}
, 			{
				"name" : "mubu.record.mxo",
				"type" : "iLaX"
			}
, 			{
				"name" : "mubu.scroll.mxo",
				"type" : "iLaX"
			}
, 			{
				"name" : "mubu.setlabels.maxpat",
				"bootpath" : "~/Documents/Max 9/Packages/MuBu For Max/patchers",
				"patcherrelativepath" : "../../../Documents/Max 9/Packages/MuBu For Max/patchers",
				"type" : "JSON",
				"implicit" : 1
			}
, 			{
				"name" : "mubu.track.mxo",
				"type" : "iLaX"
			}
, 			{
				"name" : "n4m.monitor.maxpat",
				"bootpath" : "C74:/packages/Node for Max/patchers/debug-monitor",
				"type" : "JSON",
				"implicit" : 1
			}
, 			{
				"name" : "pipo.mxo",
				"type" : "iLaX"
			}
, 			{
				"name" : "resize_n4m_monitor_patcher.js",
				"bootpath" : "C74:/packages/Node for Max/patchers/debug-monitor",
				"type" : "TEXT",
				"implicit" : 1
			}
, 			{
				"name" : "riotbitalino.maxpat",
				"bootpath" : "~/Repositories/Gestural-Sound-Toolkit/patchers/mod-interfaces/riot",
				"patcherrelativepath" : "../patchers/mod-interfaces/riot",
				"type" : "JSON",
				"implicit" : 1
			}
, 			{
				"name" : "sid.output.maxpat",
				"bootpath" : "~/Repositories/Gestural-Sound-Toolkit/patchers/mod-synthesis",
				"patcherrelativepath" : "../patchers/mod-synthesis",
				"type" : "JSON",
				"implicit" : 1
			}
, 			{
				"name" : "sp.orientation.maxpat",
				"bootpath" : "~/Repositories/Gestural-Sound-Toolkit/patchers/mod-analysis/signal-processing",
				"patcherrelativepath" : "../patchers/mod-analysis/signal-processing",
				"type" : "JSON",
				"implicit" : 1
			}
, 			{
				"name" : "synth.ctrl.soundpool.maxpat",
				"bootpath" : "~/Repositories/Gestural-Sound-Toolkit/patchers/mod-synthesis",
				"patcherrelativepath" : "../patchers/mod-synthesis",
				"type" : "JSON",
				"implicit" : 1
			}
, 			{
				"name" : "synth.scratch.samples.maxpat",
				"bootpath" : "~/Repositories/Gestural-Sound-Toolkit/patchers/mod-synthesis",
				"patcherrelativepath" : "../patchers/mod-synthesis",
				"type" : "JSON",
				"implicit" : 1
			}
 ],
		"autosave" : 0
	}

}
