{
	"patcher" : 	{
		"fileversion" : 1,
		"appversion" : 		{
			"major" : 8,
			"minor" : 5,
			"revision" : 4,
			"architecture" : "x64",
			"modernui" : 1
		}
,
		"classnamespace" : "box",
		"rect" : [ 47.0, 80.0, 1491.0, 937.0 ],
		"bglocked" : 0,
		"openinpresentation" : 0,
		"default_fontsize" : 12.0,
		"default_fontface" : 0,
		"default_fontname" : "Arial",
		"gridonopen" : 1,
		"gridsize" : [ 15.0, 15.0 ],
		"gridsnaponopen" : 1,
		"objectsnaponopen" : 1,
		"statusbarvisible" : 2,
		"toolbarvisible" : 1,
		"lefttoolbarpinned" : 0,
		"toptoolbarpinned" : 0,
		"righttoolbarpinned" : 0,
		"bottomtoolbarpinned" : 0,
		"toolbars_unpinned_last_save" : 0,
		"tallnewobj" : 0,
		"boxanimatetime" : 200,
		"enablehscroll" : 1,
		"enablevscroll" : 1,
		"devicewidth" : 0.0,
		"description" : "",
		"digest" : "",
		"tags" : "",
		"style" : "",
		"subpatcher_template" : "",
		"assistshowspatchername" : 0,
		"boxes" : [ 			{
				"box" : 				{
					"fontsize" : 24.0,
					"id" : "obj-29",
					"maxclass" : "comment",
					"numinlets" : 1,
					"numoutlets" : 0,
					"patching_rect" : [ 1069.5, 613.5, 318.0, 33.0 ],
					"text" : "selecting soundfile"
				}

			}
, 			{
				"box" : 				{
					"id" : "obj-28",
					"maxclass" : "number",
					"numinlets" : 1,
					"numoutlets" : 2,
					"outlettype" : [ "", "bang" ],
					"parameter_enable" : 0,
					"patching_rect" : [ 1044.931620279947992, 656.0, 50.0, 22.0 ]
				}

			}
, 			{
				"box" : 				{
					"bgcolor" : [ 0.65045, 0.65045, 0.65045, 0.0 ],
					"bgmode" : 2,
					"border" : 1,
					"clickthrough" : 0,
					"enablehscroll" : 0,
					"enablevscroll" : 0,
					"id" : "obj-25",
					"lockeddragscroll" : 0,
					"lockedsize" : 0,
					"maxclass" : "bpatcher",
					"name" : "synth.scratch.samples.maxpat",
					"numinlets" : 4,
					"numoutlets" : 2,
					"offset" : [ 0.0, 0.0 ],
					"outlettype" : [ "signal", "signal" ],
					"patching_rect" : [ 971.0, 700.9757080078125, 240.79486083984375, 109.320236206054688 ],
					"viewvisibility" : 1
				}

			}
, 			{
				"box" : 				{
					"bgcolor" : [ 0.819608, 0.819608, 0.819608, 0.0 ],
					"bgmode" : 2,
					"border" : 1,
					"clickthrough" : 0,
					"enablehscroll" : 0,
					"enablevscroll" : 0,
					"id" : "obj-24",
					"lockeddragscroll" : 0,
					"lockedsize" : 0,
					"maxclass" : "bpatcher",
					"name" : "sp.norm.maxpat",
					"numinlets" : 1,
					"numoutlets" : 1,
					"offset" : [ 0.0, 0.0 ],
					"outlettype" : [ "float" ],
					"patching_rect" : [ 974.602569580078125, 258.224769713722253, 133.731216430664062, 116.319091796875 ],
					"viewvisibility" : 1
				}

			}
, 			{
				"box" : 				{
					"bubble" : 1,
					"fontsize" : 18.0,
					"id" : "obj-13",
					"linecount" : 3,
					"maxclass" : "comment",
					"numinlets" : 1,
					"numoutlets" : 0,
					"patching_rect" : [ 77.79486083984375, 130.5, 142.0, 71.0 ],
					"text" : "space bar to start/stop recording"
				}

			}
, 			{
				"box" : 				{
					"id" : "obj-18",
					"maxclass" : "toggle",
					"numinlets" : 1,
					"numoutlets" : 1,
					"outlettype" : [ "int" ],
					"parameter_enable" : 0,
					"patching_rect" : [ 40.0, 186.975707533203149, 24.0, 24.0 ]
				}

			}
, 			{
				"box" : 				{
					"id" : "obj-15",
					"maxclass" : "button",
					"numinlets" : 1,
					"numoutlets" : 1,
					"outlettype" : [ "bang" ],
					"parameter_enable" : 0,
					"patching_rect" : [ 40.0, 154.0, 24.0, 24.0 ]
				}

			}
, 			{
				"box" : 				{
					"id" : "obj-17",
					"maxclass" : "newobj",
					"numinlets" : 2,
					"numoutlets" : 2,
					"outlettype" : [ "bang", "" ],
					"patching_rect" : [ 40.0, 95.54269452539063, 100.0, 22.0 ],
					"text" : "sel 32"
				}

			}
, 			{
				"box" : 				{
					"id" : "obj-22",
					"maxclass" : "number",
					"numinlets" : 1,
					"numoutlets" : 2,
					"outlettype" : [ "", "bang" ],
					"parameter_enable" : 0,
					"patching_rect" : [ 40.0, 64.54269452539063, 50.0, 22.0 ]
				}

			}
, 			{
				"box" : 				{
					"id" : "obj-23",
					"maxclass" : "newobj",
					"numinlets" : 0,
					"numoutlets" : 4,
					"outlettype" : [ "int", "int", "int", "int" ],
					"patching_rect" : [ 40.0, 30.54269452539063, 100.0, 22.0 ],
					"text" : "key"
				}

			}
, 			{
				"box" : 				{
					"id" : "obj-21",
					"maxclass" : "toggle",
					"numinlets" : 1,
					"numoutlets" : 1,
					"outlettype" : [ "int" ],
					"parameter_enable" : 0,
					"patching_rect" : [ 1136.667092680931091, 258.224769713722253, 24.0, 24.0 ]
				}

			}
, 			{
				"box" : 				{
					"id" : "obj-1",
					"maxclass" : "newobj",
					"numinlets" : 1,
					"numoutlets" : 1,
					"outlettype" : [ "" ],
					"patching_rect" : [ 1167.667092680931091, 3.54269452539063, 100.0, 22.0 ],
					"text" : "loadmess 2."
				}

			}
, 			{
				"box" : 				{
					"bgcolor" : [ 0.6, 0.678431, 0.756863, 0.0 ],
					"bgmode" : 2,
					"border" : 1,
					"clickthrough" : 0,
					"enablehscroll" : 0,
					"enablevscroll" : 0,
					"id" : "obj-10",
					"lockeddragscroll" : 0,
					"lockedsize" : 0,
					"maxclass" : "bpatcher",
					"name" : "in.comote.maxpat",
					"numinlets" : 5,
					"numoutlets" : 4,
					"offset" : [ -7.0, -5.0 ],
					"outlettype" : [ "", "", "", "" ],
					"patching_rect" : [ 511.703155517578125, 18.433043999999995, 163.0, 132.56695556640625 ],
					"viewvisibility" : 1
				}

			}
, 			{
				"box" : 				{
					"id" : "obj-4",
					"maxclass" : "newobj",
					"numinlets" : 3,
					"numoutlets" : 1,
					"outlettype" : [ "" ],
					"patching_rect" : [ 342.102569580078125, 315.592558906250019, 306.0, 22.0 ],
					"text" : "join 3"
				}

			}
, 			{
				"box" : 				{
					"bgcolor" : [ 0.819608, 0.819608, 0.819608, 0.0 ],
					"bgmode" : 2,
					"border" : 1,
					"clickthrough" : 0,
					"enablehscroll" : 0,
					"enablevscroll" : 0,
					"id" : "obj-6",
					"lockeddragscroll" : 0,
					"lockedsize" : 0,
					"maxclass" : "bpatcher",
					"name" : "sp.bandpass.maxpat",
					"numinlets" : 3,
					"numoutlets" : 1,
					"offset" : [ 0.0, 0.0 ],
					"outlettype" : [ "" ],
					"patching_rect" : [ 629.102569580078125, 184.273467109374991, 133.731216430664062, 116.319091796875 ],
					"viewvisibility" : 1
				}

			}
, 			{
				"box" : 				{
					"bgcolor" : [ 0.819608, 0.819608, 0.819608, 0.0 ],
					"bgmode" : 2,
					"border" : 1,
					"clickthrough" : 0,
					"enablehscroll" : 0,
					"enablevscroll" : 0,
					"id" : "obj-7",
					"lockeddragscroll" : 0,
					"lockedsize" : 0,
					"maxclass" : "bpatcher",
					"name" : "sp.derivative.maxpat",
					"numinlets" : 3,
					"numoutlets" : 1,
					"offset" : [ 0.0, 0.0 ],
					"outlettype" : [ "" ],
					"patching_rect" : [ 834.602569580078125, 258.224769713722253, 133.731216430664062, 116.319091796875 ],
					"viewvisibility" : 1
				}

			}
, 			{
				"box" : 				{
					"bgcolor" : [ 0.819608, 0.819608, 0.819608, 0.0 ],
					"bgmode" : 2,
					"border" : 1,
					"clickthrough" : 0,
					"enablehscroll" : 0,
					"enablevscroll" : 0,
					"id" : "obj-9",
					"lockeddragscroll" : 0,
					"lockedsize" : 0,
					"maxclass" : "bpatcher",
					"name" : "sp.acc.intensity.maxpat",
					"numinlets" : 3,
					"numoutlets" : 4,
					"offset" : [ 0.0, 0.0 ],
					"outlettype" : [ "", "float", "float", "float" ],
					"patching_rect" : [ 485.248191833496094, 184.273467109374991, 133.731216430664062, 116.347579956054688 ],
					"viewvisibility" : 1
				}

			}
, 			{
				"box" : 				{
					"fontsize" : 11.0,
					"id" : "obj-20",
					"maxclass" : "newobj",
					"numinlets" : 1,
					"numoutlets" : 1,
					"outlettype" : [ "" ],
					"patching_rect" : [ 170.0, 229.999999525390649, 71.0, 21.0 ],
					"text" : "loadmess 1"
				}

			}
, 			{
				"box" : 				{
					"fontsize" : 11.0,
					"id" : "obj-19",
					"items" : [ "stop", ",", "IMU", ",", "Drawing" ],
					"maxclass" : "umenu",
					"numinlets" : 1,
					"numoutlets" : 3,
					"outlettype" : [ "int", "", "" ],
					"parameter_enable" : 0,
					"patching_rect" : [ 170.0, 255.135253431640649, 76.0, 21.0 ]
				}

			}
, 			{
				"box" : 				{
					"fontsize" : 11.0,
					"id" : "obj-16",
					"maxclass" : "newobj",
					"numinlets" : 3,
					"numoutlets" : 1,
					"outlettype" : [ "" ],
					"patching_rect" : [ 170.0, 383.548391222953796, 683.602569580078125, 21.0 ],
					"text" : "switch"
				}

			}
, 			{
				"box" : 				{
					"bgcolor" : [ 0.819608, 0.819608, 0.819608, 0.0 ],
					"bgmode" : 2,
					"border" : 1,
					"clickthrough" : 0,
					"enablehscroll" : 0,
					"enablevscroll" : 0,
					"id" : "obj-31",
					"lockeddragscroll" : 0,
					"lockedsize" : 0,
					"maxclass" : "bpatcher",
					"name" : "sp.orientation.maxpat",
					"numinlets" : 2,
					"numoutlets" : 2,
					"offset" : [ 0.0, 0.0 ],
					"outlettype" : [ "", "" ],
					"patching_rect" : [ 341.602569580078125, 184.273467109374991, 133.731216430664062, 116.319091796875 ],
					"viewvisibility" : 1
				}

			}
, 			{
				"box" : 				{
					"bgcolor" : [ 0.6, 0.678431, 0.756863, 0.0 ],
					"bgmode" : 2,
					"border" : 1,
					"clickthrough" : 0,
					"enablehscroll" : 0,
					"enablevscroll" : 0,
					"id" : "obj-11",
					"lockeddragscroll" : 0,
					"lockedsize" : 0,
					"maxclass" : "bpatcher",
					"name" : "drawing.maxpat",
					"numinlets" : 3,
					"numoutlets" : 2,
					"offset" : [ 0.0, 0.0 ],
					"outlettype" : [ "", "int" ],
					"patching_rect" : [ 834.602569580078125, 3.54269452539063, 321.064523100852966, 247.587085692990058 ],
					"viewvisibility" : 1
				}

			}
, 			{
				"box" : 				{
					"bgcolor" : [ 0.6, 0.678431, 0.756863, 0.0 ],
					"bgmode" : 2,
					"border" : 1,
					"clickthrough" : 0,
					"enablehscroll" : 0,
					"enablevscroll" : 0,
					"id" : "obj-41",
					"lockeddragscroll" : 0,
					"lockedsize" : 0,
					"maxclass" : "bpatcher",
					"name" : "in.riotbitalino.maxpat",
					"numinlets" : 4,
					"numoutlets" : 4,
					"offset" : [ -6.0, 0.0 ],
					"outlettype" : [ "", "", "", "float" ],
					"patching_rect" : [ 341.602569580078125, 18.433043999999995, 163.0, 132.566956000000005 ],
					"viewvisibility" : 1
				}

			}
, 			{
				"box" : 				{
					"fontsize" : 24.0,
					"id" : "obj-5",
					"maxclass" : "comment",
					"numinlets" : 1,
					"numoutlets" : 0,
					"patching_rect" : [ 352.5, 627.5, 318.0, 33.0 ],
					"text" : "mapping likelihood to volume"
				}

			}
, 			{
				"box" : 				{
					"fontsize" : 10.0,
					"id" : "obj-8",
					"maxclass" : "newobj",
					"numinlets" : 1,
					"numoutlets" : 3,
					"outlettype" : [ "float", "float", "float" ],
					"patching_rect" : [ 170.0, 634.0, 74.0, 20.0 ],
					"text" : "unpack 0. 0. 0."
				}

			}
, 			{
				"box" : 				{
					"bgcolor" : [ 0.65045, 0.65045, 0.65045, 0.0 ],
					"bgmode" : 2,
					"border" : 1,
					"clickthrough" : 0,
					"enablehscroll" : 0,
					"enablevscroll" : 0,
					"id" : "obj-3",
					"lockeddragscroll" : 0,
					"lockedsize" : 0,
					"maxclass" : "bpatcher",
					"name" : "synth.scratch.samples.maxpat",
					"numinlets" : 4,
					"numoutlets" : 2,
					"offset" : [ 0.0, 0.0 ],
					"outlettype" : [ "signal", "signal" ],
					"patching_rect" : [ 664.0, 700.9757080078125, 240.79486083984375, 109.320236206054688 ],
					"viewvisibility" : 1
				}

			}
, 			{
				"box" : 				{
					"bgcolor" : [ 0.65045, 0.65045, 0.65045, 0.0 ],
					"bgmode" : 2,
					"border" : 1,
					"clickthrough" : 0,
					"enablehscroll" : 0,
					"enablevscroll" : 0,
					"id" : "obj-2",
					"lockeddragscroll" : 0,
					"lockedsize" : 0,
					"maxclass" : "bpatcher",
					"name" : "synth.scratch.samples.maxpat",
					"numinlets" : 4,
					"numoutlets" : 2,
					"offset" : [ 0.0, 0.0 ],
					"outlettype" : [ "signal", "signal" ],
					"patching_rect" : [ 415.0, 700.9757080078125, 240.79486083984375, 109.320236206054688 ],
					"viewvisibility" : 1
				}

			}
, 			{
				"box" : 				{
					"bgmode" : 0,
					"border" : 1,
					"clickthrough" : 0,
					"enablehscroll" : 0,
					"enablevscroll" : 0,
					"id" : "obj-14",
					"lockeddragscroll" : 0,
					"lockedsize" : 0,
					"maxclass" : "bpatcher",
					"name" : "ml.classification.gmm.maxpat",
					"numinlets" : 8,
					"numoutlets" : 2,
					"offset" : [ 0.0, -4.0 ],
					"outlettype" : [ "", "" ],
					"patching_rect" : [ 170.0, 418.9757080078125, 308.0, 194.0 ],
					"viewvisibility" : 1
				}

			}
, 			{
				"box" : 				{
					"bgcolor" : [ 0.913725, 0.913725, 0.913725, 0.74902 ],
					"bgmode" : 2,
					"border" : 0,
					"clickthrough" : 0,
					"enablehscroll" : 0,
					"enablevscroll" : 0,
					"id" : "obj-26",
					"lockeddragscroll" : 0,
					"lockedsize" : 0,
					"maxclass" : "bpatcher",
					"name" : "sid.output.maxpat",
					"numinlets" : 2,
					"numoutlets" : 0,
					"offset" : [ 0.0, 0.0 ],
					"patching_rect" : [ 166.0, 844.9757080078125, 181.97576904296875, 88.099037170410156 ],
					"viewvisibility" : 1
				}

			}
, 			{
				"box" : 				{
					"bgcolor" : [ 0.65045, 0.65045, 0.65045, 0.0 ],
					"bgmode" : 2,
					"border" : 1,
					"clickthrough" : 0,
					"enablehscroll" : 0,
					"enablevscroll" : 0,
					"id" : "obj-12",
					"lockeddragscroll" : 0,
					"lockedsize" : 0,
					"maxclass" : "bpatcher",
					"name" : "synth.scratch.samples.maxpat",
					"numinlets" : 4,
					"numoutlets" : 2,
					"offset" : [ 0.0, 0.0 ],
					"outlettype" : [ "signal", "signal" ],
					"patching_rect" : [ 166.0, 700.9757080078125, 240.79486083984375, 109.320236206054688 ],
					"viewvisibility" : 1
				}

			}
 ],
		"lines" : [ 			{
				"patchline" : 				{
					"destination" : [ "obj-11", 2 ],
					"source" : [ "obj-1", 0 ]
				}

			}
, 			{
				"patchline" : 				{
					"destination" : [ "obj-31", 1 ],
					"source" : [ "obj-10", 1 ]
				}

			}
, 			{
				"patchline" : 				{
					"destination" : [ "obj-31", 0 ],
					"order" : 2,
					"source" : [ "obj-10", 0 ]
				}

			}
, 			{
				"patchline" : 				{
					"destination" : [ "obj-6", 0 ],
					"order" : 1,
					"source" : [ "obj-10", 0 ]
				}

			}
, 			{
				"patchline" : 				{
					"destination" : [ "obj-9", 0 ],
					"order" : 0,
					"source" : [ "obj-10", 0 ]
				}

			}
, 			{
				"patchline" : 				{
					"destination" : [ "obj-21", 0 ],
					"source" : [ "obj-11", 1 ]
				}

			}
, 			{
				"patchline" : 				{
					"destination" : [ "obj-7", 0 ],
					"source" : [ "obj-11", 0 ]
				}

			}
, 			{
				"patchline" : 				{
					"destination" : [ "obj-26", 0 ],
					"source" : [ "obj-12", 0 ]
				}

			}
, 			{
				"patchline" : 				{
					"destination" : [ "obj-28", 0 ],
					"midpoints" : [ 468.5, 622.4757080078125, 1054.431620279947992, 622.4757080078125 ],
					"source" : [ "obj-14", 1 ]
				}

			}
, 			{
				"patchline" : 				{
					"destination" : [ "obj-8", 0 ],
					"source" : [ "obj-14", 0 ]
				}

			}
, 			{
				"patchline" : 				{
					"destination" : [ "obj-18", 0 ],
					"source" : [ "obj-15", 0 ]
				}

			}
, 			{
				"patchline" : 				{
					"destination" : [ "obj-14", 0 ],
					"source" : [ "obj-16", 0 ]
				}

			}
, 			{
				"patchline" : 				{
					"destination" : [ "obj-15", 0 ],
					"source" : [ "obj-17", 0 ]
				}

			}
, 			{
				"patchline" : 				{
					"destination" : [ "obj-14", 1 ],
					"source" : [ "obj-18", 0 ]
				}

			}
, 			{
				"patchline" : 				{
					"destination" : [ "obj-16", 0 ],
					"source" : [ "obj-19", 0 ]
				}

			}
, 			{
				"patchline" : 				{
					"destination" : [ "obj-26", 0 ],
					"source" : [ "obj-2", 0 ]
				}

			}
, 			{
				"patchline" : 				{
					"destination" : [ "obj-19", 0 ],
					"source" : [ "obj-20", 0 ]
				}

			}
, 			{
				"patchline" : 				{
					"destination" : [ "obj-17", 0 ],
					"source" : [ "obj-22", 0 ]
				}

			}
, 			{
				"patchline" : 				{
					"destination" : [ "obj-22", 0 ],
					"source" : [ "obj-23", 0 ]
				}

			}
, 			{
				"patchline" : 				{
					"destination" : [ "obj-16", 2 ],
					"source" : [ "obj-24", 0 ]
				}

			}
, 			{
				"patchline" : 				{
					"destination" : [ "obj-26", 0 ],
					"source" : [ "obj-25", 0 ]
				}

			}
, 			{
				"patchline" : 				{
					"destination" : [ "obj-25", 1 ],
					"source" : [ "obj-28", 0 ]
				}

			}
, 			{
				"patchline" : 				{
					"destination" : [ "obj-26", 0 ],
					"source" : [ "obj-3", 0 ]
				}

			}
, 			{
				"patchline" : 				{
					"destination" : [ "obj-4", 0 ],
					"source" : [ "obj-31", 0 ]
				}

			}
, 			{
				"patchline" : 				{
					"destination" : [ "obj-16", 1 ],
					"source" : [ "obj-4", 0 ]
				}

			}
, 			{
				"patchline" : 				{
					"destination" : [ "obj-31", 1 ],
					"source" : [ "obj-41", 1 ]
				}

			}
, 			{
				"patchline" : 				{
					"destination" : [ "obj-31", 0 ],
					"order" : 2,
					"source" : [ "obj-41", 0 ]
				}

			}
, 			{
				"patchline" : 				{
					"destination" : [ "obj-6", 0 ],
					"order" : 1,
					"source" : [ "obj-41", 0 ]
				}

			}
, 			{
				"patchline" : 				{
					"destination" : [ "obj-9", 0 ],
					"order" : 0,
					"source" : [ "obj-41", 0 ]
				}

			}
, 			{
				"patchline" : 				{
					"destination" : [ "obj-4", 2 ],
					"source" : [ "obj-6", 0 ]
				}

			}
, 			{
				"patchline" : 				{
					"destination" : [ "obj-24", 0 ],
					"source" : [ "obj-7", 0 ]
				}

			}
, 			{
				"patchline" : 				{
					"destination" : [ "obj-12", 3 ],
					"midpoints" : [ 179.5, 690.48785400390625, 397.29486083984375, 690.48785400390625 ],
					"source" : [ "obj-8", 0 ]
				}

			}
, 			{
				"patchline" : 				{
					"destination" : [ "obj-2", 3 ],
					"midpoints" : [ 207.0, 678.48785400390625, 646.29486083984375, 678.48785400390625 ],
					"source" : [ "obj-8", 1 ]
				}

			}
, 			{
				"patchline" : 				{
					"destination" : [ "obj-3", 3 ],
					"midpoints" : [ 234.5, 668.98785400390625, 895.29486083984375, 668.98785400390625 ],
					"source" : [ "obj-8", 2 ]
				}

			}
, 			{
				"patchline" : 				{
					"destination" : [ "obj-4", 1 ],
					"source" : [ "obj-9", 0 ]
				}

			}
 ],
		"parameters" : 		{
			"obj-10::obj-55" : [ "live.text", "live.text", 0 ],
			"obj-10::obj-56" : [ "live.text[1]", "live.text", 0 ],
			"obj-10::obj-60" : [ "live.text[3]", "live.text[3]", 0 ],
			"obj-12::obj-18::obj-88" : [ "live.toggle[9]", "live.toggle", 0 ],
			"obj-12::obj-18::obj-92" : [ "live.toggle[17]", "live.toggle", 0 ],
			"obj-12::obj-22" : [ "live.gain~", "live.gain~", 0 ],
			"obj-25::obj-18::obj-88" : [ "live.toggle[20]", "live.toggle", 0 ],
			"obj-25::obj-18::obj-92" : [ "live.toggle[7]", "live.toggle", 0 ],
			"obj-25::obj-22" : [ "live.gain~[6]", "live.gain~", 0 ],
			"obj-26::obj-2" : [ "live.gain~[5]", "live.gain~[4]", 0 ],
			"obj-2::obj-18::obj-88" : [ "live.toggle[3]", "live.toggle", 0 ],
			"obj-2::obj-18::obj-92" : [ "live.toggle[4]", "live.toggle", 0 ],
			"obj-2::obj-22" : [ "live.gain~[1]", "live.gain~", 0 ],
			"obj-3::obj-18::obj-88" : [ "live.toggle[6]", "live.toggle", 0 ],
			"obj-3::obj-18::obj-92" : [ "live.toggle[5]", "live.toggle", 0 ],
			"obj-3::obj-22" : [ "live.gain~[2]", "live.gain~", 0 ],
			"parameterbanks" : 			{

			}
,
			"parameter_overrides" : 			{
				"obj-12::obj-18::obj-88" : 				{
					"parameter_longname" : "live.toggle[9]"
				}
,
				"obj-25::obj-18::obj-92" : 				{
					"parameter_longname" : "live.toggle[7]"
				}
,
				"obj-25::obj-22" : 				{
					"parameter_longname" : "live.gain~[6]"
				}
,
				"obj-2::obj-18::obj-88" : 				{
					"parameter_longname" : "live.toggle[3]"
				}
,
				"obj-2::obj-18::obj-92" : 				{
					"parameter_longname" : "live.toggle[4]"
				}
,
				"obj-2::obj-22" : 				{
					"parameter_longname" : "live.gain~[1]"
				}
,
				"obj-3::obj-18::obj-88" : 				{
					"parameter_longname" : "live.toggle[6]"
				}
,
				"obj-3::obj-18::obj-92" : 				{
					"parameter_longname" : "live.toggle[5]"
				}
,
				"obj-3::obj-22" : 				{
					"parameter_longname" : "live.gain~[2]"
				}

			}
,
			"inherited_shortname" : 1
		}
,
		"dependency_cache" : [ 			{
				"name" : "comote-screenshot-3.png",
				"bootpath" : "~/github/Gestural-Sound-Toolkit-V2/patchers/mod-interfaces/CoMo.te/extras",
				"patcherrelativepath" : "../patchers/mod-interfaces/CoMo.te/extras",
				"type" : "PNG",
				"implicit" : 1
			}
, 			{
				"name" : "comote.connect.maxpat",
				"bootpath" : "~/github/Gestural-Sound-Toolkit-V2/patchers/mod-interfaces/CoMo.te/patchers",
				"patcherrelativepath" : "../patchers/mod-interfaces/CoMo.te/patchers",
				"type" : "JSON",
				"implicit" : 1
			}
, 			{
				"name" : "drawing.maxpat",
				"bootpath" : "~/github/Gestural-Sound-Toolkit-V2/patchers/mod-interfaces/lcd",
				"patcherrelativepath" : "../patchers/mod-interfaces/lcd",
				"type" : "JSON",
				"implicit" : 1
			}
, 			{
				"name" : "fit_jweb_to_bounds.js",
				"bootpath" : "C74:/packages/Node for Max/patchers/debug-monitor",
				"type" : "TEXT",
				"implicit" : 1
			}
, 			{
				"name" : "helpstarter.js",
				"bootpath" : "C74:/help/resources",
				"type" : "TEXT",
				"implicit" : 1
			}
, 			{
				"name" : "imubu.mxo",
				"type" : "iLaX"
			}
, 			{
				"name" : "in.comote.maxpat",
				"bootpath" : "~/github/Gestural-Sound-Toolkit-V2/patchers/mod-interfaces/CoMo.te",
				"patcherrelativepath" : "../patchers/mod-interfaces/CoMo.te",
				"type" : "JSON",
				"implicit" : 1
			}
, 			{
				"name" : "in.riotbitalino.maxpat",
				"bootpath" : "~/github/Gestural-Sound-Toolkit-V2/patchers/mod-interfaces/riot",
				"patcherrelativepath" : "../patchers/mod-interfaces/riot",
				"type" : "JSON",
				"implicit" : 1
			}
, 			{
				"name" : "ml.classification.gmm.maxpat",
				"bootpath" : "~/github/Gestural-Sound-Toolkit-V2/patchers/mod-analysis/machine-learning",
				"patcherrelativepath" : "../patchers/mod-analysis/machine-learning",
				"type" : "JSON",
				"implicit" : 1
			}
, 			{
				"name" : "mubu.gmm.maxhelp",
				"bootpath" : "~/Documents/Max 8/Packages/MuBu For Max/help",
				"patcherrelativepath" : "../../../Documents/Max 8/Packages/MuBu For Max/help",
				"type" : "JSON",
				"implicit" : 1
			}
, 			{
				"name" : "mubu.gmm.mxo",
				"type" : "iLaX"
			}
, 			{
				"name" : "mubu.mxo",
				"type" : "iLaX"
			}
, 			{
				"name" : "mubu.record.mxo",
				"type" : "iLaX"
			}
, 			{
				"name" : "mubu.setlabels.maxpat",
				"bootpath" : "~/Documents/Max 8/Packages/MuBu For Max/patchers",
				"patcherrelativepath" : "../../../Documents/Max 8/Packages/MuBu For Max/patchers",
				"type" : "JSON",
				"implicit" : 1
			}
, 			{
				"name" : "mubu.track.mxo",
				"type" : "iLaX"
			}
, 			{
				"name" : "n4m.monitor.maxpat",
				"bootpath" : "C74:/packages/Node for Max/patchers/debug-monitor",
				"type" : "JSON",
				"implicit" : 1
			}
, 			{
				"name" : "pipo.mxo",
				"type" : "iLaX"
			}
, 			{
				"name" : "resize.js",
				"bootpath" : "~/github/Gestural-Sound-Toolkit-V2/patchers/mod-interfaces/CoMo.te/patchers",
				"patcherrelativepath" : "../patchers/mod-interfaces/CoMo.te/patchers",
				"type" : "TEXT",
				"implicit" : 1
			}
, 			{
				"name" : "resize_n4m_monitor_patcher.js",
				"bootpath" : "C74:/packages/Node for Max/patchers/debug-monitor",
				"type" : "TEXT",
				"implicit" : 1
			}
, 			{
				"name" : "riotbitalino.maxpat",
				"bootpath" : "~/github/Gestural-Sound-Toolkit-V2/patchers/mod-interfaces/riot",
				"patcherrelativepath" : "../patchers/mod-interfaces/riot",
				"type" : "JSON",
				"implicit" : 1
			}
, 			{
				"name" : "server.js",
				"bootpath" : "~/github/Gestural-Sound-Toolkit-V2/patchers/mod-interfaces/CoMo.te/patchers",
				"patcherrelativepath" : "../patchers/mod-interfaces/CoMo.te/patchers",
				"type" : "TEXT",
				"implicit" : 1
			}
, 			{
				"name" : "sid.output.maxpat",
				"bootpath" : "~/github/Gestural-Sound-Toolkit-V2/patchers/mod-synthesis",
				"patcherrelativepath" : "../patchers/mod-synthesis",
				"type" : "JSON",
				"implicit" : 1
			}
, 			{
				"name" : "sp.acc.intensity.maxpat",
				"bootpath" : "~/github/Gestural-Sound-Toolkit-V2/patchers/mod-analysis/signal-processing",
				"patcherrelativepath" : "../patchers/mod-analysis/signal-processing",
				"type" : "JSON",
				"implicit" : 1
			}
, 			{
				"name" : "sp.bandpass.maxpat",
				"bootpath" : "~/github/Gestural-Sound-Toolkit-V2/patchers/mod-analysis/signal-processing",
				"patcherrelativepath" : "../patchers/mod-analysis/signal-processing",
				"type" : "JSON",
				"implicit" : 1
			}
, 			{
				"name" : "sp.derivative.maxpat",
				"bootpath" : "~/github/Gestural-Sound-Toolkit-V2/patchers/mod-analysis/signal-processing",
				"patcherrelativepath" : "../patchers/mod-analysis/signal-processing",
				"type" : "JSON",
				"implicit" : 1
			}
, 			{
				"name" : "sp.norm.maxpat",
				"bootpath" : "~/github/Gestural-Sound-Toolkit-V2/patchers/mod-analysis/signal-processing",
				"patcherrelativepath" : "../patchers/mod-analysis/signal-processing",
				"type" : "JSON",
				"implicit" : 1
			}
, 			{
				"name" : "sp.orientation.maxpat",
				"bootpath" : "~/github/Gestural-Sound-Toolkit-V2/patchers/mod-analysis/signal-processing",
				"patcherrelativepath" : "../patchers/mod-analysis/signal-processing",
				"type" : "JSON",
				"implicit" : 1
			}
, 			{
				"name" : "synth.ctrl.soundpool.maxpat",
				"bootpath" : "~/github/Gestural-Sound-Toolkit-V2/patchers/mod-synthesis",
				"patcherrelativepath" : "../patchers/mod-synthesis",
				"type" : "JSON",
				"implicit" : 1
			}
, 			{
				"name" : "synth.scratch.samples.maxpat",
				"bootpath" : "~/github/Gestural-Sound-Toolkit-V2/patchers/mod-synthesis",
				"patcherrelativepath" : "../patchers/mod-synthesis",
				"type" : "JSON",
				"implicit" : 1
			}
 ],
		"autosave" : 0
	}

}
