{
	"patcher" : 	{
		"fileversion" : 1,
		"appversion" : 		{
			"major" : 9,
			"minor" : 0,
			"revision" : 4,
			"architecture" : "x64",
			"modernui" : 1
		}
,
		"classnamespace" : "box",
		"rect" : [ 134.0, 159.0, 888.0, 892.0 ],
		"gridsize" : [ 15.0, 15.0 ],
		"boxes" : [ 			{
				"box" : 				{
					"id" : "obj-7",
					"linecount" : 2,
					"maxclass" : "message",
					"numinlets" : 2,
					"numoutlets" : 1,
					"outlettype" : [ "" ],
					"patching_rect" : [ 272.85232979910711, 194.656585693359375, 65.0, 35.0 ],
					"text" : "states 20, train"
				}

			}
, 			{
				"box" : 				{
					"id" : "obj-3",
					"maxclass" : "number",
					"numinlets" : 1,
					"numoutlets" : 2,
					"outlettype" : [ "", "bang" ],
					"parameter_enable" : 0,
					"patching_rect" : [ 29.0, 533.0, 50.0, 22.0 ]
				}

			}
, 			{
				"box" : 				{
					"id" : "obj-18",
					"maxclass" : "newobj",
					"numinlets" : 1,
					"numoutlets" : 3,
					"outlettype" : [ "", "int", "int" ],
					"patching_rect" : [ 29.0, 498.5, 48.0, 22.0 ],
					"text" : "change"
				}

			}
, 			{
				"box" : 				{
					"bgmode" : 0,
					"border" : 1,
					"clickthrough" : 0,
					"enablehscroll" : 0,
					"enablevscroll" : 0,
					"id" : "obj-2",
					"lockeddragscroll" : 0,
					"lockedsize" : 0,
					"maxclass" : "bpatcher",
					"name" : "ml.classification.hhmm.maxpat",
					"numinlets" : 8,
					"numoutlets" : 3,
					"offset" : [ 0.0, -3.0 ],
					"outlettype" : [ "", "", "" ],
					"patching_rect" : [ 29.0, 259.656585693359375, 303.494384765625, 178.343414306640625 ],
					"viewvisibility" : 1
				}

			}
, 			{
				"box" : 				{
					"id" : "obj-16",
					"maxclass" : "toggle",
					"numinlets" : 1,
					"numoutlets" : 1,
					"outlettype" : [ "int" ],
					"parameter_enable" : 0,
					"patching_rect" : [ 173.0, 66.975739000000004, 24.0, 24.0 ],
					"svg" : ""
				}

			}
, 			{
				"box" : 				{
					"bgcolor" : [ 0.6, 0.678431, 0.756863, 0.0 ],
					"bgmode" : 2,
					"border" : 1,
					"clickthrough" : 0,
					"enablehscroll" : 0,
					"enablevscroll" : 0,
					"id" : "obj-41",
					"lockeddragscroll" : 0,
					"lockedsize" : 0,
					"maxclass" : "bpatcher",
					"name" : "in.riotbitalino.maxpat",
					"numinlets" : 4,
					"numoutlets" : 4,
					"offset" : [ -6.0, 0.0 ],
					"outlettype" : [ "", "", "", "float" ],
					"patching_rect" : [ 29.0, 100.975739000000004, 163.0, 132.566956000000005 ],
					"viewvisibility" : 1
				}

			}
, 			{
				"box" : 				{
					"fontsize" : 18.0,
					"id" : "obj-13",
					"maxclass" : "comment",
					"numinlets" : 1,
					"numoutlets" : 0,
					"patching_rect" : [ 88.0, 533.0, 169.0, 27.0 ],
					"text" : "recognised gesture"
				}

			}
, 			{
				"box" : 				{
					"fontsize" : 18.0,
					"id" : "obj-9",
					"maxclass" : "comment",
					"numinlets" : 1,
					"numoutlets" : 0,
					"patching_rect" : [ 326.0, 440.0, 176.0, 27.0 ],
					"text" : "progression [0 1]"
				}

			}
, 			{
				"box" : 				{
					"id" : "obj-15",
					"maxclass" : "newobj",
					"numinlets" : 1,
					"numoutlets" : 2,
					"outlettype" : [ "int", "int" ],
					"patching_rect" : [ 29.0, 569.0, 29.5, 22.0 ],
					"text" : "t 1 i"
				}

			}
, 			{
				"box" : 				{
					"contdata" : 1,
					"id" : "obj-4",
					"maxclass" : "multislider",
					"numinlets" : 1,
					"numoutlets" : 2,
					"orientation" : 0,
					"outlettype" : [ "", "" ],
					"parameter_enable" : 0,
					"patching_rect" : [ 313.494384765625, 466.5, 151.0, 23.0 ],
					"setminmax" : [ 0.0, 1.0 ],
					"setstyle" : 1
				}

			}
, 			{
				"box" : 				{
					"bgcolor" : [ 0.913725490196078, 0.913725490196078, 0.913725490196078, 0.0 ],
					"bgmode" : 2,
					"border" : 0,
					"clickthrough" : 0,
					"enablehscroll" : 0,
					"enablevscroll" : 0,
					"id" : "obj-26",
					"lockeddragscroll" : 0,
					"lockedsize" : 0,
					"maxclass" : "bpatcher",
					"name" : "sid.output.maxpat",
					"numinlets" : 2,
					"numoutlets" : 0,
					"offset" : [ 0.0, 0.0 ],
					"patching_rect" : [ 29.0, 736.9757080078125, 182.97576904296875, 110.099037170410156 ],
					"viewvisibility" : 1
				}

			}
, 			{
				"box" : 				{
					"bgcolor" : [ 0.65045, 0.65045, 0.65045, 0.0 ],
					"bgmode" : 2,
					"border" : 1,
					"clickthrough" : 0,
					"enablehscroll" : 0,
					"enablevscroll" : 0,
					"id" : "obj-12",
					"lockeddragscroll" : 0,
					"lockedsize" : 0,
					"maxclass" : "bpatcher",
					"name" : "synth.scrub.samples.maxpat",
					"numinlets" : 4,
					"numoutlets" : 2,
					"offset" : [ 0.0, 0.0 ],
					"outlettype" : [ "signal", "signal" ],
					"patching_rect" : [ 29.0, 607.9757080078125, 240.79486083984375, 111.320236206054688 ],
					"viewvisibility" : 1
				}

			}
 ],
		"lines" : [ 			{
				"patchline" : 				{
					"destination" : [ "obj-26", 0 ],
					"source" : [ "obj-12", 0 ]
				}

			}
, 			{
				"patchline" : 				{
					"destination" : [ "obj-12", 1 ],
					"source" : [ "obj-15", 1 ]
				}

			}
, 			{
				"patchline" : 				{
					"destination" : [ "obj-12", 0 ],
					"source" : [ "obj-15", 0 ]
				}

			}
, 			{
				"patchline" : 				{
					"destination" : [ "obj-41", 3 ],
					"source" : [ "obj-16", 0 ]
				}

			}
, 			{
				"patchline" : 				{
					"destination" : [ "obj-3", 0 ],
					"source" : [ "obj-18", 0 ]
				}

			}
, 			{
				"patchline" : 				{
					"destination" : [ "obj-18", 0 ],
					"source" : [ "obj-2", 1 ]
				}

			}
, 			{
				"patchline" : 				{
					"destination" : [ "obj-4", 0 ],
					"source" : [ "obj-2", 2 ]
				}

			}
, 			{
				"patchline" : 				{
					"destination" : [ "obj-15", 0 ],
					"source" : [ "obj-3", 0 ]
				}

			}
, 			{
				"patchline" : 				{
					"destination" : [ "obj-12", 2 ],
					"midpoints" : [ 322.994384765625, 584.98785400390625, 186.363240559895843, 584.98785400390625 ],
					"source" : [ "obj-4", 0 ]
				}

			}
, 			{
				"patchline" : 				{
					"destination" : [ "obj-2", 0 ],
					"source" : [ "obj-41", 0 ]
				}

			}
, 			{
				"patchline" : 				{
					"destination" : [ "obj-2", 6 ],
					"source" : [ "obj-7", 0 ]
				}

			}
 ],
		"originid" : "pat-1078",
		"parameters" : 		{
			"obj-12::obj-15::obj-88" : [ "live.toggle[5]", "live.toggle", 0 ],
			"obj-12::obj-15::obj-92" : [ "live.toggle[2]", "live.toggle", 0 ],
			"obj-12::obj-2" : [ "live.gain~[3]", "live.gain~", 0 ],
			"obj-26::obj-2" : [ "live.gain~[5]", "live.gain~[4]", 0 ],
			"parameterbanks" : 			{

			}
,
			"parameter_overrides" : 			{
				"obj-12::obj-15::obj-88" : 				{
					"parameter_longname" : "live.toggle[5]"
				}
,
				"obj-12::obj-15::obj-92" : 				{
					"parameter_longname" : "live.toggle[2]"
				}

			}
,
			"inherited_shortname" : 1
		}
,
		"dependency_cache" : [ 			{
				"name" : "helpstarter.js",
				"bootpath" : "C74:/help/resources",
				"type" : "TEXT",
				"implicit" : 1
			}
, 			{
				"name" : "imubu.mxo",
				"type" : "iLaX"
			}
, 			{
				"name" : "in.riotbitalino.maxpat",
				"bootpath" : "~/Documents/Max 9/Packages/Gestural-Sound-Toolkit/patchers/mod-interfaces/riot",
				"patcherrelativepath" : "../../../Max 9/Packages/Gestural-Sound-Toolkit/patchers/mod-interfaces/riot",
				"type" : "JSON",
				"implicit" : 1
			}
, 			{
				"name" : "ml.classification.hhmm.maxpat",
				"bootpath" : "~/Documents/Max 9/Packages/Gestural-Sound-Toolkit/patchers/mod-analysis/machine-learning",
				"patcherrelativepath" : "../../../Max 9/Packages/Gestural-Sound-Toolkit/patchers/mod-analysis/machine-learning",
				"type" : "JSON",
				"implicit" : 1
			}
, 			{
				"name" : "mubu.granular~.mxo",
				"type" : "iLaX"
			}
, 			{
				"name" : "mubu.hhmm.maxhelp",
				"bootpath" : "~/Documents/Max 9/Packages/MuBu For Max/help",
				"patcherrelativepath" : "../../../Max 9/Packages/MuBu For Max/help",
				"type" : "JSON",
				"implicit" : 1
			}
, 			{
				"name" : "mubu.hhmm.mxo",
				"type" : "iLaX"
			}
, 			{
				"name" : "mubu.mxo",
				"type" : "iLaX"
			}
, 			{
				"name" : "mubu.record.mxo",
				"type" : "iLaX"
			}
, 			{
				"name" : "mubu.setlabels.maxpat",
				"bootpath" : "~/Documents/Max 9/Packages/MuBu For Max/patchers",
				"patcherrelativepath" : "../../../Max 9/Packages/MuBu For Max/patchers",
				"type" : "JSON",
				"implicit" : 1
			}
, 			{
				"name" : "mubu.track.mxo",
				"type" : "iLaX"
			}
, 			{
				"name" : "pipo.mxo",
				"type" : "iLaX"
			}
, 			{
				"name" : "riotbitalino.maxpat",
				"bootpath" : "~/Documents/Max 9/Packages/Gestural-Sound-Toolkit/patchers/mod-interfaces/riot",
				"patcherrelativepath" : "../../../Max 9/Packages/Gestural-Sound-Toolkit/patchers/mod-interfaces/riot",
				"type" : "JSON",
				"implicit" : 1
			}
, 			{
				"name" : "sid.output.maxpat",
				"bootpath" : "~/Documents/Max 9/Packages/Gestural-Sound-Toolkit/patchers/mod-synthesis",
				"patcherrelativepath" : "../../../Max 9/Packages/Gestural-Sound-Toolkit/patchers/mod-synthesis",
				"type" : "JSON",
				"implicit" : 1
			}
, 			{
				"name" : "synth.ctrl.soundpool.maxpat",
				"bootpath" : "~/Documents/Max 9/Packages/Gestural-Sound-Toolkit/patchers/mod-synthesis",
				"patcherrelativepath" : "../../../Max 9/Packages/Gestural-Sound-Toolkit/patchers/mod-synthesis",
				"type" : "JSON",
				"implicit" : 1
			}
, 			{
				"name" : "synth.scrub.samples.maxpat",
				"bootpath" : "~/Documents/Max 9/Packages/Gestural-Sound-Toolkit/patchers/mod-synthesis",
				"patcherrelativepath" : "../../../Max 9/Packages/Gestural-Sound-Toolkit/patchers/mod-synthesis",
				"type" : "JSON",
				"implicit" : 1
			}
 ],
		"autosave" : 0
	}

}
