{
	"patcher" : 	{
		"fileversion" : 1,
		"appversion" : 		{
			"major" : 9,
			"minor" : 0,
			"revision" : 4,
			"architecture" : "x64",
			"modernui" : 1
		}
,
		"classnamespace" : "box",
		"rect" : [ 114.0, 100.0, 1527.0, 958.0 ],
		"gridsize" : [ 15.0, 15.0 ],
		"showrootpatcherontab" : 0,
		"showontab" : 0,
		"boxes" : [ 			{
				"box" : 				{
					"fontname" : "Arial",
					"fontsize" : 11.695880000000001,
					"id" : "obj-7",
					"maxclass" : "newobj",
					"numinlets" : 0,
					"numoutlets" : 0,
					"patcher" : 					{
						"fileversion" : 1,
						"appversion" : 						{
							"major" : 9,
							"minor" : 0,
							"revision" : 4,
							"architecture" : "x64",
							"modernui" : 1
						}
,
						"classnamespace" : "box",
						"rect" : [ 0.0, 26.0, 1527.0, 932.0 ],
						"gridsize" : [ 15.0, 15.0 ],
						"showontab" : 1,
						"boxes" : [ 							{
								"box" : 								{
									"fontname" : "Arial",
									"fontsize" : 12.0,
									"id" : "obj-9",
									"maxclass" : "comment",
									"numinlets" : 1,
									"numoutlets" : 0,
									"patching_rect" : [ 318.0, 112.0, 264.0, 20.0 ],
									"text" : "forked from bcaramiaux/Gestural-Sound-Toolkit"
								}

							}
, 							{
								"box" : 								{
									"fontname" : "Arial",
									"fontsize" : 10.0,
									"hidden" : 1,
									"id" : "obj-7",
									"linecount" : 2,
									"maxclass" : "message",
									"numinlets" : 2,
									"numoutlets" : 1,
									"outlettype" : [ "" ],
									"patching_rect" : [ 16.0, 137.0, 336.0, 31.0 ],
									"text" : ";\rmax launchbrowser https://github.com/ircam-ismm/Gestural-Sound-Toolkit"
								}

							}
, 							{
								"box" : 								{
									"id" : "obj-8",
									"maxclass" : "message",
									"numinlets" : 2,
									"numoutlets" : 1,
									"outlettype" : [ "" ],
									"patching_rect" : [ 16.0, 111.0, 294.0, 22.0 ],
									"text" : "https://github.com/ircam-ismm/Gestural-Sound-Toolkit"
								}

							}
, 							{
								"box" : 								{
									"fontname" : "Arial",
									"fontsize" : 10.0,
									"hidden" : 1,
									"id" : "obj-77",
									"linecount" : 2,
									"maxclass" : "message",
									"numinlets" : 2,
									"numoutlets" : 1,
									"outlettype" : [ "" ],
									"patching_rect" : [ 16.0, 225.0, 302.0, 31.0 ],
									"text" : ";\rmax launchbrowser https://ircam-ismm.github.io/max-msp/gst.html"
								}

							}
, 							{
								"box" : 								{
									"id" : "obj-6",
									"maxclass" : "message",
									"numinlets" : 2,
									"numoutlets" : 1,
									"outlettype" : [ "" ],
									"patching_rect" : [ 16.0, 199.0, 253.0, 22.0 ],
									"text" : "https://ircam-ismm.github.io/max-msp/gst.html"
								}

							}
, 							{
								"box" : 								{
									"fontsize" : 18.0,
									"id" : "obj-4",
									"maxclass" : "comment",
									"numinlets" : 1,
									"numoutlets" : 0,
									"patching_rect" : [ 16.0, 170.0, 326.0, 27.0 ],
									"text" : "Informations"
								}

							}
, 							{
								"box" : 								{
									"fontsize" : 18.0,
									"id" : "obj-2",
									"maxclass" : "comment",
									"numinlets" : 1,
									"numoutlets" : 0,
									"patching_rect" : [ 16.0, 76.0, 326.0, 27.0 ],
									"text" : "Repositery"
								}

							}
, 							{
								"box" : 								{
									"fontname" : "Arial",
									"fontsize" : 12.0,
									"id" : "obj-1",
									"linecount" : 4,
									"maxclass" : "comment",
									"numinlets" : 1,
									"numoutlets" : 0,
									"patching_rect" : [ 16.0, 438.0, 689.0, 74.0 ],
									"text" : "The V2 is based on the initial version of the Gestural Sound Toolkit by Baptiste Caramiaux and Alessandro Altavilla\na Max library for the design of Embodied Sonic Interactions\n(c) 2015 EAVI Group, Goldsmiths College, University of London\nUsing MuBu, IRCAM-STMS\n"
								}

							}
, 							{
								"box" : 								{
									"fontsize" : 18.0,
									"id" : "obj-34",
									"maxclass" : "comment",
									"numinlets" : 1,
									"numoutlets" : 0,
									"patching_rect" : [ 16.0, 264.0, 326.0, 27.0 ],
									"text" : "Credits"
								}

							}
, 							{
								"box" : 								{
									"fontname" : "Helvetica Neue Medium",
									"fontsize" : 25.41419792175293,
									"id" : "obj-56",
									"maxclass" : "comment",
									"numinlets" : 1,
									"numoutlets" : 0,
									"patching_rect" : [ 15.0, 10.0, 326.0, 37.0 ],
									"text" : "Gestural Sound Toolkit V2 "
								}

							}
, 							{
								"box" : 								{
									"fontname" : "Arial",
									"fontsize" : 12.0,
									"id" : "obj-58",
									"linecount" : 9,
									"maxclass" : "comment",
									"numinlets" : 1,
									"numoutlets" : 0,
									"patching_rect" : [ 16.0, 300.0, 689.0, 127.0 ],
									"text" : "Contributors V2\n\n– STMS Lab IRCAM CNRS Sorbonne Université (Frédéric Bevilacqua, Riccardo Borghesi, Diemo Schwarz, Victor Paredes)\n– ISIR Sorbonne Université (Baptiste Caramiaux)\n– LIMSI CNRS (Jules Françoise)\n– University of York (Alessandro Altavilla)\n\nAcknowledgement\nELEMENT (ANR-18-CE33-0002), element-project.ircam.fr"
								}

							}
 ],
						"lines" : [ 							{
								"patchline" : 								{
									"destination" : [ "obj-77", 0 ],
									"hidden" : 1,
									"source" : [ "obj-6", 0 ]
								}

							}
, 							{
								"patchline" : 								{
									"destination" : [ "obj-7", 0 ],
									"hidden" : 1,
									"source" : [ "obj-8", 0 ]
								}

							}
 ],
						"originid" : "pat-9762"
					}
,
					"patching_rect" : [ 119.0, 97.0, 114.0, 22.0 ],
					"saved_object_attributes" : 					{
						"globalpatchername" : ""
					}
,
					"text" : "p information/credits"
				}

			}
, 			{
				"box" : 				{
					"id" : "obj-3",
					"maxclass" : "newobj",
					"numinlets" : 0,
					"numoutlets" : 0,
					"patcher" : 					{
						"fileversion" : 1,
						"appversion" : 						{
							"major" : 9,
							"minor" : 0,
							"revision" : 4,
							"architecture" : "x64",
							"modernui" : 1
						}
,
						"classnamespace" : "box",
						"rect" : [ 114.0, 126.0, 1527.0, 932.0 ],
						"bglocked" : 1,
						"gridsize" : [ 15.0, 15.0 ],
						"showontab" : 1,
						"boxes" : [ 							{
								"box" : 								{
									"fontsize" : 9.0,
									"id" : "obj-59",
									"maxclass" : "newobj",
									"numinlets" : 1,
									"numoutlets" : 1,
									"outlettype" : [ "" ],
									"patching_rect" : [ 1398.0, 663.0, 57.0, 19.0 ],
									"text" : "loadmess 0."
								}

							}
, 							{
								"box" : 								{
									"id" : "obj-13",
									"maxclass" : "newobj",
									"numinlets" : 2,
									"numoutlets" : 1,
									"outlettype" : [ "" ],
									"patching_rect" : [ 1255.358972167968659, 661.5, 129.0, 22.0 ],
									"text" : "random @range 30 40"
								}

							}
, 							{
								"box" : 								{
									"bgcolor" : [ 0.823529, 0.823529, 0.823529, 0.0 ],
									"bgmode" : 2,
									"border" : 1,
									"clickthrough" : 0,
									"enablehscroll" : 0,
									"enablevscroll" : 0,
									"id" : "obj-40",
									"lockeddragscroll" : 0,
									"lockedsize" : 0,
									"maxclass" : "bpatcher",
									"name" : "synth.FM.maxpat",
									"numinlets" : 6,
									"numoutlets" : 4,
									"offset" : [ -6.0, -7.0 ],
									"outlettype" : [ "signal", "", "", "" ],
									"patching_rect" : [ 1211.0, 695.554130554199219, 240.79486083984375, 145.891738891601562 ],
									"viewvisibility" : 1
								}

							}
, 							{
								"box" : 								{
									"fontsize" : 9.0,
									"id" : "obj-62",
									"maxclass" : "newobj",
									"numinlets" : 2,
									"numoutlets" : 1,
									"outlettype" : [ "float" ],
									"patching_rect" : [ 998.346145629882812, 663.0, 29.5, 19.0 ],
									"text" : "* 0.3"
								}

							}
, 							{
								"box" : 								{
									"id" : "obj-61",
									"maxclass" : "toggle",
									"numinlets" : 1,
									"numoutlets" : 1,
									"outlettype" : [ "int" ],
									"parameter_enable" : 0,
									"patching_rect" : [ 832.0, 660.5, 24.0, 24.0 ],
									"svg" : ""
								}

							}
, 							{
								"box" : 								{
									"fontsize" : 9.0,
									"hidden" : 1,
									"id" : "obj-21",
									"maxclass" : "newobj",
									"numinlets" : 1,
									"numoutlets" : 1,
									"outlettype" : [ "" ],
									"patching_rect" : [ 1058.0, 441.5, 162.0, 19.0 ],
									"text" : "loadmess readall gmm-overview.mubu"
								}

							}
, 							{
								"box" : 								{
									"fontsize" : 9.0,
									"hidden" : 1,
									"id" : "obj-16",
									"maxclass" : "newobj",
									"numinlets" : 1,
									"numoutlets" : 1,
									"outlettype" : [ "" ],
									"patching_rect" : [ 1261.0, 20.0, 56.0, 19.0 ],
									"text" : "loadmess 1"
								}

							}
, 							{
								"box" : 								{
									"fontsize" : 9.0,
									"hidden" : 1,
									"id" : "obj-5",
									"maxclass" : "newobj",
									"numinlets" : 1,
									"numoutlets" : 1,
									"outlettype" : [ "" ],
									"patching_rect" : [ 1326.0, 20.0, 143.0, 19.0 ],
									"text" : "loadmess readall overview.mubu"
								}

							}
, 							{
								"box" : 								{
									"fontname" : "Arial Light",
									"fontsize" : 23.899999618530273,
									"id" : "obj-57",
									"maxclass" : "comment",
									"numinlets" : 1,
									"numoutlets" : 0,
									"patching_rect" : [ 107.5, 358.0, 188.0, 30.0 ],
									"text" : "Examples"
								}

							}
, 							{
								"box" : 								{
									"id" : "obj-54",
									"maxclass" : "message",
									"numinlets" : 2,
									"numoutlets" : 1,
									"outlettype" : [ "" ],
									"patching_rect" : [ 114.5, 625.0, 154.0, 22.0 ],
									"text" : "5-regression-nXm-mapping"
								}

							}
, 							{
								"box" : 								{
									"id" : "obj-53",
									"maxclass" : "message",
									"numinlets" : 2,
									"numoutlets" : 1,
									"outlettype" : [ "" ],
									"patching_rect" : [ 114.5, 570.0, 154.0, 22.0 ],
									"text" : "4-classification-dynamic"
								}

							}
, 							{
								"box" : 								{
									"id" : "obj-52",
									"maxclass" : "message",
									"numinlets" : 2,
									"numoutlets" : 1,
									"outlettype" : [ "" ],
									"patching_rect" : [ 114.5, 518.0, 154.0, 22.0 ],
									"text" : "3-classification-static"
								}

							}
, 							{
								"box" : 								{
									"id" : "obj-51",
									"maxclass" : "message",
									"numinlets" : 2,
									"numoutlets" : 1,
									"outlettype" : [ "" ],
									"patching_rect" : [ 114.5, 471.0, 154.0, 22.0 ],
									"text" : "2-triggering"
								}

							}
, 							{
								"box" : 								{
									"id" : "obj-50",
									"maxclass" : "message",
									"numinlets" : 2,
									"numoutlets" : 1,
									"outlettype" : [ "" ],
									"patching_rect" : [ 114.5, 414.0, 154.0, 22.0 ],
									"text" : "1-motion-descriptors"
								}

							}
, 							{
								"box" : 								{
									"hidden" : 1,
									"id" : "obj-26",
									"maxclass" : "newobj",
									"numinlets" : 1,
									"numoutlets" : 0,
									"patcher" : 									{
										"fileversion" : 1,
										"appversion" : 										{
											"major" : 9,
											"minor" : 0,
											"revision" : 4,
											"architecture" : "x64",
											"modernui" : 1
										}
,
										"classnamespace" : "box",
										"rect" : [ 1146.0, 565.0, 375.0, 367.0 ],
										"gridsize" : [ 15.0, 15.0 ],
										"boxes" : [ 											{
												"box" : 												{
													"id" : "obj-6",
													"maxclass" : "newobj",
													"numinlets" : 1,
													"numoutlets" : 1,
													"outlettype" : [ "" ],
													"patching_rect" : [ 86.0, 88.0, 57.0, 22.0 ],
													"text" : "tosymbol"
												}

											}
, 											{
												"box" : 												{
													"id" : "obj-14",
													"maxclass" : "newobj",
													"numinlets" : 1,
													"numoutlets" : 1,
													"outlettype" : [ "" ],
													"patching_rect" : [ 86.0, 193.0, 53.0, 22.0 ],
													"text" : "pcontrol"
												}

											}
, 											{
												"box" : 												{
													"id" : "obj-13",
													"maxclass" : "newobj",
													"numinlets" : 1,
													"numoutlets" : 1,
													"outlettype" : [ "" ],
													"patching_rect" : [ 86.0, 153.0, 117.0, 22.0 ],
													"text" : "prepend loadunique"
												}

											}
, 											{
												"box" : 												{
													"id" : "obj-3",
													"maxclass" : "newobj",
													"numinlets" : 1,
													"numoutlets" : 1,
													"outlettype" : [ "" ],
													"patching_rect" : [ 86.0, 120.0, 146.0, 22.0 ],
													"text" : "sprintf symout %s.maxpat"
												}

											}
, 											{
												"box" : 												{
													"comment" : "",
													"id" : "obj-1",
													"index" : 1,
													"maxclass" : "inlet",
													"numinlets" : 0,
													"numoutlets" : 1,
													"outlettype" : [ "" ],
													"patching_rect" : [ 86.0, 44.0, 30.0, 30.0 ]
												}

											}
 ],
										"lines" : [ 											{
												"patchline" : 												{
													"destination" : [ "obj-6", 0 ],
													"source" : [ "obj-1", 0 ]
												}

											}
, 											{
												"patchline" : 												{
													"destination" : [ "obj-14", 0 ],
													"source" : [ "obj-13", 0 ]
												}

											}
, 											{
												"patchline" : 												{
													"destination" : [ "obj-13", 0 ],
													"source" : [ "obj-3", 0 ]
												}

											}
, 											{
												"patchline" : 												{
													"destination" : [ "obj-3", 0 ],
													"source" : [ "obj-6", 0 ]
												}

											}
 ],
										"originid" : "pat-9820"
									}
,
									"patching_rect" : [ 114.5, 673.0, 85.0, 22.0 ],
									"saved_object_attributes" : 									{
										"globalpatchername" : ""
									}
,
									"text" : "p load-maxpat"
								}

							}
, 							{
								"box" : 								{
									"id" : "obj-49",
									"maxclass" : "newobj",
									"numinlets" : 2,
									"numoutlets" : 0,
									"patching_rect" : [ 832.0, 848.0, 55.0, 22.0 ],
									"text" : "dac~ 1 2"
								}

							}
, 							{
								"box" : 								{
									"hidden" : 1,
									"id" : "obj-32",
									"maxclass" : "newobj",
									"numinlets" : 1,
									"numoutlets" : 0,
									"patcher" : 									{
										"fileversion" : 1,
										"appversion" : 										{
											"major" : 9,
											"minor" : 0,
											"revision" : 4,
											"architecture" : "x64",
											"modernui" : 1
										}
,
										"classnamespace" : "box",
										"rect" : [ 1146.0, 565.0, 375.0, 367.0 ],
										"gridsize" : [ 15.0, 15.0 ],
										"boxes" : [ 											{
												"box" : 												{
													"id" : "obj-6",
													"maxclass" : "newobj",
													"numinlets" : 1,
													"numoutlets" : 1,
													"outlettype" : [ "" ],
													"patching_rect" : [ 86.0, 88.0, 57.0, 22.0 ],
													"text" : "tosymbol"
												}

											}
, 											{
												"box" : 												{
													"id" : "obj-14",
													"maxclass" : "newobj",
													"numinlets" : 1,
													"numoutlets" : 1,
													"outlettype" : [ "" ],
													"patching_rect" : [ 86.0, 193.0, 53.0, 22.0 ],
													"text" : "pcontrol"
												}

											}
, 											{
												"box" : 												{
													"id" : "obj-13",
													"maxclass" : "newobj",
													"numinlets" : 1,
													"numoutlets" : 1,
													"outlettype" : [ "" ],
													"patching_rect" : [ 86.0, 153.0, 117.0, 22.0 ],
													"text" : "prepend loadunique"
												}

											}
, 											{
												"box" : 												{
													"id" : "obj-3",
													"maxclass" : "newobj",
													"numinlets" : 1,
													"numoutlets" : 1,
													"outlettype" : [ "" ],
													"patching_rect" : [ 86.0, 120.0, 146.0, 22.0 ],
													"text" : "sprintf symout %s.maxpat"
												}

											}
, 											{
												"box" : 												{
													"comment" : "",
													"id" : "obj-1",
													"index" : 1,
													"maxclass" : "inlet",
													"numinlets" : 0,
													"numoutlets" : 1,
													"outlettype" : [ "" ],
													"patching_rect" : [ 86.0, 44.0, 30.0, 30.0 ]
												}

											}
 ],
										"lines" : [ 											{
												"patchline" : 												{
													"destination" : [ "obj-6", 0 ],
													"source" : [ "obj-1", 0 ]
												}

											}
, 											{
												"patchline" : 												{
													"destination" : [ "obj-14", 0 ],
													"source" : [ "obj-13", 0 ]
												}

											}
, 											{
												"patchline" : 												{
													"destination" : [ "obj-13", 0 ],
													"source" : [ "obj-3", 0 ]
												}

											}
, 											{
												"patchline" : 												{
													"destination" : [ "obj-3", 0 ],
													"source" : [ "obj-6", 0 ]
												}

											}
 ],
										"originid" : "pat-9822"
									}
,
									"patching_rect" : [ 508.0, 786.0, 85.0, 22.0 ],
									"saved_object_attributes" : 									{
										"globalpatchername" : ""
									}
,
									"text" : "p load-maxpat"
								}

							}
, 							{
								"box" : 								{
									"bgcolor" : [ 0.847058823529412, 0.6, 0.164705882352941, 1.0 ],
									"bgcolor2" : [ 0.847058823529412, 0.6, 0.164705882352941, 1.0 ],
									"bgfillcolor_angle" : 270.0,
									"bgfillcolor_autogradient" : 0.0,
									"bgfillcolor_color" : [ 0.694117647058824, 0.490196078431373, 0.133333333333333, 1.0 ],
									"bgfillcolor_color1" : [ 0.847058823529412, 0.6, 0.164705882352941, 1.0 ],
									"bgfillcolor_color2" : [ 0.172137149796092, 0.172137100044002, 0.172137113045018, 1.0 ],
									"bgfillcolor_proportion" : 0.5,
									"bgfillcolor_type" : "color",
									"fontname" : "Arial Light",
									"fontsize" : 14.0,
									"gradient" : 1,
									"id" : "obj-33",
									"maxclass" : "message",
									"numinlets" : 2,
									"numoutlets" : 1,
									"outlettype" : [ "" ],
									"patching_rect" : [ 508.0, 759.0, 185.0, 22.0 ],
									"text" : "sound synthesis"
								}

							}
, 							{
								"box" : 								{
									"fontface" : 0,
									"fontname" : "Arial Light",
									"fontsize" : 14.0,
									"id" : "obj-36",
									"maxclass" : "comment",
									"numinlets" : 1,
									"numoutlets" : 0,
									"patching_rect" : [ 508.0, 735.0, 158.0, 20.0 ],
									"text" : "more information about "
								}

							}
, 							{
								"box" : 								{
									"hidden" : 1,
									"id" : "obj-27",
									"maxclass" : "newobj",
									"numinlets" : 1,
									"numoutlets" : 0,
									"patcher" : 									{
										"fileversion" : 1,
										"appversion" : 										{
											"major" : 9,
											"minor" : 0,
											"revision" : 4,
											"architecture" : "x64",
											"modernui" : 1
										}
,
										"classnamespace" : "box",
										"rect" : [ 1146.0, 565.0, 375.0, 367.0 ],
										"gridsize" : [ 15.0, 15.0 ],
										"boxes" : [ 											{
												"box" : 												{
													"id" : "obj-6",
													"maxclass" : "newobj",
													"numinlets" : 1,
													"numoutlets" : 1,
													"outlettype" : [ "" ],
													"patching_rect" : [ 86.0, 88.0, 57.0, 22.0 ],
													"text" : "tosymbol"
												}

											}
, 											{
												"box" : 												{
													"id" : "obj-14",
													"maxclass" : "newobj",
													"numinlets" : 1,
													"numoutlets" : 1,
													"outlettype" : [ "" ],
													"patching_rect" : [ 86.0, 193.0, 53.0, 22.0 ],
													"text" : "pcontrol"
												}

											}
, 											{
												"box" : 												{
													"id" : "obj-13",
													"maxclass" : "newobj",
													"numinlets" : 1,
													"numoutlets" : 1,
													"outlettype" : [ "" ],
													"patching_rect" : [ 86.0, 153.0, 117.0, 22.0 ],
													"text" : "prepend loadunique"
												}

											}
, 											{
												"box" : 												{
													"id" : "obj-3",
													"maxclass" : "newobj",
													"numinlets" : 1,
													"numoutlets" : 1,
													"outlettype" : [ "" ],
													"patching_rect" : [ 86.0, 120.0, 146.0, 22.0 ],
													"text" : "sprintf symout %s.maxpat"
												}

											}
, 											{
												"box" : 												{
													"comment" : "",
													"id" : "obj-1",
													"index" : 1,
													"maxclass" : "inlet",
													"numinlets" : 0,
													"numoutlets" : 1,
													"outlettype" : [ "" ],
													"patching_rect" : [ 86.0, 44.0, 30.0, 30.0 ]
												}

											}
 ],
										"lines" : [ 											{
												"patchline" : 												{
													"destination" : [ "obj-6", 0 ],
													"source" : [ "obj-1", 0 ]
												}

											}
, 											{
												"patchline" : 												{
													"destination" : [ "obj-14", 0 ],
													"source" : [ "obj-13", 0 ]
												}

											}
, 											{
												"patchline" : 												{
													"destination" : [ "obj-13", 0 ],
													"source" : [ "obj-3", 0 ]
												}

											}
, 											{
												"patchline" : 												{
													"destination" : [ "obj-3", 0 ],
													"source" : [ "obj-6", 0 ]
												}

											}
 ],
										"originid" : "pat-9824"
									}
,
									"patching_rect" : [ 508.0, 574.0, 85.0, 22.0 ],
									"saved_object_attributes" : 									{
										"globalpatchername" : ""
									}
,
									"text" : "p load-maxpat"
								}

							}
, 							{
								"box" : 								{
									"bgcolor" : [ 0.847058823529412, 0.6, 0.164705882352941, 1.0 ],
									"bgcolor2" : [ 0.847058823529412, 0.6, 0.164705882352941, 1.0 ],
									"bgfillcolor_angle" : 270.0,
									"bgfillcolor_autogradient" : 0.0,
									"bgfillcolor_color" : [ 0.694117647058824, 0.490196078431373, 0.133333333333333, 1.0 ],
									"bgfillcolor_color1" : [ 0.847058823529412, 0.6, 0.164705882352941, 1.0 ],
									"bgfillcolor_color2" : [ 0.172137149796092, 0.172137100044002, 0.172137113045018, 1.0 ],
									"bgfillcolor_proportion" : 0.5,
									"bgfillcolor_type" : "color",
									"fontname" : "Arial Light",
									"fontsize" : 14.0,
									"gradient" : 1,
									"id" : "obj-28",
									"maxclass" : "message",
									"numinlets" : 2,
									"numoutlets" : 1,
									"outlettype" : [ "" ],
									"patching_rect" : [ 508.0, 547.0, 184.0, 22.0 ],
									"text" : "interactive machine learning"
								}

							}
, 							{
								"box" : 								{
									"fontname" : "Arial Light",
									"fontsize" : 14.0,
									"id" : "obj-30",
									"maxclass" : "comment",
									"numinlets" : 1,
									"numoutlets" : 0,
									"patching_rect" : [ 508.0, 523.0, 158.0, 20.0 ],
									"text" : "more information about "
								}

							}
, 							{
								"box" : 								{
									"hidden" : 1,
									"id" : "obj-23",
									"maxclass" : "newobj",
									"numinlets" : 1,
									"numoutlets" : 0,
									"patcher" : 									{
										"fileversion" : 1,
										"appversion" : 										{
											"major" : 9,
											"minor" : 0,
											"revision" : 4,
											"architecture" : "x64",
											"modernui" : 1
										}
,
										"classnamespace" : "box",
										"rect" : [ 1146.0, 565.0, 375.0, 367.0 ],
										"gridsize" : [ 15.0, 15.0 ],
										"boxes" : [ 											{
												"box" : 												{
													"id" : "obj-6",
													"maxclass" : "newobj",
													"numinlets" : 1,
													"numoutlets" : 1,
													"outlettype" : [ "" ],
													"patching_rect" : [ 86.0, 88.0, 57.0, 22.0 ],
													"text" : "tosymbol"
												}

											}
, 											{
												"box" : 												{
													"id" : "obj-14",
													"maxclass" : "newobj",
													"numinlets" : 1,
													"numoutlets" : 1,
													"outlettype" : [ "" ],
													"patching_rect" : [ 86.0, 193.0, 53.0, 22.0 ],
													"text" : "pcontrol"
												}

											}
, 											{
												"box" : 												{
													"id" : "obj-13",
													"maxclass" : "newobj",
													"numinlets" : 1,
													"numoutlets" : 1,
													"outlettype" : [ "" ],
													"patching_rect" : [ 86.0, 153.0, 117.0, 22.0 ],
													"text" : "prepend loadunique"
												}

											}
, 											{
												"box" : 												{
													"id" : "obj-3",
													"maxclass" : "newobj",
													"numinlets" : 1,
													"numoutlets" : 1,
													"outlettype" : [ "" ],
													"patching_rect" : [ 86.0, 120.0, 146.0, 22.0 ],
													"text" : "sprintf symout %s.maxpat"
												}

											}
, 											{
												"box" : 												{
													"comment" : "",
													"id" : "obj-1",
													"index" : 1,
													"maxclass" : "inlet",
													"numinlets" : 0,
													"numoutlets" : 1,
													"outlettype" : [ "" ],
													"patching_rect" : [ 86.0, 44.0, 30.0, 30.0 ]
												}

											}
 ],
										"lines" : [ 											{
												"patchline" : 												{
													"destination" : [ "obj-6", 0 ],
													"source" : [ "obj-1", 0 ]
												}

											}
, 											{
												"patchline" : 												{
													"destination" : [ "obj-14", 0 ],
													"source" : [ "obj-13", 0 ]
												}

											}
, 											{
												"patchline" : 												{
													"destination" : [ "obj-13", 0 ],
													"source" : [ "obj-3", 0 ]
												}

											}
, 											{
												"patchline" : 												{
													"destination" : [ "obj-3", 0 ],
													"source" : [ "obj-6", 0 ]
												}

											}
 ],
										"originid" : "pat-9826"
									}
,
									"patching_rect" : [ 508.0, 372.0, 85.0, 22.0 ],
									"saved_object_attributes" : 									{
										"globalpatchername" : ""
									}
,
									"text" : "p load-maxpat"
								}

							}
, 							{
								"box" : 								{
									"bgcolor" : [ 0.847058823529412, 0.6, 0.164705882352941, 1.0 ],
									"bgcolor2" : [ 0.847058823529412, 0.6, 0.164705882352941, 1.0 ],
									"bgfillcolor_angle" : 270.0,
									"bgfillcolor_autogradient" : 0.0,
									"bgfillcolor_color" : [ 0.694117647058824, 0.490196078431373, 0.133333333333333, 1.0 ],
									"bgfillcolor_color1" : [ 0.847058823529412, 0.6, 0.164705882352941, 1.0 ],
									"bgfillcolor_color2" : [ 0.172137149796092, 0.172137100044002, 0.172137113045018, 1.0 ],
									"bgfillcolor_proportion" : 0.5,
									"bgfillcolor_type" : "color",
									"fontname" : "Arial Light",
									"fontsize" : 14.0,
									"gradient" : 1,
									"id" : "obj-24",
									"maxclass" : "message",
									"numinlets" : 2,
									"numoutlets" : 1,
									"outlettype" : [ "" ],
									"patching_rect" : [ 508.0, 345.0, 176.0, 22.0 ],
									"text" : "movement analysis"
								}

							}
, 							{
								"box" : 								{
									"fontname" : "Arial Light",
									"fontsize" : 14.0,
									"id" : "obj-25",
									"maxclass" : "comment",
									"numinlets" : 1,
									"numoutlets" : 0,
									"patching_rect" : [ 508.0, 321.0, 158.0, 20.0 ],
									"text" : "more information about "
								}

							}
, 							{
								"box" : 								{
									"hidden" : 1,
									"id" : "obj-58",
									"maxclass" : "newobj",
									"numinlets" : 1,
									"numoutlets" : 0,
									"patcher" : 									{
										"fileversion" : 1,
										"appversion" : 										{
											"major" : 9,
											"minor" : 0,
											"revision" : 4,
											"architecture" : "x64",
											"modernui" : 1
										}
,
										"classnamespace" : "box",
										"rect" : [ 1146.0, 565.0, 375.0, 367.0 ],
										"gridsize" : [ 15.0, 15.0 ],
										"boxes" : [ 											{
												"box" : 												{
													"id" : "obj-6",
													"maxclass" : "newobj",
													"numinlets" : 1,
													"numoutlets" : 1,
													"outlettype" : [ "" ],
													"patching_rect" : [ 86.0, 88.0, 57.0, 22.0 ],
													"text" : "tosymbol"
												}

											}
, 											{
												"box" : 												{
													"id" : "obj-14",
													"maxclass" : "newobj",
													"numinlets" : 1,
													"numoutlets" : 1,
													"outlettype" : [ "" ],
													"patching_rect" : [ 86.0, 193.0, 53.0, 22.0 ],
													"text" : "pcontrol"
												}

											}
, 											{
												"box" : 												{
													"id" : "obj-13",
													"maxclass" : "newobj",
													"numinlets" : 1,
													"numoutlets" : 1,
													"outlettype" : [ "" ],
													"patching_rect" : [ 86.0, 153.0, 117.0, 22.0 ],
													"text" : "prepend loadunique"
												}

											}
, 											{
												"box" : 												{
													"id" : "obj-3",
													"maxclass" : "newobj",
													"numinlets" : 1,
													"numoutlets" : 1,
													"outlettype" : [ "" ],
													"patching_rect" : [ 86.0, 120.0, 146.0, 22.0 ],
													"text" : "sprintf symout %s.maxpat"
												}

											}
, 											{
												"box" : 												{
													"comment" : "",
													"id" : "obj-1",
													"index" : 1,
													"maxclass" : "inlet",
													"numinlets" : 0,
													"numoutlets" : 1,
													"outlettype" : [ "" ],
													"patching_rect" : [ 86.0, 44.0, 30.0, 30.0 ]
												}

											}
 ],
										"lines" : [ 											{
												"patchline" : 												{
													"destination" : [ "obj-6", 0 ],
													"source" : [ "obj-1", 0 ]
												}

											}
, 											{
												"patchline" : 												{
													"destination" : [ "obj-14", 0 ],
													"source" : [ "obj-13", 0 ]
												}

											}
, 											{
												"patchline" : 												{
													"destination" : [ "obj-13", 0 ],
													"source" : [ "obj-3", 0 ]
												}

											}
, 											{
												"patchline" : 												{
													"destination" : [ "obj-3", 0 ],
													"source" : [ "obj-6", 0 ]
												}

											}
 ],
										"originid" : "pat-9828"
									}
,
									"patching_rect" : [ 508.0, 166.0, 85.0, 22.0 ],
									"saved_object_attributes" : 									{
										"globalpatchername" : ""
									}
,
									"text" : "p load-maxpat"
								}

							}
, 							{
								"box" : 								{
									"bgcolor" : [ 0.847058823529412, 0.6, 0.164705882352941, 1.0 ],
									"bgcolor2" : [ 0.847058823529412, 0.6, 0.164705882352941, 1.0 ],
									"bgfillcolor_angle" : 270.0,
									"bgfillcolor_autogradient" : 0.0,
									"bgfillcolor_color" : [ 0.694117647058824, 0.490196078431373, 0.133333333333333, 1.0 ],
									"bgfillcolor_color1" : [ 0.847058823529412, 0.6, 0.164705882352941, 1.0 ],
									"bgfillcolor_color2" : [ 0.172137149796092, 0.172137100044002, 0.172137113045018, 1.0 ],
									"bgfillcolor_proportion" : 0.5,
									"bgfillcolor_type" : "color",
									"fontname" : "Arial Light",
									"fontsize" : 14.0,
									"gradient" : 1,
									"id" : "obj-22",
									"maxclass" : "message",
									"numinlets" : 2,
									"numoutlets" : 1,
									"outlettype" : [ "" ],
									"patching_rect" : [ 508.0, 139.0, 179.0, 22.0 ],
									"text" : "input interfaces"
								}

							}
, 							{
								"box" : 								{
									"fontname" : "Arial Light",
									"fontsize" : 14.0,
									"id" : "obj-20",
									"maxclass" : "comment",
									"numinlets" : 1,
									"numoutlets" : 0,
									"patching_rect" : [ 508.0, 115.0, 158.0, 20.0 ],
									"text" : "more information about "
								}

							}
, 							{
								"box" : 								{
									"fontsize" : 9.0,
									"id" : "obj-14",
									"maxclass" : "newobj",
									"numinlets" : 1,
									"numoutlets" : 1,
									"outlettype" : [ "" ],
									"patching_rect" : [ 1054.0, 663.0, 120.0, 19.0 ],
									"text" : "loadmess C74:/media/msp"
								}

							}
, 							{
								"box" : 								{
									"id" : "obj-9",
									"maxclass" : "newobj",
									"numinlets" : 1,
									"numoutlets" : 2,
									"outlettype" : [ "float", "float" ],
									"patching_rect" : [ 1147.0, 385.5, 61.0, 22.0 ],
									"text" : "unpack f f"
								}

							}
, 							{
								"box" : 								{
									"fontsize" : 18.0,
									"id" : "obj-47",
									"maxclass" : "comment",
									"numinlets" : 1,
									"numoutlets" : 0,
									"patching_rect" : [ 31.0, 113.0, 343.0, 27.0 ],
									"text" : "A minimal set of modules for testing ideas"
								}

							}
, 							{
								"box" : 								{
									"fontname" : "Helvetica Neue Light",
									"fontsize" : 23.899999999999999,
									"id" : "obj-46",
									"maxclass" : "comment",
									"numinlets" : 1,
									"numoutlets" : 0,
									"patching_rect" : [ 1009.0, 12.0, 226.0, 35.0 ],
									"text" : "Prototype Example"
								}

							}
, 							{
								"box" : 								{
									"fontname" : "Helvetica Neue Light",
									"fontsize" : 14.0,
									"id" : "obj-44",
									"maxclass" : "comment",
									"numinlets" : 1,
									"numoutlets" : 0,
									"patching_rect" : [ 31.0, 206.0, 308.0, 23.0 ],
									"text" : "More information at "
								}

							}
, 							{
								"box" : 								{
									"fontsize" : 18.0,
									"id" : "obj-34",
									"linecount" : 2,
									"maxclass" : "comment",
									"numinlets" : 1,
									"numoutlets" : 0,
									"patching_rect" : [ 31.0, 57.0, 326.0, 47.0 ],
									"text" : "Toolkit for prototyping gesture-to-sound scenarios using the MuBu package"
								}

							}
, 							{
								"box" : 								{
									"id" : "obj-37",
									"maxclass" : "message",
									"numinlets" : 2,
									"numoutlets" : 1,
									"outlettype" : [ "" ],
									"patching_rect" : [ 288.0, 878.0, 50.0, 22.0 ]
								}

							}
, 							{
								"box" : 								{
									"id" : "obj-38",
									"maxclass" : "message",
									"numinlets" : 2,
									"numoutlets" : 1,
									"outlettype" : [ "" ],
									"patching_rect" : [ 223.0, 878.0, 50.0, 22.0 ]
								}

							}
, 							{
								"box" : 								{
									"id" : "obj-39",
									"maxclass" : "message",
									"numinlets" : 2,
									"numoutlets" : 1,
									"outlettype" : [ "" ],
									"patching_rect" : [ 95.0, 878.0, 50.0, 22.0 ]
								}

							}
, 							{
								"box" : 								{
									"id" : "obj-41",
									"maxclass" : "message",
									"numinlets" : 2,
									"numoutlets" : 1,
									"outlettype" : [ "" ],
									"patching_rect" : [ 158.0, 878.0, 50.0, 22.0 ]
								}

							}
, 							{
								"box" : 								{
									"id" : "obj-42",
									"maxclass" : "message",
									"numinlets" : 2,
									"numoutlets" : 1,
									"outlettype" : [ "" ],
									"patching_rect" : [ 34.0, 878.0, 50.0, 22.0 ]
								}

							}
, 							{
								"box" : 								{
									"fontname" : "Helvetica Neue Light Italic",
									"fontsize" : 14.0,
									"id" : "obj-45",
									"maxclass" : "comment",
									"numinlets" : 1,
									"numoutlets" : 0,
									"patching_rect" : [ 151.0, 207.0, 287.0, 23.0 ],
									"text" : " https://forum.ircam.fr/projects/detail/mubu/"
								}

							}
, 							{
								"box" : 								{
									"annotation" : " https://forum.ircam.fr/projemcts/detail/mubu/",
									"handoff" : "",
									"id" : "obj-43",
									"maxclass" : "ubutton",
									"numinlets" : 1,
									"numoutlets" : 4,
									"outlettype" : [ "bang", "bang", "", "int" ],
									"parameter_enable" : 0,
									"patching_rect" : [ 157.0, 208.0, 267.0, 22.0 ]
								}

							}
, 							{
								"box" : 								{
									"fontname" : "Arial",
									"fontsize" : 10.0,
									"hidden" : 1,
									"id" : "obj-77",
									"linecount" : 3,
									"maxclass" : "message",
									"numinlets" : 2,
									"numoutlets" : 1,
									"outlettype" : [ "" ],
									"patching_rect" : [ 157.0, 235.0, 196.0, 42.0 ],
									"text" : ";\rmax launchbrowser https://forum.ircam.fr/projects/detail/mubu/"
								}

							}
, 							{
								"box" : 								{
									"bgcolor" : [ 0.6, 0.678431, 0.756863, 0.0 ],
									"bgmode" : 2,
									"border" : 1,
									"clickthrough" : 0,
									"enablehscroll" : 0,
									"enablevscroll" : 0,
									"id" : "obj-12",
									"lockeddragscroll" : 0,
									"lockedsize" : 0,
									"maxclass" : "bpatcher",
									"name" : "in.comote.maxpat",
									"numinlets" : 6,
									"numoutlets" : 6,
									"offset" : [ -7.0, -5.0 ],
									"outlettype" : [ "", "", "", "", "", "" ],
									"patching_rect" : [ 744.0, 73.0, 163.0, 132.56695556640625 ],
									"viewvisibility" : 1
								}

							}
, 							{
								"box" : 								{
									"fontname" : "Helvetica Neue Light",
									"fontsize" : 14.0,
									"id" : "obj-35",
									"linecount" : 2,
									"maxclass" : "comment",
									"numinlets" : 1,
									"numoutlets" : 0,
									"patching_rect" : [ 31.0, 153.0, 343.0, 40.0 ],
									"text" : "Requires the MuBu packag available from the Cycling'74 package manager. "
								}

							}
, 							{
								"box" : 								{
									"bgcolor" : [ 0.65045, 0.65045, 0.65045, 0.0 ],
									"bgmode" : 1,
									"border" : 1,
									"clickthrough" : 0,
									"enablehscroll" : 0,
									"enablevscroll" : 0,
									"id" : "obj-48",
									"lockeddragscroll" : 0,
									"lockedsize" : 0,
									"maxclass" : "bpatcher",
									"name" : "gst.recorddata.maxpat",
									"numinlets" : 6,
									"numoutlets" : 3,
									"offset" : [ -2.0, -4.0 ],
									"outlettype" : [ "", "", "" ],
									"patching_rect" : [ 946.0, 73.0, 505.79486083984375, 132.56695556640625 ],
									"viewvisibility" : 1
								}

							}
, 							{
								"box" : 								{
									"bgmode" : 0,
									"border" : 1,
									"clickthrough" : 0,
									"enablehscroll" : 0,
									"enablevscroll" : 0,
									"id" : "obj-2",
									"lockeddragscroll" : 0,
									"lockedsize" : 0,
									"maxclass" : "bpatcher",
									"name" : "ml.classification.hhmm.maxpat",
									"numinlets" : 8,
									"numoutlets" : 3,
									"offset" : [ 0.0, -3.0 ],
									"outlettype" : [ "", "", "" ],
									"patching_rect" : [ 744.0, 441.5, 307.494384765625, 188.0 ],
									"viewvisibility" : 1
								}

							}
, 							{
								"box" : 								{
									"bgcolor" : [ 0.819608, 0.819608, 0.819608, 0.0 ],
									"bgmode" : 2,
									"border" : 1,
									"clickthrough" : 0,
									"enablehscroll" : 0,
									"enablevscroll" : 0,
									"id" : "obj-31",
									"lockeddragscroll" : 0,
									"lockedsize" : 0,
									"maxclass" : "bpatcher",
									"name" : "sp.orientation.maxpat",
									"numinlets" : 2,
									"numoutlets" : 2,
									"offset" : [ 0.0, 0.0 ],
									"outlettype" : [ "", "" ],
									"patching_rect" : [ 744.0, 265.0, 133.0, 116.319091796875 ],
									"viewvisibility" : 1
								}

							}
, 							{
								"box" : 								{
									"fontname" : "Arial Light",
									"fontsize" : 23.865383000000001,
									"id" : "obj-29",
									"linecount" : 2,
									"maxclass" : "comment",
									"numinlets" : 1,
									"numoutlets" : 0,
									"patching_rect" : [ 508.0, 458.0, 207.0, 54.0 ],
									"text" : "Interactive Machine Learning"
								}

							}
, 							{
								"box" : 								{
									"fontname" : "Helvetica Neue Medium",
									"fontsize" : 25.41419792175293,
									"id" : "obj-56",
									"maxclass" : "comment",
									"numinlets" : 1,
									"numoutlets" : 0,
									"patching_rect" : [ 31.0, 11.0, 326.0, 37.0 ],
									"text" : "Gestural Sound Toolkit V2 "
								}

							}
, 							{
								"box" : 								{
									"bgcolor" : [ 0.823529, 0.823529, 0.823529, 0.0 ],
									"bgmode" : 2,
									"border" : 1,
									"clickthrough" : 0,
									"enablehscroll" : 0,
									"enablevscroll" : 0,
									"id" : "obj-15",
									"lockeddragscroll" : 0,
									"lockedsize" : 0,
									"maxclass" : "bpatcher",
									"name" : "synth.scratch.samples.maxpat",
									"numinlets" : 5,
									"numoutlets" : 2,
									"offset" : [ 0.0, 0.0 ],
									"outlettype" : [ "signal", "signal" ],
									"patching_rect" : [ 832.0, 693.0, 240.79486083984375, 145.891738891601562 ],
									"viewvisibility" : 1
								}

							}
, 							{
								"box" : 								{
									"fontname" : "Arial Light",
									"fontsize" : 23.865383000000001,
									"id" : "obj-19",
									"maxclass" : "comment",
									"numinlets" : 1,
									"numoutlets" : 0,
									"patching_rect" : [ 505.0, 698.0, 190.0, 30.0 ],
									"text" : "Sound Synthesis"
								}

							}
, 							{
								"box" : 								{
									"fontname" : "Arial Light",
									"fontsize" : 23.865383000000001,
									"id" : "obj-11",
									"linecount" : 2,
									"maxclass" : "comment",
									"numinlets" : 1,
									"numoutlets" : 0,
									"patching_rect" : [ 508.0, 256.0, 178.0, 54.0 ],
									"text" : "Movement Analysis"
								}

							}
, 							{
								"box" : 								{
									"fontname" : "Arial Light",
									"fontsize" : 23.899999999999999,
									"id" : "obj-10",
									"maxclass" : "comment",
									"numinlets" : 1,
									"numoutlets" : 0,
									"patching_rect" : [ 506.0, 73.0, 188.0, 30.0 ],
									"text" : "Input Interfaces"
								}

							}
, 							{
								"box" : 								{
									"bgcolor" : [ 0.819608, 0.819608, 0.819608, 0.0 ],
									"bgmode" : 2,
									"border" : 1,
									"clickthrough" : 0,
									"enablehscroll" : 0,
									"enablevscroll" : 0,
									"id" : "obj-3",
									"lockeddragscroll" : 0,
									"lockedsize" : 0,
									"maxclass" : "bpatcher",
									"name" : "sp.kick.maxpat",
									"numinlets" : 4,
									"numoutlets" : 3,
									"offset" : [ 0.0, -5.0 ],
									"outlettype" : [ "", "int", "" ],
									"patching_rect" : [ 1301.0, 265.0, 135.0, 121.0 ],
									"viewvisibility" : 1
								}

							}
, 							{
								"box" : 								{
									"bgcolor" : [ 0.819608, 0.819608, 0.819608, 0.0 ],
									"bgmode" : 2,
									"border" : 1,
									"clickthrough" : 0,
									"enablehscroll" : 0,
									"enablevscroll" : 0,
									"id" : "obj-1",
									"lockeddragscroll" : 0,
									"lockedsize" : 0,
									"maxclass" : "bpatcher",
									"name" : "sp.acc.intensity.maxpat",
									"numinlets" : 3,
									"numoutlets" : 4,
									"offset" : [ 0.0, 0.0 ],
									"outlettype" : [ "", "float", "float", "float" ],
									"patching_rect" : [ 1147.0, 265.0, 133.731216430664062, 116.347579956054688 ],
									"viewvisibility" : 1
								}

							}
, 							{
								"box" : 								{
									"angle" : 270.0,
									"background" : 1,
									"bgcolor" : [ 0.172137149796092, 0.172137100044002, 0.172137113045018, 0.0 ],
									"border" : 2,
									"bordercolor" : [ 0.847058823529412, 0.6, 0.164705882352941, 1.0 ],
									"id" : "obj-55",
									"maxclass" : "panel",
									"mode" : 0,
									"numinlets" : 1,
									"numoutlets" : 0,
									"patching_rect" : [ 85.5, 345.0, 217.0, 397.0 ],
									"proportion" : 0.5
								}

							}
, 							{
								"box" : 								{
									"angle" : 270.0,
									"background" : 1,
									"bgcolor" : [ 0.172137149796092, 0.172137100044002, 0.172137113045018, 0.0 ],
									"border" : 2,
									"bordercolor" : [ 0.847058823529412, 0.6, 0.164705882352941, 1.0 ],
									"id" : "obj-6",
									"maxclass" : "panel",
									"mode" : 0,
									"numinlets" : 1,
									"numoutlets" : 0,
									"patching_rect" : [ 721.0, 652.0, 748.0, 233.0 ],
									"proportion" : 0.5
								}

							}
, 							{
								"box" : 								{
									"angle" : 270.0,
									"background" : 1,
									"bgcolor" : [ 0.172137149796092, 0.172137100044002, 0.172137113045018, 0.0 ],
									"border" : 2,
									"bordercolor" : [ 0.847058823529412, 0.6, 0.164705882352941, 1.0 ],
									"id" : "obj-4",
									"maxclass" : "panel",
									"mode" : 0,
									"numinlets" : 1,
									"numoutlets" : 0,
									"patching_rect" : [ 722.0, 429.5, 747.0, 213.0 ],
									"proportion" : 0.5
								}

							}
, 							{
								"box" : 								{
									"angle" : 270.0,
									"background" : 1,
									"bgcolor" : [ 0.172137149796092, 0.172137100044002, 0.172137113045018, 0.0 ],
									"border" : 2,
									"bordercolor" : [ 0.847058823529412, 0.6, 0.164705882352941, 1.0 ],
									"id" : "obj-8",
									"maxclass" : "panel",
									"mode" : 0,
									"numinlets" : 1,
									"numoutlets" : 0,
									"patching_rect" : [ 722.0, 252.0, 747.0, 168.0 ],
									"proportion" : 0.5
								}

							}
, 							{
								"box" : 								{
									"angle" : 270.0,
									"background" : 1,
									"bgcolor" : [ 0.172137149796092, 0.172137100044002, 0.172137113045018, 0.0 ],
									"border" : 2,
									"bordercolor" : [ 0.847058823529412, 0.6, 0.164705882352941, 1.0 ],
									"id" : "obj-7",
									"maxclass" : "panel",
									"mode" : 0,
									"numinlets" : 1,
									"numoutlets" : 0,
									"patching_rect" : [ 724.0, 52.0, 745.0, 191.0 ],
									"proportion" : 0.5
								}

							}
 ],
						"lines" : [ 							{
								"patchline" : 								{
									"destination" : [ "obj-9", 0 ],
									"source" : [ "obj-1", 0 ]
								}

							}
, 							{
								"patchline" : 								{
									"destination" : [ "obj-1", 0 ],
									"midpoints" : [ 753.5, 228.446170806884766, 1156.5, 228.446170806884766 ],
									"order" : 2,
									"source" : [ "obj-12", 0 ]
								}

							}
, 							{
								"patchline" : 								{
									"destination" : [ "obj-31", 1 ],
									"midpoints" : [ 782.299999999999955, 210.895389556884766, 867.5, 210.895389556884766 ],
									"order" : 0,
									"source" : [ "obj-12", 1 ]
								}

							}
, 							{
								"patchline" : 								{
									"destination" : [ "obj-31", 0 ],
									"midpoints" : [ 753.5, 232.317264556884766, 753.5, 232.317264556884766 ],
									"order" : 1,
									"source" : [ "obj-12", 0 ]
								}

							}
, 							{
								"patchline" : 								{
									"destination" : [ "obj-48", 1 ],
									"midpoints" : [ 782.299999999999955, 211.667381286621094, 926.17948608398433, 211.667381286621094, 926.17948608398433, 62.467613220214844, 1052.858972167968659, 62.467613220214844 ],
									"order" : 1,
									"source" : [ "obj-12", 1 ]
								}

							}
, 							{
								"patchline" : 								{
									"destination" : [ "obj-48", 0 ],
									"midpoints" : [ 753.5, 218.534568786621094, 934.5, 218.534568786621094, 934.5, 66.467613220214844, 955.5, 66.467613220214844 ],
									"order" : 0,
									"source" : [ "obj-12", 0 ]
								}

							}
, 							{
								"patchline" : 								{
									"destination" : [ "obj-40", 1 ],
									"source" : [ "obj-13", 0 ]
								}

							}
, 							{
								"patchline" : 								{
									"destination" : [ "obj-15", 4 ],
									"source" : [ "obj-14", 0 ]
								}

							}
, 							{
								"patchline" : 								{
									"destination" : [ "obj-49", 1 ],
									"source" : [ "obj-15", 1 ]
								}

							}
, 							{
								"patchline" : 								{
									"destination" : [ "obj-49", 0 ],
									"source" : [ "obj-15", 0 ]
								}

							}
, 							{
								"patchline" : 								{
									"destination" : [ "obj-48", 4 ],
									"hidden" : 1,
									"source" : [ "obj-16", 0 ]
								}

							}
, 							{
								"patchline" : 								{
									"destination" : [ "obj-15", 1 ],
									"source" : [ "obj-2", 1 ]
								}

							}
, 							{
								"patchline" : 								{
									"destination" : [ "obj-2", 7 ],
									"hidden" : 1,
									"source" : [ "obj-21", 0 ]
								}

							}
, 							{
								"patchline" : 								{
									"destination" : [ "obj-58", 0 ],
									"hidden" : 1,
									"source" : [ "obj-22", 0 ]
								}

							}
, 							{
								"patchline" : 								{
									"destination" : [ "obj-23", 0 ],
									"hidden" : 1,
									"source" : [ "obj-24", 0 ]
								}

							}
, 							{
								"patchline" : 								{
									"destination" : [ "obj-27", 0 ],
									"hidden" : 1,
									"source" : [ "obj-28", 0 ]
								}

							}
, 							{
								"patchline" : 								{
									"destination" : [ "obj-13", 0 ],
									"order" : 0,
									"source" : [ "obj-3", 2 ]
								}

							}
, 							{
								"patchline" : 								{
									"destination" : [ "obj-40", 0 ],
									"order" : 1,
									"source" : [ "obj-3", 2 ]
								}

							}
, 							{
								"patchline" : 								{
									"destination" : [ "obj-2", 0 ],
									"source" : [ "obj-31", 0 ]
								}

							}
, 							{
								"patchline" : 								{
									"destination" : [ "obj-32", 0 ],
									"hidden" : 1,
									"source" : [ "obj-33", 0 ]
								}

							}
, 							{
								"patchline" : 								{
									"destination" : [ "obj-49", 1 ],
									"order" : 0,
									"source" : [ "obj-40", 0 ]
								}

							}
, 							{
								"patchline" : 								{
									"destination" : [ "obj-49", 0 ],
									"order" : 1,
									"source" : [ "obj-40", 0 ]
								}

							}
, 							{
								"patchline" : 								{
									"destination" : [ "obj-77", 0 ],
									"hidden" : 1,
									"source" : [ "obj-43", 0 ]
								}

							}
, 							{
								"patchline" : 								{
									"destination" : [ "obj-1", 0 ],
									"midpoints" : [ 955.5, 226.482696533203125, 1156.5, 226.482696533203125 ],
									"order" : 1,
									"source" : [ "obj-48", 0 ]
								}

							}
, 							{
								"patchline" : 								{
									"destination" : [ "obj-31", 1 ],
									"midpoints" : [ 1198.897430419921875, 228.107696533203125, 867.5, 228.107696533203125 ],
									"source" : [ "obj-48", 1 ]
								}

							}
, 							{
								"patchline" : 								{
									"destination" : [ "obj-31", 0 ],
									"midpoints" : [ 955.5, 227.392852783203125, 753.5, 227.392852783203125 ],
									"order" : 0,
									"source" : [ "obj-48", 0 ]
								}

							}
, 							{
								"patchline" : 								{
									"destination" : [ "obj-48", 5 ],
									"hidden" : 1,
									"source" : [ "obj-5", 0 ]
								}

							}
, 							{
								"patchline" : 								{
									"destination" : [ "obj-26", 0 ],
									"hidden" : 1,
									"source" : [ "obj-50", 0 ]
								}

							}
, 							{
								"patchline" : 								{
									"destination" : [ "obj-26", 0 ],
									"hidden" : 1,
									"source" : [ "obj-51", 0 ]
								}

							}
, 							{
								"patchline" : 								{
									"destination" : [ "obj-26", 0 ],
									"hidden" : 1,
									"source" : [ "obj-52", 0 ]
								}

							}
, 							{
								"patchline" : 								{
									"destination" : [ "obj-26", 0 ],
									"hidden" : 1,
									"source" : [ "obj-53", 0 ]
								}

							}
, 							{
								"patchline" : 								{
									"destination" : [ "obj-26", 0 ],
									"hidden" : 1,
									"source" : [ "obj-54", 0 ]
								}

							}
, 							{
								"patchline" : 								{
									"destination" : [ "obj-40", 5 ],
									"source" : [ "obj-59", 0 ]
								}

							}
, 							{
								"patchline" : 								{
									"destination" : [ "obj-15", 0 ],
									"order" : 1,
									"source" : [ "obj-61", 0 ]
								}

							}
, 							{
								"patchline" : 								{
									"destination" : [ "obj-62", 0 ],
									"order" : 0,
									"source" : [ "obj-61", 0 ]
								}

							}
, 							{
								"patchline" : 								{
									"destination" : [ "obj-15", 3 ],
									"source" : [ "obj-62", 0 ]
								}

							}
, 							{
								"patchline" : 								{
									"destination" : [ "obj-3", 0 ],
									"midpoints" : [ 1198.5, 417.5, 1289.8671875, 417.5, 1289.8671875, 255.0, 1310.5, 255.0 ],
									"source" : [ "obj-9", 1 ]
								}

							}
 ],
						"originid" : "pat-9764"
					}
,
					"patching_rect" : [ 74.0, 29.0, 66.0, 22.0 ],
					"saved_object_attributes" : 					{
						"globalpatchername" : ""
					}
,
					"text" : "p overview"
				}

			}
, 			{
				"box" : 				{
					"id" : "obj-1",
					"maxclass" : "newobj",
					"numinlets" : 0,
					"numoutlets" : 0,
					"patcher" : 					{
						"fileversion" : 1,
						"appversion" : 						{
							"major" : 9,
							"minor" : 0,
							"revision" : 4,
							"architecture" : "x64",
							"modernui" : 1
						}
,
						"classnamespace" : "box",
						"rect" : [ 0.0, 26.0, 1527.0, 932.0 ],
						"gridsize" : [ 15.0, 15.0 ],
						"showontab" : 1,
						"boxes" : [ 							{
								"box" : 								{
									"fontsize" : 18.0,
									"id" : "obj-34",
									"maxclass" : "comment",
									"numinlets" : 1,
									"numoutlets" : 0,
									"patching_rect" : [ 46.0, 104.0, 326.0, 27.0 ],
									"text" : "Examples"
								}

							}
, 							{
								"box" : 								{
									"fontname" : "Helvetica Neue Medium",
									"fontsize" : 25.41419792175293,
									"id" : "obj-56",
									"maxclass" : "comment",
									"numinlets" : 1,
									"numoutlets" : 0,
									"patching_rect" : [ 46.0, 26.0, 326.0, 37.0 ],
									"text" : "Gestural Sound Toolkit V2 "
								}

							}
, 							{
								"box" : 								{
									"id" : "obj-5",
									"maxclass" : "newobj",
									"numinlets" : 0,
									"numoutlets" : 0,
									"patching_rect" : [ 46.0, 307.0, 204.0, 22.0 ],
									"text" : "5-regression-nXm-mapping.maxpat"
								}

							}
, 							{
								"box" : 								{
									"id" : "obj-4",
									"maxclass" : "newobj",
									"numinlets" : 0,
									"numoutlets" : 0,
									"patching_rect" : [ 46.0, 267.0, 204.0, 22.0 ],
									"text" : "4-classification-dynamic.maxpat"
								}

							}
, 							{
								"box" : 								{
									"id" : "obj-3",
									"maxclass" : "newobj",
									"numinlets" : 0,
									"numoutlets" : 0,
									"patching_rect" : [ 46.0, 228.0, 204.0, 22.0 ],
									"text" : "3-classification-static.maxpat"
								}

							}
, 							{
								"box" : 								{
									"id" : "obj-2",
									"maxclass" : "newobj",
									"numinlets" : 0,
									"numoutlets" : 0,
									"patching_rect" : [ 47.0, 190.0, 203.0, 22.0 ],
									"text" : "2-triggering.maxpat"
								}

							}
, 							{
								"box" : 								{
									"id" : "obj-1",
									"maxclass" : "newobj",
									"numinlets" : 0,
									"numoutlets" : 0,
									"patching_rect" : [ 46.0, 152.0, 204.0, 22.0 ],
									"text" : "1-motion-descriptors.maxpat"
								}

							}
 ],
						"lines" : [  ],
						"originid" : "pat-9926"
					}
,
					"patching_rect" : [ 93.5, 60.0, 70.0, 22.0 ],
					"saved_object_attributes" : 					{
						"globalpatchername" : ""
					}
,
					"text" : "p examples"
				}

			}
 ],
		"lines" : [  ],
		"originid" : "pat-9760",
		"parameters" : 		{
			"obj-1::obj-1::obj-12::obj-55" : [ "live.text[53]", "live.text", 0 ],
			"obj-1::obj-1::obj-12::obj-56" : [ "live.text[52]", "live.text", 0 ],
			"obj-1::obj-1::obj-12::obj-60" : [ "live.text[54]", "live.text[3]", 0 ],
			"obj-1::obj-1::obj-26::obj-2" : [ "live.gain~[5]", "live.gain~[4]", 0 ],
			"obj-1::obj-1::obj-60::obj-2" : [ "live.gain~[2]", "live.gain~", 0 ],
			"obj-1::obj-2::obj-12::obj-55" : [ "live.text[56]", "live.text", 0 ],
			"obj-1::obj-2::obj-12::obj-56" : [ "live.text[41]", "live.text", 0 ],
			"obj-1::obj-2::obj-12::obj-60" : [ "live.text[55]", "live.text[3]", 0 ],
			"obj-1::obj-2::obj-25::obj-13" : [ "live.toggle[18]", "live.toggle", 0 ],
			"obj-1::obj-2::obj-25::obj-8::obj-17" : [ "live.toggle[14]", "live.toggle[1]", 0 ],
			"obj-1::obj-2::obj-26::obj-2" : [ "live.gain~[28]", "live.gain~[4]", 0 ],
			"obj-1::obj-2::obj-31::obj-18::obj-88" : [ "live.toggle[32]", "live.toggle", 0 ],
			"obj-1::obj-2::obj-31::obj-18::obj-92" : [ "live.toggle[8]", "live.toggle", 0 ],
			"obj-1::obj-2::obj-31::obj-22" : [ "live.gain~[17]", "live.gain~", 0 ],
			"obj-1::obj-2::obj-3::obj-4" : [ "live.button[3]", "live.button", 0 ],
			"obj-1::obj-2::obj-40::obj-2" : [ "live.gain~[1]", "live.gain~", 0 ],
			"obj-1::obj-3::obj-10::obj-55" : [ "live.text[37]", "live.text", 0 ],
			"obj-1::obj-3::obj-10::obj-56" : [ "live.text[36]", "live.text", 0 ],
			"obj-1::obj-3::obj-10::obj-60" : [ "live.text[35]", "live.text[3]", 0 ],
			"obj-1::obj-3::obj-12::obj-18::obj-88" : [ "live.toggle[24]", "live.toggle", 0 ],
			"obj-1::obj-3::obj-12::obj-18::obj-92" : [ "live.toggle[25]", "live.toggle", 0 ],
			"obj-1::obj-3::obj-12::obj-22" : [ "live.gain~[12]", "live.gain~", 0 ],
			"obj-1::obj-3::obj-17" : [ "regularization", "regularization", 0 ],
			"obj-1::obj-3::obj-25::obj-18::obj-88" : [ "live.toggle[30]", "live.toggle", 0 ],
			"obj-1::obj-3::obj-25::obj-18::obj-92" : [ "live.toggle[31]", "live.toggle", 0 ],
			"obj-1::obj-3::obj-25::obj-22" : [ "live.gain~[26]", "live.gain~", 0 ],
			"obj-1::obj-3::obj-26::obj-2" : [ "live.gain~[13]", "live.gain~[4]", 0 ],
			"obj-1::obj-3::obj-2::obj-18::obj-88" : [ "live.toggle[29]", "live.toggle", 0 ],
			"obj-1::obj-3::obj-2::obj-18::obj-92" : [ "live.toggle[28]", "live.toggle", 0 ],
			"obj-1::obj-3::obj-2::obj-22" : [ "live.gain~[14]", "live.gain~", 0 ],
			"obj-1::obj-3::obj-3::obj-18::obj-88" : [ "live.toggle[7]", "live.toggle", 0 ],
			"obj-1::obj-3::obj-3::obj-18::obj-92" : [ "live.toggle[6]", "live.toggle", 0 ],
			"obj-1::obj-3::obj-3::obj-22" : [ "live.gain~[15]", "live.gain~", 0 ],
			"obj-1::obj-4::obj-10::obj-55" : [ "live.text[32]", "live.text", 0 ],
			"obj-1::obj-4::obj-10::obj-56" : [ "live.text[33]", "live.text", 0 ],
			"obj-1::obj-4::obj-10::obj-60" : [ "live.text[34]", "live.text[3]", 0 ],
			"obj-1::obj-4::obj-12::obj-18::obj-88" : [ "live.toggle[27]", "live.toggle", 0 ],
			"obj-1::obj-4::obj-12::obj-18::obj-92" : [ "live.toggle[15]", "live.toggle", 0 ],
			"obj-1::obj-4::obj-12::obj-22" : [ "live.gain~[24]", "live.gain~", 0 ],
			"obj-1::obj-4::obj-25" : [ "regularization[1]", "regularization", 0 ],
			"obj-1::obj-4::obj-26::obj-2" : [ "live.gain~[25]", "live.gain~[4]", 0 ],
			"obj-1::obj-5::obj-15::obj-2" : [ "live.gain~[29]", "live.gain~[4]", 0 ],
			"obj-1::obj-5::obj-19" : [ "regularization[2]", "regularization", 0 ],
			"obj-1::obj-5::obj-2::obj-55" : [ "live.text[59]", "live.text", 0 ],
			"obj-1::obj-5::obj-2::obj-56" : [ "live.text[58]", "live.text", 0 ],
			"obj-1::obj-5::obj-2::obj-60" : [ "live.text[57]", "live.text[3]", 0 ],
			"obj-1::obj-5::obj-40::obj-2" : [ "live.gain~[18]", "live.gain~", 0 ],
			"obj-3::obj-12::obj-55" : [ "live.text[8]", "live.text", 0 ],
			"obj-3::obj-12::obj-56" : [ "live.text[7]", "live.text", 0 ],
			"obj-3::obj-12::obj-60" : [ "live.text[6]", "live.text[3]", 0 ],
			"obj-3::obj-15::obj-18::obj-88" : [ "live.toggle[23]", "live.toggle", 0 ],
			"obj-3::obj-15::obj-18::obj-92" : [ "live.toggle[22]", "live.toggle", 0 ],
			"obj-3::obj-15::obj-22" : [ "live.gain~[11]", "live.gain~", 0 ],
			"obj-3::obj-3::obj-4" : [ "live.button[2]", "live.button", 0 ],
			"obj-3::obj-40::obj-2" : [ "live.gain~[19]", "live.gain~", 0 ],
			"parameterbanks" : 			{

			}
,
			"parameter_overrides" : 			{
				"obj-1::obj-1::obj-12::obj-55" : 				{
					"parameter_longname" : "live.text[53]"
				}
,
				"obj-1::obj-1::obj-12::obj-56" : 				{
					"parameter_longname" : "live.text[52]"
				}
,
				"obj-1::obj-1::obj-12::obj-60" : 				{
					"parameter_longname" : "live.text[54]"
				}
,
				"obj-1::obj-2::obj-12::obj-55" : 				{
					"parameter_longname" : "live.text[56]"
				}
,
				"obj-1::obj-2::obj-12::obj-56" : 				{
					"parameter_longname" : "live.text[41]"
				}
,
				"obj-1::obj-2::obj-12::obj-60" : 				{
					"parameter_longname" : "live.text[55]"
				}
,
				"obj-1::obj-2::obj-26::obj-2" : 				{
					"parameter_longname" : "live.gain~[28]"
				}
,
				"obj-1::obj-2::obj-31::obj-18::obj-88" : 				{
					"parameter_longname" : "live.toggle[32]"
				}
,
				"obj-1::obj-2::obj-31::obj-18::obj-92" : 				{
					"parameter_longname" : "live.toggle[8]"
				}
,
				"obj-1::obj-2::obj-31::obj-22" : 				{
					"parameter_longname" : "live.gain~[17]"
				}
,
				"obj-1::obj-2::obj-3::obj-4" : 				{
					"parameter_longname" : "live.button[3]"
				}
,
				"obj-1::obj-3::obj-10::obj-55" : 				{
					"parameter_longname" : "live.text[37]"
				}
,
				"obj-1::obj-3::obj-10::obj-56" : 				{
					"parameter_longname" : "live.text[36]"
				}
,
				"obj-1::obj-3::obj-10::obj-60" : 				{
					"parameter_longname" : "live.text[35]"
				}
,
				"obj-1::obj-3::obj-12::obj-18::obj-88" : 				{
					"parameter_longname" : "live.toggle[24]"
				}
,
				"obj-1::obj-3::obj-12::obj-18::obj-92" : 				{
					"parameter_longname" : "live.toggle[25]"
				}
,
				"obj-1::obj-3::obj-12::obj-22" : 				{
					"parameter_longname" : "live.gain~[12]"
				}
,
				"obj-1::obj-3::obj-25::obj-18::obj-88" : 				{
					"parameter_longname" : "live.toggle[30]"
				}
,
				"obj-1::obj-3::obj-25::obj-18::obj-92" : 				{
					"parameter_longname" : "live.toggle[31]"
				}
,
				"obj-1::obj-3::obj-25::obj-22" : 				{
					"parameter_longname" : "live.gain~[26]"
				}
,
				"obj-1::obj-3::obj-26::obj-2" : 				{
					"parameter_longname" : "live.gain~[13]"
				}
,
				"obj-1::obj-3::obj-2::obj-18::obj-88" : 				{
					"parameter_longname" : "live.toggle[29]"
				}
,
				"obj-1::obj-3::obj-2::obj-18::obj-92" : 				{
					"parameter_longname" : "live.toggle[28]"
				}
,
				"obj-1::obj-3::obj-2::obj-22" : 				{
					"parameter_longname" : "live.gain~[14]"
				}
,
				"obj-1::obj-3::obj-3::obj-18::obj-88" : 				{
					"parameter_longname" : "live.toggle[7]"
				}
,
				"obj-1::obj-3::obj-3::obj-18::obj-92" : 				{
					"parameter_longname" : "live.toggle[6]"
				}
,
				"obj-1::obj-3::obj-3::obj-22" : 				{
					"parameter_longname" : "live.gain~[15]"
				}
,
				"obj-1::obj-4::obj-10::obj-55" : 				{
					"parameter_longname" : "live.text[32]"
				}
,
				"obj-1::obj-4::obj-10::obj-56" : 				{
					"parameter_longname" : "live.text[33]"
				}
,
				"obj-1::obj-4::obj-10::obj-60" : 				{
					"parameter_longname" : "live.text[34]"
				}
,
				"obj-1::obj-4::obj-12::obj-18::obj-88" : 				{
					"parameter_longname" : "live.toggle[27]"
				}
,
				"obj-1::obj-4::obj-12::obj-18::obj-92" : 				{
					"parameter_longname" : "live.toggle[15]"
				}
,
				"obj-1::obj-4::obj-12::obj-22" : 				{
					"parameter_longname" : "live.gain~[24]"
				}
,
				"obj-1::obj-4::obj-25" : 				{
					"parameter_longname" : "regularization[1]"
				}
,
				"obj-1::obj-4::obj-26::obj-2" : 				{
					"parameter_longname" : "live.gain~[25]"
				}
,
				"obj-1::obj-5::obj-15::obj-2" : 				{
					"parameter_longname" : "live.gain~[29]"
				}
,
				"obj-1::obj-5::obj-19" : 				{
					"parameter_longname" : "regularization[2]"
				}
,
				"obj-1::obj-5::obj-2::obj-55" : 				{
					"parameter_longname" : "live.text[59]"
				}
,
				"obj-1::obj-5::obj-2::obj-56" : 				{
					"parameter_longname" : "live.text[58]"
				}
,
				"obj-1::obj-5::obj-2::obj-60" : 				{
					"parameter_longname" : "live.text[57]"
				}
,
				"obj-1::obj-5::obj-40::obj-2" : 				{
					"parameter_longname" : "live.gain~[18]"
				}
,
				"obj-3::obj-12::obj-55" : 				{
					"parameter_longname" : "live.text[8]"
				}
,
				"obj-3::obj-12::obj-56" : 				{
					"parameter_longname" : "live.text[7]"
				}
,
				"obj-3::obj-12::obj-60" : 				{
					"parameter_longname" : "live.text[6]"
				}
,
				"obj-3::obj-15::obj-18::obj-88" : 				{
					"parameter_longname" : "live.toggle[23]"
				}
,
				"obj-3::obj-15::obj-18::obj-92" : 				{
					"parameter_longname" : "live.toggle[22]"
				}
,
				"obj-3::obj-15::obj-22" : 				{
					"parameter_longname" : "live.gain~[11]"
				}
,
				"obj-3::obj-3::obj-4" : 				{
					"parameter_longname" : "live.button[2]"
				}
,
				"obj-3::obj-40::obj-2" : 				{
					"parameter_longname" : "live.gain~[19]"
				}

			}
,
			"inherited_shortname" : 1
		}
,
		"dependency_cache" : [ 			{
				"name" : "1-motion-descriptors.maxpat",
				"bootpath" : "~/Repositories/Gestural-Sound-Toolkit/examples",
				"patcherrelativepath" : "../examples",
				"type" : "JSON",
				"implicit" : 1
			}
, 			{
				"name" : "2-triggering.maxpat",
				"bootpath" : "~/Repositories/Gestural-Sound-Toolkit/examples",
				"patcherrelativepath" : "../examples",
				"type" : "JSON",
				"implicit" : 1
			}
, 			{
				"name" : "3-classification-static.maxpat",
				"bootpath" : "~/Repositories/Gestural-Sound-Toolkit/examples",
				"patcherrelativepath" : "../examples",
				"type" : "JSON",
				"implicit" : 1
			}
, 			{
				"name" : "4-classification-dynamic.maxpat",
				"bootpath" : "~/Repositories/Gestural-Sound-Toolkit/examples",
				"patcherrelativepath" : "../examples",
				"type" : "JSON",
				"implicit" : 1
			}
, 			{
				"name" : "5-regression-nXm-mapping.maxpat",
				"bootpath" : "~/Repositories/Gestural-Sound-Toolkit/examples",
				"patcherrelativepath" : "../examples",
				"type" : "JSON",
				"implicit" : 1
			}
, 			{
				"name" : "FM-synth-adsr.maxpat",
				"bootpath" : "~/Repositories/Gestural-Sound-Toolkit/patchers/mod-synthesis",
				"patcherrelativepath" : "../patchers/mod-synthesis",
				"type" : "JSON",
				"implicit" : 1
			}
, 			{
				"name" : "FM-synth-const.maxpat",
				"bootpath" : "~/Repositories/Gestural-Sound-Toolkit/patchers/mod-synthesis",
				"patcherrelativepath" : "../patchers/mod-synthesis",
				"type" : "JSON",
				"implicit" : 1
			}
, 			{
				"name" : "comote-connect-resize.js",
				"bootpath" : "~/Repositories/Gestural-Sound-Toolkit/patchers/mod-interfaces/comote",
				"patcherrelativepath" : "../patchers/mod-interfaces/comote",
				"type" : "TEXT",
				"implicit" : 1
			}
, 			{
				"name" : "comote-connect-server.js",
				"bootpath" : "~/Repositories/Gestural-Sound-Toolkit/patchers/mod-interfaces/comote",
				"patcherrelativepath" : "../patchers/mod-interfaces/comote",
				"type" : "TEXT",
				"implicit" : 1
			}
, 			{
				"name" : "comote-connect.maxpat",
				"bootpath" : "~/Repositories/Gestural-Sound-Toolkit/patchers/mod-interfaces/comote",
				"patcherrelativepath" : "../patchers/mod-interfaces/comote",
				"type" : "JSON",
				"implicit" : 1
			}
, 			{
				"name" : "comote-screenshot-3.png",
				"bootpath" : "~/Repositories/Gestural-Sound-Toolkit/patchers/mod-interfaces/comote",
				"patcherrelativepath" : "../patchers/mod-interfaces/comote",
				"type" : "PNG",
				"implicit" : 1
			}
, 			{
				"name" : "drawing.maxpat",
				"bootpath" : "~/Repositories/Gestural-Sound-Toolkit/patchers/mod-interfaces/lcd",
				"patcherrelativepath" : "../patchers/mod-interfaces/lcd",
				"type" : "JSON",
				"implicit" : 1
			}
, 			{
				"name" : "fit_jweb_to_bounds.js",
				"bootpath" : "C74:/packages/Node for Max/patchers/debug-monitor",
				"type" : "TEXT",
				"implicit" : 1
			}
, 			{
				"name" : "gst.recorddata.maxpat",
				"bootpath" : "~/Repositories/Gestural-Sound-Toolkit/patchers/mod-interfaces/data-recording-playing",
				"patcherrelativepath" : "../patchers/mod-interfaces/data-recording-playing",
				"type" : "JSON",
				"implicit" : 1
			}
, 			{
				"name" : "gst.riotbitalino.maxpat",
				"bootpath" : "~/Repositories/Gestural-Sound-Toolkit/patchers/mod-interfaces/riot",
				"patcherrelativepath" : "../patchers/mod-interfaces/riot",
				"type" : "JSON",
				"implicit" : 1
			}
, 			{
				"name" : "helpstarter.js",
				"bootpath" : "C74:/help/resources",
				"type" : "TEXT",
				"implicit" : 1
			}
, 			{
				"name" : "imubu.mxo",
				"type" : "iLaX"
			}
, 			{
				"name" : "in.comote.maxpat",
				"bootpath" : "~/Repositories/Gestural-Sound-Toolkit/patchers/mod-interfaces/comote",
				"patcherrelativepath" : "../patchers/mod-interfaces/comote",
				"type" : "JSON",
				"implicit" : 1
			}
, 			{
				"name" : "in.riotbitalino.maxpat",
				"bootpath" : "~/Repositories/Gestural-Sound-Toolkit/patchers/mod-interfaces/riot",
				"patcherrelativepath" : "../patchers/mod-interfaces/riot",
				"type" : "JSON",
				"implicit" : 1
			}
, 			{
				"name" : "ml.classification.gmm.maxpat",
				"bootpath" : "~/Repositories/Gestural-Sound-Toolkit/patchers/mod-machine-learning",
				"patcherrelativepath" : "../patchers/mod-machine-learning",
				"type" : "JSON",
				"implicit" : 1
			}
, 			{
				"name" : "ml.classification.hhmm.maxpat",
				"bootpath" : "~/Repositories/Gestural-Sound-Toolkit/patchers/mod-machine-learning",
				"patcherrelativepath" : "../patchers/mod-machine-learning",
				"type" : "JSON",
				"implicit" : 1
			}
, 			{
				"name" : "ml.regression.gmr.maxpat",
				"bootpath" : "~/Repositories/Gestural-Sound-Toolkit/patchers/mod-machine-learning",
				"patcherrelativepath" : "../patchers/mod-machine-learning",
				"type" : "JSON",
				"implicit" : 1
			}
, 			{
				"name" : "mubu.gmm.maxhelp",
				"bootpath" : "~/Documents/Max 9/Packages/MuBu For Max/help",
				"patcherrelativepath" : "../../../Documents/Max 9/Packages/MuBu For Max/help",
				"type" : "JSON",
				"implicit" : 1
			}
, 			{
				"name" : "mubu.gmm.mxo",
				"type" : "iLaX"
			}
, 			{
				"name" : "mubu.gmr.maxhelp",
				"bootpath" : "~/Documents/Max 9/Packages/MuBu For Max/help",
				"patcherrelativepath" : "../../../Documents/Max 9/Packages/MuBu For Max/help",
				"type" : "JSON",
				"implicit" : 1
			}
, 			{
				"name" : "mubu.gmr.mxo",
				"type" : "iLaX"
			}
, 			{
				"name" : "mubu.hhmm.maxhelp",
				"bootpath" : "~/Documents/Max 9/Packages/MuBu For Max/help",
				"patcherrelativepath" : "../../../Documents/Max 9/Packages/MuBu For Max/help",
				"type" : "JSON",
				"implicit" : 1
			}
, 			{
				"name" : "mubu.hhmm.mxo",
				"type" : "iLaX"
			}
, 			{
				"name" : "mubu.mxo",
				"type" : "iLaX"
			}
, 			{
				"name" : "mubu.play.mxo",
				"type" : "iLaX"
			}
, 			{
				"name" : "mubu.record.mxo",
				"type" : "iLaX"
			}
, 			{
				"name" : "mubu.scroll.mxo",
				"type" : "iLaX"
			}
, 			{
				"name" : "mubu.setlabels.maxpat",
				"bootpath" : "~/Documents/Max 9/Packages/MuBu For Max/patchers",
				"patcherrelativepath" : "../../../Documents/Max 9/Packages/MuBu For Max/patchers",
				"type" : "JSON",
				"implicit" : 1
			}
, 			{
				"name" : "mubu.track.mxo",
				"type" : "iLaX"
			}
, 			{
				"name" : "n4m.monitor.maxpat",
				"bootpath" : "C74:/packages/Node for Max/patchers/debug-monitor",
				"type" : "JSON",
				"implicit" : 1
			}
, 			{
				"name" : "pipo.mxo",
				"type" : "iLaX"
			}
, 			{
				"name" : "resize_n4m_monitor_patcher.js",
				"bootpath" : "C74:/packages/Node for Max/patchers/debug-monitor",
				"type" : "TEXT",
				"implicit" : 1
			}
, 			{
				"name" : "sid.output.maxpat",
				"bootpath" : "~/Repositories/Gestural-Sound-Toolkit/patchers/mod-synthesis",
				"patcherrelativepath" : "../patchers/mod-synthesis",
				"type" : "JSON",
				"implicit" : 1
			}
, 			{
				"name" : "sp.acc.intensity.maxpat",
				"bootpath" : "~/Repositories/Gestural-Sound-Toolkit/patchers/mod-analysis/signal-processing",
				"patcherrelativepath" : "../patchers/mod-analysis/signal-processing",
				"type" : "JSON",
				"implicit" : 1
			}
, 			{
				"name" : "sp.angles.maxpat",
				"bootpath" : "~/Repositories/Gestural-Sound-Toolkit/patchers/mod-analysis/signal-processing",
				"patcherrelativepath" : "../patchers/mod-analysis/signal-processing",
				"type" : "JSON",
				"implicit" : 1
			}
, 			{
				"name" : "sp.bandpass.maxpat",
				"bootpath" : "~/Repositories/Gestural-Sound-Toolkit/patchers/mod-analysis/signal-processing",
				"patcherrelativepath" : "../patchers/mod-analysis/signal-processing",
				"type" : "JSON",
				"implicit" : 1
			}
, 			{
				"name" : "sp.derivative.maxpat",
				"bootpath" : "~/Repositories/Gestural-Sound-Toolkit/patchers/mod-analysis/signal-processing",
				"patcherrelativepath" : "../patchers/mod-analysis/signal-processing",
				"type" : "JSON",
				"implicit" : 1
			}
, 			{
				"name" : "sp.gate.float.maxpat",
				"bootpath" : "~/Repositories/Gestural-Sound-Toolkit/patchers/mod-analysis/signal-processing",
				"patcherrelativepath" : "../patchers/mod-analysis/signal-processing",
				"type" : "JSON",
				"implicit" : 1
			}
, 			{
				"name" : "sp.highpass.maxpat",
				"bootpath" : "~/Repositories/Gestural-Sound-Toolkit/patchers/mod-analysis/signal-processing",
				"patcherrelativepath" : "../patchers/mod-analysis/signal-processing",
				"type" : "JSON",
				"implicit" : 1
			}
, 			{
				"name" : "sp.kick.maxpat",
				"bootpath" : "~/Repositories/Gestural-Sound-Toolkit/patchers/mod-analysis/signal-processing",
				"patcherrelativepath" : "../patchers/mod-analysis/signal-processing",
				"type" : "JSON",
				"implicit" : 1
			}
, 			{
				"name" : "sp.lowpass.maxpat",
				"bootpath" : "~/Repositories/Gestural-Sound-Toolkit/patchers/mod-analysis/signal-processing",
				"patcherrelativepath" : "../patchers/mod-analysis/signal-processing",
				"type" : "JSON",
				"implicit" : 1
			}
, 			{
				"name" : "sp.norm.maxpat",
				"bootpath" : "~/Repositories/Gestural-Sound-Toolkit/patchers/mod-analysis/signal-processing",
				"patcherrelativepath" : "../patchers/mod-analysis/signal-processing",
				"type" : "JSON",
				"implicit" : 1
			}
, 			{
				"name" : "sp.orientation.maxpat",
				"bootpath" : "~/Repositories/Gestural-Sound-Toolkit/patchers/mod-analysis/signal-processing",
				"patcherrelativepath" : "../patchers/mod-analysis/signal-processing",
				"type" : "JSON",
				"implicit" : 1
			}
, 			{
				"name" : "synth.FM.maxpat",
				"bootpath" : "~/Repositories/Gestural-Sound-Toolkit/patchers/mod-synthesis",
				"patcherrelativepath" : "../patchers/mod-synthesis",
				"type" : "JSON",
				"implicit" : 1
			}
, 			{
				"name" : "synth.ctrl.soundpool.maxpat",
				"bootpath" : "~/Repositories/Gestural-Sound-Toolkit/patchers/mod-synthesis",
				"patcherrelativepath" : "../patchers/mod-synthesis",
				"type" : "JSON",
				"implicit" : 1
			}
, 			{
				"name" : "synth.filter.maxpat",
				"bootpath" : "~/Repositories/Gestural-Sound-Toolkit/patchers/mod-synthesis",
				"patcherrelativepath" : "../patchers/mod-synthesis",
				"type" : "JSON",
				"implicit" : 1
			}
, 			{
				"name" : "synth.scratch.samples.maxpat",
				"bootpath" : "~/Repositories/Gestural-Sound-Toolkit/patchers/mod-synthesis",
				"patcherrelativepath" : "../patchers/mod-synthesis",
				"type" : "JSON",
				"implicit" : 1
			}
 ],
		"autosave" : 0
	}

}
